victorianna_thin_italic.ufo
<glyph name="a_s" format="1">
  <advance width="1640"/>
  <unicode hex="0010"/>
  <outline>
    <contour>
      <point x="978" y="152" type="line"/>
      <point x="898" y="64"/>
      <point x="824" y="-16"/>
      <point x="755" y="-16" type="curve" smooth="yes"/>
      <point x="689" y="-16"/>
      <point x="687" y="56"/>
      <point x="687" y="116" type="curve" smooth="yes"/>
      <point x="687" y="250"/>
      <point x="718" y="397"/>
      <point x="750" y="558" type="curve"/>
      <point x="559" y="185"/>
      <point x="386" y="-15"/>
      <point x="232" y="-15" type="curve" smooth="yes"/>
      <point x="85" y="-15"/>
      <point x="60" y="89"/>
      <point x="60" y="225" type="curve" smooth="yes"/>
      <point x="60" y="521"/>
      <point x="269" y="1015"/>
      <point x="635" y="1015" type="curve" smooth="yes"/>
      <point x="722" y="1015"/>
      <point x="791" y="982"/>
      <point x="840" y="917" type="curve"/>
      <point x="806" y="899" type="line"/>
      <point x="793" y="916"/>
      <point x="741" y="978"/>
      <point x="635" y="978" type="curve" smooth="yes"/>
      <point x="296" y="978"/>
      <point x="96" y="506"/>
      <point x="96" y="225" type="curve" smooth="yes"/>
      <point x="96" y="121"/>
      <point x="104" y="22"/>
      <point x="232" y="22" type="curve" smooth="yes"/>
      <point x="440" y="22"/>
      <point x="649" y="440"/>
      <point x="786" y="711" type="curve"/>
      <point x="820" y="698" type="line"/>
      <point x="755" y="449"/>
      <point x="722" y="231"/>
      <point x="722" y="111" type="curve" smooth="yes"/>
      <point x="722" y="72"/>
      <point x="724" y="20"/>
      <point x="758" y="22" type="curve" smooth="yes"/>
      <point x="810" y="24"/>
      <point x="875" y="95"/>
      <point x="949" y="175" type="curve"/>
      <point x="1602" y="888" type="line"/>
      <point x="1598" y="956"/>
      <point x="1495" y="981"/>
      <point x="1440" y="981" type="curve" smooth="yes"/>
      <point x="1315" y="981"/>
      <point x="1192" y="917"/>
      <point x="1192" y="781" type="curve" smooth="yes"/>
      <point x="1192" y="629"/>
      <point x="1528" y="538"/>
      <point x="1528" y="310" type="curve" smooth="yes"/>
      <point x="1528" y="136"/>
      <point x="1383" y="-14"/>
      <point x="1140" y="-14" type="curve" smooth="yes"/>
      <point x="1044" y="-14"/>
      <point x="934" y="24"/>
      <point x="926" y="132" type="curve"/>
      <point x="958" y="150" type="line"/>
      <point x="963" y="55"/>
      <point x="1062" y="23"/>
      <point x="1141" y="23" type="curve" smooth="yes"/>
      <point x="1347" y="23"/>
      <point x="1491" y="146"/>
      <point x="1491" y="310" type="curve" smooth="yes"/>
      <point x="1491" y="530"/>
      <point x="1154" y="589"/>
      <point x="1154" y="788" type="curve" smooth="yes"/>
      <point x="1154" y="940"/>
      <point x="1311" y="1016"/>
      <point x="1445" y="1016" type="curve" smooth="yes"/>
      <point x="1531" y="1016"/>
      <point x="1636" y="980"/>
      <point x="1640" y="877" type="curve"/>
    </contour>
  </outline>
</glyph>
<glyph name="z_z" format="1">
  <advance width="1583"/>
  <unicode hex="0016"/>
  <outline>
    <contour>
      <point x="1505" y="740" type="line"/>
      <point x="1476" y="711" type="line" smooth="yes"/>
      <point x="1426" y="662"/>
      <point x="1328" y="637"/>
      <point x="1265" y="637" type="curve" smooth="yes"/>
      <point x="1121" y="637"/>
      <point x="993" y="723"/>
      <point x="851" y="723" type="curve" smooth="yes"/>
      <point x="696" y="723"/>
      <point x="589" y="613"/>
      <point x="589" y="508" type="curve" smooth="yes"/>
      <point x="589" y="491"/>
      <point x="591" y="475"/>
      <point x="596" y="462" type="curve"/>
      <point x="489" y="501"/>
      <point x="369" y="554"/>
      <point x="280" y="554" type="curve" smooth="yes"/>
      <point x="257" y="554"/>
      <point x="226" y="546"/>
      <point x="206" y="537" type="curve"/>
      <point x="1126" y="1416" type="line"/>
      <point x="1098" y="1440" type="line"/>
      <point x="1069" y="1411" type="line" smooth="yes"/>
      <point x="1019" y="1362"/>
      <point x="921" y="1337"/>
      <point x="858" y="1337" type="curve" smooth="yes"/>
      <point x="714" y="1337"/>
      <point x="586" y="1423"/>
      <point x="444" y="1423" type="curve" smooth="yes"/>
      <point x="289" y="1423"/>
      <point x="182" y="1313"/>
      <point x="182" y="1208" type="curve" smooth="yes"/>
      <point x="182" y="1104"/>
      <point x="275" y="1076"/>
      <point x="356" y="1104" type="curve"/>
      <point x="344" y="1139" type="line"/>
      <point x="279" y="1120"/>
      <point x="218" y="1130"/>
      <point x="218" y="1208" type="curve" smooth="yes"/>
      <point x="218" y="1311"/>
      <point x="330" y="1385"/>
      <point x="435" y="1385" type="curve" smooth="yes"/>
      <point x="585" y="1385"/>
      <point x="717" y="1301"/>
      <point x="861" y="1301" type="curve" smooth="yes"/>
      <point x="904" y="1301"/>
      <point x="943" y="1313"/>
      <point x="977" y="1324" type="curve"/>
      <point x="-5" y="383" type="line"/>
      <point x="23" y="360" type="line"/>
      <point x="145" y="476" type="line"/>
      <point x="190" y="503"/>
      <point x="235" y="517"/>
      <point x="280" y="517" type="curve" smooth="yes"/>
      <point x="412" y="517"/>
      <point x="539" y="440"/>
      <point x="657" y="401" type="curve" smooth="yes"/>
      <point x="688" y="391"/>
      <point x="727" y="391"/>
      <point x="763" y="404" type="curve"/>
      <point x="751" y="439" type="line"/>
      <point x="723" y="431"/>
      <point x="695" y="428"/>
      <point x="673" y="434" type="curve" smooth="yes"/>
      <point x="644" y="442"/>
      <point x="625" y="464"/>
      <point x="625" y="508" type="curve" smooth="yes"/>
      <point x="625" y="611"/>
      <point x="737" y="685"/>
      <point x="842" y="685" type="curve" smooth="yes"/>
      <point x="992" y="685"/>
      <point x="1124" y="601"/>
      <point x="1268" y="601" type="curve" smooth="yes"/>
      <point x="1311" y="601"/>
      <point x="1350" y="613"/>
      <point x="1384" y="624" type="curve"/>
      <point x="402" y="-317" type="line"/>
      <point x="430" y="-340" type="line"/>
      <point x="552" y="-224" type="line"/>
      <point x="597" y="-197"/>
      <point x="642" y="-183"/>
      <point x="687" y="-183" type="curve" smooth="yes"/>
      <point x="858" y="-183"/>
      <point x="1018" y="-316"/>
      <point x="1166" y="-316" type="curve" smooth="yes"/>
      <point x="1308" y="-316"/>
      <point x="1458" y="-222"/>
      <point x="1458" y="-72" type="curve" smooth="yes"/>
      <point x="1458" y="-4"/>
      <point x="1424" y="56"/>
      <point x="1379" y="101" type="curve"/>
      <point x="1353" y="76" type="line"/>
      <point x="1398" y="31"/>
      <point x="1422" y="-13"/>
      <point x="1422" y="-73" type="curve" smooth="yes"/>
      <point x="1422" y="-207"/>
      <point x="1281" y="-279"/>
      <point x="1166" y="-279" type="curve" smooth="yes"/>
      <point x="1048" y="-279"/>
      <point x="828" y="-146"/>
      <point x="687" y="-146" type="curve" smooth="yes"/>
      <point x="664" y="-146"/>
      <point x="633" y="-154"/>
      <point x="613" y="-163" type="curve"/>
      <point x="1533" y="716" type="line"/>
    </contour>
  </outline>
</glyph>
<glyph name="exclam" format="1">
  <advance width="426"/>
  <unicode hex="0021"/>
  <outline>
    <contour>
      <point x="261" y="-182" type="line"/>
      <point x="256" y="128" type="line"/>
      <point x="218" y="127" type="line"/>
      <point x="223" y="-183" type="line"/>
    </contour>
    <contour>
      <point x="261" y="353" type="line"/>
      <point x="223" y="353" type="line"/>
      <point x="218" y="1600" type="line"/>
      <point x="256" y="1600" type="line"/>
    </contour>
  </outline>
</glyph>
<glyph name="quotedbl" format="1">
  <advance width="580"/>
  <unicode hex="0022"/>
  <outline>
    <contour>
      <point x="605" y="1255" type="line"/>
      <point x="605" y="1530" type="line"/>
      <point x="567" y="1530" type="line"/>
      <point x="567" y="1273" type="line"/>
      <point x="382" y="1114" type="line"/>
      <point x="407" y="1085" type="line"/>
    </contour>
    <contour>
      <point x="452" y="1255" type="line"/>
      <point x="452" y="1530" type="line"/>
      <point x="414" y="1530" type="line"/>
      <point x="414" y="1273" type="line"/>
      <point x="229" y="1114" type="line"/>
      <point x="254" y="1085" type="line"/>
    </contour>
  </outline>
</glyph>
<glyph name="numbersign" format="1">
  <advance width="1297"/>
  <unicode hex="0023"/>
  <outline>
    <contour>
      <point x="464" y="681" type="line"/>
      <point x="230" y="3" type="line"/>
      <point x="194" y="16" type="line"/>
      <point x="424" y="681" type="line"/>
      <point x="166" y="681" type="line"/>
      <point x="166" y="719" type="line"/>
      <point x="437" y="719" type="line"/>
      <point x="506" y="918" type="line"/>
      <point x="166" y="918" type="line"/>
      <point x="166" y="956" type="line"/>
      <point x="519" y="956" type="line"/>
      <point x="751" y="1627" type="line"/>
      <point x="787" y="1614" type="line"/>
      <point x="559" y="956" type="line"/>
      <point x="989" y="956" type="line"/>
      <point x="1220" y="1627" type="line"/>
      <point x="1256" y="1614" type="line"/>
      <point x="1028" y="956" type="line"/>
      <point x="1284" y="956" type="line"/>
      <point x="1284" y="918" type="line"/>
      <point x="1015" y="918" type="line"/>
      <point x="946" y="719" type="line"/>
      <point x="1284" y="719" type="line"/>
      <point x="1284" y="681" type="line"/>
      <point x="933" y="681" type="line"/>
      <point x="699" y="3" type="line"/>
      <point x="664" y="16" type="line"/>
      <point x="893" y="681" type="line"/>
    </contour>
    <contour>
      <point x="477" y="719" type="line"/>
      <point x="906" y="719" type="line"/>
      <point x="975" y="918" type="line"/>
      <point x="546" y="918" type="line"/>
    </contour>
  </outline>
</glyph>
<glyph name="dollar" format="1">
  <advance width="1238"/>
  <unicode hex="0024"/>
  <outline>
    <contour>
      <point x="206" y="-108" type="line"/>
      <point x="245" y="-108" type="line"/>
      <point x="277" y="-3" type="line"/>
      <point x="318" y="-11"/>
      <point x="362" y="-15"/>
      <point x="409" y="-15" type="curve" smooth="yes"/>
      <point x="430" y="-15"/>
      <point x="452" y="-14"/>
      <point x="473" y="-13" type="curve"/>
      <point x="444" y="-108" type="line"/>
      <point x="482" y="-108" type="line"/>
      <point x="511" y="-11" type="line"/>
      <point x="851" y="15"/>
      <point x="1137" y="179"/>
      <point x="1137" y="531" type="curve" smooth="yes"/>
      <point x="1137" y="744"/>
      <point x="950" y="827"/>
      <point x="784" y="879" type="curve"/>
      <point x="998" y="1580" type="line"/>
      <point x="1067" y="1565"/>
      <point x="1122" y="1535"/>
      <point x="1163" y="1492" type="curve"/>
      <point x="1083" y="1351" type="line"/>
      <point x="1115" y="1333" type="line"/>
      <point x="1258" y="1582" type="line"/>
      <point x="1225" y="1601" type="line"/>
      <point x="1182" y="1525" type="line"/>
      <point x="1136" y="1570"/>
      <point x="1079" y="1601"/>
      <point x="1009" y="1617" type="curve"/>
      <point x="1059" y="1779" type="line"/>
      <point x="1021" y="1779" type="line"/>
      <point x="973" y="1623" type="line"/>
      <point x="948" y="1627"/>
      <point x="921" y="1629"/>
      <point x="893" y="1629" type="curve" smooth="yes"/>
      <point x="853" y="1629"/>
      <point x="812" y="1625"/>
      <point x="772" y="1618" type="curve"/>
      <point x="822" y="1779" type="line"/>
      <point x="784" y="1779" type="line"/>
      <point x="732" y="1609" type="line"/>
      <point x="511" y="1555"/>
      <point x="311" y="1393"/>
      <point x="311" y="1153" type="curve" smooth="yes"/>
      <point x="311" y="1040"/>
      <point x="396" y="972"/>
      <point x="521" y="921" type="curve"/>
      <point x="251" y="40" type="line"/>
      <point x="179" y="59"/>
      <point x="118" y="92"/>
      <point x="69" y="140" type="curve"/>
      <point x="155" y="297" type="line"/>
      <point x="121" y="315" type="line"/>
      <point x="-50" y="-1" type="line"/>
      <point x="-17" y="-18" type="line"/>
      <point x="51" y="106" type="line"/>
      <point x="103" y="58"/>
      <point x="166" y="24"/>
      <point x="240" y="5" type="curve"/>
    </contour>
    <contour>
      <point x="1098" y="529" type="curve" smooth="yes"/>
      <point x="1098" y="194"/>
      <point x="814" y="55"/>
      <point x="523" y="27" type="curve"/>
      <point x="773" y="843" type="line"/>
      <point x="933" y="794"/>
      <point x="1098" y="720"/>
    </contour>
    <contour>
      <point x="685" y="868" type="curve"/>
      <point x="738" y="853" type="line"/>
      <point x="484" y="24" type="line"/>
      <point x="459" y="22"/>
      <point x="434" y="22"/>
      <point x="409" y="22" type="curve" smooth="yes"/>
      <point x="366" y="22"/>
      <point x="325" y="25"/>
      <point x="288" y="32" type="curve"/>
      <point x="555" y="908" type="line"/>
      <point x="595" y="894"/>
      <point x="639" y="880"/>
    </contour>
    <contour>
      <point x="695" y="905" type="line" smooth="yes"/>
      <point x="648" y="918"/>
      <point x="605" y="931"/>
      <point x="567" y="945" type="curve"/>
      <point x="760" y="1576" type="line"/>
      <point x="803" y="1586"/>
      <point x="846" y="1591"/>
      <point x="888" y="1591" type="curve" smooth="yes"/>
      <point x="914" y="1591"/>
      <point x="939" y="1589"/>
      <point x="962" y="1586" type="curve"/>
      <point x="749" y="889" type="line"/>
    </contour>
    <contour>
      <point x="349" y="1154" type="curve" smooth="yes"/>
      <point x="349" y="1367"/>
      <point x="528" y="1511"/>
      <point x="719" y="1566" type="curve"/>
      <point x="533" y="958" type="line"/>
      <point x="415" y="1005"/>
      <point x="349" y="1061"/>
    </contour>
  </outline>
</glyph>
<glyph name="percent" format="1">
  <advance width="682"/>
  <unicode hex="0025"/>
  <outline>
    <contour>
      <point x="660" y="1614" type="line"/>
      <point x="104" y="3" type="line"/>
      <point x="68" y="16" type="line"/>
      <point x="625" y="1627" type="line"/>
    </contour>
    <contour>
      <point x="242" y="114" type="curve" smooth="yes"/>
      <point x="242" y="52"/>
      <point x="295" y="2"/>
      <point x="354" y="2" type="curve" smooth="yes"/>
      <point x="416" y="2"/>
      <point x="465" y="55"/>
      <point x="465" y="114" type="curve" smooth="yes"/>
      <point x="465" y="176"/>
      <point x="413" y="225"/>
      <point x="354" y="225" type="curve" smooth="yes"/>
      <point x="292" y="225"/>
      <point x="242" y="173"/>
    </contour>
    <contour>
      <point x="280" y="114" type="curve" smooth="yes"/>
      <point x="280" y="154"/>
      <point x="314" y="187"/>
      <point x="354" y="187" type="curve" smooth="yes"/>
      <point x="395" y="187"/>
      <point x="427" y="154"/>
      <point x="427" y="114" type="curve" smooth="yes"/>
      <point x="427" y="73"/>
      <point x="395" y="40"/>
      <point x="354" y="40" type="curve" smooth="yes"/>
      <point x="314" y="40"/>
      <point x="280" y="73"/>
    </contour>
    <contour>
      <point x="242" y="1505" type="curve" smooth="yes"/>
      <point x="242" y="1443"/>
      <point x="295" y="1393"/>
      <point x="354" y="1393" type="curve" smooth="yes"/>
      <point x="416" y="1393"/>
      <point x="465" y="1446"/>
      <point x="465" y="1505" type="curve" smooth="yes"/>
      <point x="465" y="1567"/>
      <point x="413" y="1616"/>
      <point x="354" y="1616" type="curve" smooth="yes"/>
      <point x="292" y="1616"/>
      <point x="242" y="1564"/>
    </contour>
    <contour>
      <point x="280" y="1505" type="curve" smooth="yes"/>
      <point x="280" y="1545"/>
      <point x="314" y="1578"/>
      <point x="354" y="1578" type="curve" smooth="yes"/>
      <point x="395" y="1578"/>
      <point x="427" y="1545"/>
      <point x="427" y="1505" type="curve" smooth="yes"/>
      <point x="427" y="1464"/>
      <point x="395" y="1431"/>
      <point x="354" y="1431" type="curve" smooth="yes"/>
      <point x="314" y="1431"/>
      <point x="280" y="1464"/>
    </contour>
  </outline>
</glyph>
<glyph name="ampersand" format="1">
  <advance width="2304"/>
  <unicode hex="0026"/>
  <outline>
    <contour>
      <point x="2254" y="1386" type="curve" smooth="yes"/>
      <point x="2149" y="1386"/>
      <point x="2058" y="1305"/>
      <point x="2058" y="1202" type="curve"/>
      <point x="2100" y="1202" type="line"/>
      <point x="2103" y="1287"/>
      <point x="2174" y="1346"/>
      <point x="2254" y="1346" type="curve" smooth="yes"/>
      <point x="2344" y="1346"/>
      <point x="2407" y="1282"/>
      <point x="2407" y="1171" type="curve" smooth="yes"/>
      <point x="2407" y="959"/>
      <point x="2208" y="904"/>
      <point x="2027" y="904" type="curve" smooth="yes"/>
      <point x="1776" y="904"/>
      <point x="1631" y="967"/>
      <point x="1508" y="967" type="curve" smooth="yes"/>
      <point x="1287" y="967"/>
      <point x="1139" y="855"/>
      <point x="1139" y="667" type="curve" smooth="yes"/>
      <point x="1139" y="520"/>
      <point x="1236" y="460"/>
      <point x="1335" y="460" type="curve" smooth="yes"/>
      <point x="1440" y="460"/>
      <point x="1531" y="542"/>
      <point x="1531" y="645" type="curve"/>
      <point x="1488" y="645" type="line"/>
      <point x="1485" y="561"/>
      <point x="1415" y="499"/>
      <point x="1335" y="499" type="curve" smooth="yes"/>
      <point x="1252" y="499"/>
      <point x="1180" y="548"/>
      <point x="1180" y="665" type="curve" smooth="yes"/>
      <point x="1180" y="855"/>
      <point x="1329" y="928"/>
      <point x="1528" y="928" type="curve" smooth="yes"/>
      <point x="1762" y="928"/>
      <point x="1834" y="691"/>
      <point x="1834" y="497" type="curve" smooth="yes"/>
      <point x="1834" y="127"/>
      <point x="1395" y="8"/>
      <point x="935" y="8" type="curve" smooth="yes"/>
      <point x="579" y="8"/>
      <point x="165" y="138"/>
      <point x="165" y="534" type="curve" smooth="yes"/>
      <point x="165" y="694"/>
      <point x="215" y="912"/>
      <point x="371" y="975" type="curve"/>
      <point x="453" y="873"/>
      <point x="571" y="800"/>
      <point x="694" y="800" type="curve" smooth="yes"/>
      <point x="771" y="800"/>
      <point x="849" y="848"/>
      <point x="849" y="927" type="curve" smooth="yes"/>
      <point x="849" y="1041"/>
      <point x="639" y="1056"/>
      <point x="568" y="1056" type="curve" smooth="yes"/>
      <point x="512" y="1056"/>
      <point x="426" y="1041"/>
      <point x="388" y="1025" type="curve"/>
      <point x="356" y="1077"/>
      <point x="340" y="1133"/>
      <point x="340" y="1191" type="curve" smooth="yes"/>
      <point x="340" y="1436"/>
      <point x="548" y="1612"/>
      <point x="792" y="1612" type="curve" smooth="yes"/>
      <point x="880" y="1612"/>
      <point x="1048" y="1592"/>
      <point x="1048" y="1484" type="curve" smooth="yes"/>
      <point x="1048" y="1432"/>
      <point x="1009" y="1367"/>
      <point x="934" y="1297" type="curve"/>
      <point x="963" y="1269" type="line"/>
      <point x="1048" y="1348"/>
      <point x="1090" y="1419"/>
      <point x="1090" y="1480" type="curve" smooth="yes"/>
      <point x="1090" y="1623"/>
      <point x="896" y="1651"/>
      <point x="792" y="1651" type="curve" smooth="yes"/>
      <point x="528" y="1651"/>
      <point x="297" y="1451"/>
      <point x="297" y="1188" type="curve" smooth="yes"/>
      <point x="297" y="1126"/>
      <point x="315" y="1066"/>
      <point x="349" y="1009" type="curve"/>
      <point x="180" y="938"/>
      <point x="123" y="707"/>
      <point x="123" y="532" type="curve" smooth="yes"/>
      <point x="123" y="94"/>
      <point x="582" y="-32"/>
      <point x="935" y="-32" type="curve" smooth="yes"/>
      <point x="1415" y="-32"/>
      <point x="1875" y="103"/>
      <point x="1875" y="497" type="curve" smooth="yes"/>
      <point x="1875" y="633"/>
      <point x="1845" y="803"/>
      <point x="1732" y="893" type="curve"/>
      <point x="1855" y="874"/>
      <point x="1956" y="864"/>
      <point x="2037" y="864" type="curve" smooth="yes"/>
      <point x="2259" y="864"/>
      <point x="2449" y="951"/>
      <point x="2449" y="1170" type="curve" smooth="yes"/>
      <point x="2449" y="1309"/>
      <point x="2370" y="1386"/>
    </contour>
    <contour>
      <point x="808" y="927" type="curve" smooth="yes"/>
      <point x="808" y="868"/>
      <point x="746" y="839"/>
      <point x="691" y="839" type="curve" smooth="yes"/>
      <point x="576" y="839"/>
      <point x="477" y="910"/>
      <point x="411" y="991" type="curve"/>
      <point x="457" y="1008"/>
      <point x="506" y="1017"/>
      <point x="564" y="1017" type="curve" smooth="yes"/>
      <point x="654" y="1017"/>
      <point x="808" y="997"/>
    </contour>
  </outline>
</glyph>
<glyph name="quotesingle" format="1">
  <advance width="443"/>
  <unicode hex="0027"/>
  <outline>
    <contour>
      <point x="452" y="1255" type="line"/>
      <point x="452" y="1530" type="line"/>
      <point x="414" y="1530" type="line"/>
      <point x="414" y="1273" type="line"/>
      <point x="229" y="1114" type="line"/>
      <point x="254" y="1085" type="line"/>
    </contour>
  </outline>
</glyph>
<glyph name="parenleft" format="1">
  <advance width="477"/>
  <unicode hex="0028"/>
  <outline>
    <contour>
      <point x="565" y="1391" type="curve" smooth="yes"/>
      <point x="450" y="1232"/>
      <point x="358" y="1041"/>
      <point x="290" y="818" type="curve" smooth="yes"/>
      <point x="222" y="597"/>
      <point x="197" y="406"/>
      <point x="215" y="245" type="curve"/>
      <point x="234" y="86"/>
      <point x="296" y="-1"/>
      <point x="393" y="-1" type="curve"/>
      <point x="405" y="37" type="line"/>
      <point x="365" y="37"/>
      <point x="332" y="56"/>
      <point x="306" y="94" type="curve" smooth="yes"/>
      <point x="279" y="134"/>
      <point x="262" y="189"/>
      <point x="254" y="260" type="curve" smooth="yes"/>
      <point x="237" y="415"/>
      <point x="262" y="601"/>
      <point x="328" y="818" type="curve" smooth="yes"/>
      <point x="395" y="1037"/>
      <point x="484" y="1223"/>
      <point x="595" y="1377" type="curve" smooth="yes"/>
      <point x="648" y="1450"/>
      <point x="699" y="1505"/>
      <point x="748" y="1542" type="curve" smooth="yes"/>
      <point x="797" y="1580"/>
      <point x="841" y="1599"/>
      <point x="882" y="1599" type="curve"/>
      <point x="894" y="1637" type="line"/>
      <point x="797" y="1637"/>
      <point x="680" y="1550"/>
    </contour>
  </outline>
</glyph>
<glyph name="parenright" format="1">
  <advance width="512"/>
  <unicode hex="0029"/>
  <outline>
    <contour>
      <point x="117" y="247" type="curve" smooth="yes"/>
      <point x="231" y="404"/>
      <point x="322" y="595"/>
      <point x="391" y="820" type="curve" smooth="yes"/>
      <point x="459" y="1043"/>
      <point x="484" y="1234"/>
      <point x="467" y="1393" type="curve"/>
      <point x="448" y="1552"/>
      <point x="386" y="1639"/>
      <point x="289" y="1639" type="curve"/>
      <point x="277" y="1601" type="line"/>
      <point x="317" y="1601"/>
      <point x="350" y="1582"/>
      <point x="376" y="1544" type="curve" smooth="yes"/>
      <point x="403" y="1504"/>
      <point x="420" y="1449"/>
      <point x="428" y="1378" type="curve" smooth="yes"/>
      <point x="445" y="1223"/>
      <point x="420" y="1037"/>
      <point x="354" y="820" type="curve"/>
      <point x="287" y="604"/>
      <point x="198" y="418"/>
      <point x="86" y="262" type="curve" smooth="yes"/>
      <point x="31" y="187"/>
      <point x="-20" y="132"/>
      <point x="-67" y="96" type="curve" smooth="yes"/>
      <point x="-116" y="58"/>
      <point x="-160" y="39"/>
      <point x="-200" y="39" type="curve"/>
      <point x="-212" y="1" type="line"/>
      <point x="-115" y="1"/>
      <point x="2" y="88"/>
    </contour>
  </outline>
</glyph>
<glyph name="asterisk" format="1">
  <advance width="448"/>
  <unicode hex="002A"/>
  <outline>
    <contour>
      <point x="683" y="1538" type="line"/>
      <point x="664" y="1564" type="line"/>
      <point x="494" y="1434" type="line"/>
      <point x="550" y="1619" type="line"/>
      <point x="512" y="1619" type="line"/>
      <point x="456" y="1434" type="line"/>
      <point x="365" y="1564" type="line"/>
      <point x="330" y="1538" type="line"/>
      <point x="420" y="1407" type="line"/>
      <point x="236" y="1407" type="line"/>
      <point x="225" y="1370" type="line"/>
      <point x="409" y="1370" type="line"/>
      <point x="239" y="1239" type="line"/>
      <point x="257" y="1212" type="line"/>
      <point x="428" y="1342" type="line"/>
      <point x="371" y="1158" type="line"/>
      <point x="409" y="1158" type="line"/>
      <point x="465" y="1342" type="line"/>
      <point x="556" y="1212" type="line"/>
      <point x="592" y="1239" type="line"/>
      <point x="501" y="1370" type="line"/>
      <point x="685" y="1370" type="line"/>
      <point x="697" y="1407" type="line"/>
      <point x="512" y="1407" type="line"/>
    </contour>
  </outline>
</glyph>
<glyph name="plus" format="1">
  <advance width="955"/>
  <unicode hex="002B"/>
  <outline>
    <contour>
      <point x="704" y="1225" type="line"/>
      <point x="666" y="1225" type="line"/>
      <point x="547" y="837" type="line"/>
      <point x="159" y="837" type="line"/>
      <point x="147" y="800" type="line"/>
      <point x="536" y="800" type="line"/>
      <point x="417" y="411" type="line"/>
      <point x="455" y="411" type="line"/>
      <point x="573" y="800" type="line"/>
      <point x="962" y="800" type="line"/>
      <point x="973" y="837" type="line"/>
      <point x="585" y="837" type="line"/>
    </contour>
  </outline>
</glyph>
<glyph name="comma" format="1">
  <advance width="420"/>
  <unicode hex="002C"/>
  <outline>
    <contour>
      <point x="136" y="0" type="line"/>
      <point x="220" y="275" type="line"/>
      <point x="182" y="275" type="line"/>
      <point x="103" y="18" type="line"/>
      <point x="-130" y="-140" type="line"/>
      <point x="-114" y="-170" type="line"/>
    </contour>
  </outline>
</glyph>
<glyph name="hyphen" format="1">
  <advance width="1058"/>
  <unicode hex="002D"/>
  <outline>
    <contour>
      <point x="131" y="800" type="line"/>
      <point x="945" y="800" type="line"/>
      <point x="956" y="837" type="line"/>
      <point x="142" y="837" type="line"/>
    </contour>
  </outline>
</glyph>
<glyph name="period" format="1">
  <advance width="478"/>
  <unicode hex="002E"/>
  <outline>
    <contour>
      <point x="59" y="32" type="curve" smooth="yes"/>
      <point x="74" y="10"/>
      <point x="98" y="-1"/>
      <point x="129" y="-1" type="curve" smooth="yes"/>
      <point x="160" y="-1"/>
      <point x="190" y="10"/>
      <point x="219" y="32" type="curve" smooth="yes"/>
      <point x="248" y="55"/>
      <point x="268" y="82"/>
      <point x="277" y="113" type="curve" smooth="yes"/>
      <point x="286" y="144"/>
      <point x="283" y="171"/>
      <point x="268" y="193" type="curve" smooth="yes"/>
      <point x="253" y="215"/>
      <point x="230" y="226"/>
      <point x="199" y="226" type="curve" smooth="yes"/>
      <point x="168" y="226"/>
      <point x="137" y="215"/>
      <point x="108" y="193" type="curve" smooth="yes"/>
      <point x="79" y="171"/>
      <point x="60" y="144"/>
      <point x="51" y="113" type="curve" smooth="yes"/>
      <point x="42" y="82"/>
      <point x="44" y="55"/>
    </contour>
    <contour>
      <point x="127" y="166" type="curve" smooth="yes"/>
      <point x="166" y="195"/>
      <point x="213" y="195"/>
      <point x="233" y="166" type="curve" smooth="yes"/>
      <point x="254" y="137"/>
      <point x="239" y="89"/>
      <point x="200" y="60" type="curve" smooth="yes"/>
      <point x="163" y="31"/>
      <point x="115" y="31"/>
      <point x="94" y="60" type="curve" smooth="yes"/>
      <point x="74" y="89"/>
      <point x="90" y="137"/>
    </contour>
  </outline>
</glyph>
<glyph name="slash" format="1">
  <advance width="682"/>
  <unicode hex="002F"/>
  <outline>
    <contour>
      <point x="965" y="1614" type="line"/>
      <point x="-84" y="3" type="line"/>
      <point x="-116" y="16" type="line"/>
      <point x="933" y="1627" type="line"/>
    </contour>
  </outline>
</glyph>
<glyph name="zero" format="1">
  <advance width="1352"/>
  <unicode hex="0030"/>
  <outline>
    <contour>
      <point x="100" y="514" type="curve" smooth="yes"/>
      <point x="100" y="254"/>
      <point x="229" y="-14"/>
      <point x="503" y="-14" type="curve" smooth="yes"/>
      <point x="1016" y="-14"/>
      <point x="1412" y="684"/>
      <point x="1412" y="1123" type="curve" smooth="yes"/>
      <point x="1412" y="1386"/>
      <point x="1305" y="1629"/>
      <point x="1003" y="1629" type="curve" smooth="yes"/>
      <point x="471" y="1629"/>
      <point x="100" y="964"/>
    </contour>
    <contour>
      <point x="514" y="24" type="curve" smooth="yes"/>
      <point x="239" y="24"/>
      <point x="140" y="296"/>
      <point x="140" y="511" type="curve" smooth="yes"/>
      <point x="140" y="963"/>
      <point x="506" y="1590"/>
      <point x="992" y="1590" type="curve" smooth="yes"/>
      <point x="1265" y="1590"/>
      <point x="1369" y="1378"/>
      <point x="1373" y="1124" type="curve" smooth="yes"/>
      <point x="1381" y="701"/>
      <point x="990" y="24"/>
    </contour>
  </outline>
</glyph>
<glyph name="one" format="1">
  <advance width="725"/>
  <unicode hex="0031"/>
  <outline>
    <contour>
      <point x="228" y="38" type="curve"/>
      <point x="415" y="38" type="line"/>
      <point x="404" y="0" type="line"/>
      <point x="54" y="0" type="line"/>
      <point x="53" y="0" type="line"/>
      <point x="66" y="38" type="line"/>
      <point x="160" y="38"/>
      <point x="258" y="65"/>
      <point x="288" y="157" type="curve" smooth="yes"/>
      <point x="721" y="1575" type="line"/>
      <point x="264" y="1248" type="line"/>
      <point x="246" y="1276" type="line"/>
      <point x="786" y="1662" type="line"/>
      <point x="326" y="157" type="line" smooth="yes"/>
      <point x="313" y="115"/>
      <point x="285" y="69"/>
    </contour>
  </outline>
</glyph>
<glyph name="two" format="1">
  <advance width="1292"/>
  <unicode hex="0032"/>
  <outline>
    <contour>
      <point x="-29" y="0" type="line" name="hr00"/>
      <point x="89" y="373"/>
      <point x="314" y="579"/>
      <point x="772" y="839" type="curve" smooth="yes"/>
      <point x="982" y="958"/>
      <point x="1235" y="1100"/>
      <point x="1306" y="1323" type="curve" smooth="yes"/>
      <point x="1367" y="1515"/>
      <point x="1224" y="1590"/>
      <point x="1061" y="1593" type="curve" smooth="yes"/>
      <point x="928" y="1593"/>
      <point x="796" y="1561"/>
      <point x="675" y="1516" type="curve"/>
      <point x="486" y="1304" type="line"/>
      <point x="458" y="1324" type="line"/>
      <point x="658" y="1546" type="line"/>
      <point x="798" y="1596"/>
      <point x="931" y="1631"/>
      <point x="1056" y="1631" type="curve" smooth="yes"/>
      <point x="1259" y="1633"/>
      <point x="1412" y="1536"/>
      <point x="1345" y="1323" type="curve" smooth="yes"/>
      <point x="1282" y="1126"/>
      <point x="1120" y="999"/>
      <point x="784" y="806" type="curve" smooth="yes"/>
      <point x="423" y="599"/>
      <point x="139" y="405"/>
      <point x="22" y="38" type="curve"/>
      <point x="866" y="38" type="line"/>
      <point x="1108" y="208" type="line"/>
      <point x="1125" y="180" type="line"/>
      <point x="868" y="0" type="line"/>
    </contour>
  </outline>
</glyph>
<glyph name="three" format="1">
  <advance width="1178"/>
  <unicode hex="0033"/>
  <outline>
    <contour>
      <point x="-26" y="243" type="line" name="hr00"/>
      <point x="-65" y="92"/>
      <point x="57" y="-15"/>
      <point x="216" y="-15" type="curve" smooth="yes"/>
      <point x="553" y="-15"/>
      <point x="968" y="289"/>
      <point x="1078" y="636" type="curve" smooth="yes"/>
      <point x="1159" y="890"/>
      <point x="1050" y="1056"/>
      <point x="779" y="1004" type="curve"/>
      <point x="1020" y="1120"/>
      <point x="1117" y="1225"/>
      <point x="1155" y="1343" type="curve" smooth="yes"/>
      <point x="1212" y="1521"/>
      <point x="1057" y="1636"/>
      <point x="889" y="1636" type="curve" smooth="yes"/>
      <point x="730" y="1636"/>
      <point x="566" y="1543"/>
      <point x="438" y="1422" type="curve"/>
      <point x="462" y="1399" type="line"/>
      <point x="600" y="1529"/>
      <point x="747" y="1599"/>
      <point x="877" y="1598" type="curve" smooth="yes"/>
      <point x="1026" y="1598"/>
      <point x="1171" y="1515"/>
      <point x="1115" y="1340" type="curve" smooth="yes"/>
      <point x="1074" y="1213"/>
      <point x="961" y="1130"/>
      <point x="720" y="1005" type="curve" smooth="yes"/>
      <point x="402" y="840" type="line"/>
      <point x="408" y="824" type="line"/>
      <point x="413" y="808" type="line"/>
      <point x="601" y="905" type="line" smooth="yes"/>
      <point x="920" y="1070"/>
      <point x="1141" y="959"/>
      <point x="1039" y="635" type="curve" smooth="yes"/>
      <point x="929" y="287"/>
      <point x="511" y="24"/>
      <point x="230" y="24" type="curve" smooth="yes"/>
      <point x="59" y="24"/>
      <point x="-26" y="131"/>
      <point x="13" y="243" type="curve"/>
    </contour>
  </outline>
</glyph>
<glyph name="four" format="1">
  <advance width="1350"/>
  <unicode hex="0034"/>
  <outline>
    <contour>
      <point x="87" y="596" type="line" name="hr00"/>
      <point x="1232" y="1904" type="line"/>
      <point x="1260" y="1885" type="line"/>
      <point x="165" y="635" type="line"/>
      <point x="893" y="635" type="line"/>
      <point x="1108" y="1311" type="line"/>
      <point x="1146" y="1311" type="line"/>
      <point x="931" y="635" type="line"/>
      <point x="1224" y="635" type="line"/>
      <point x="1211" y="596" type="line"/>
      <point x="918" y="596" type="line"/>
      <point x="803" y="235" type="line" smooth="yes"/>
      <point x="773" y="138"/>
      <point x="697" y="76"/>
      <point x="611" y="39" type="curve"/>
      <point x="1034" y="39" type="line"/>
      <point x="1022" y="0" type="line"/>
      <point x="397" y="0" type="line"/>
      <point x="410" y="39" type="line"/>
      <point x="568" y="43"/>
      <point x="722" y="96"/>
      <point x="765" y="235" type="curve" smooth="yes"/>
      <point x="880" y="596" type="line"/>
    </contour>
  </outline>
</glyph>
<glyph name="five" format="1">
  <advance width="1238"/>
  <unicode hex="0035"/>
  <outline>
    <contour>
      <point x="-142" y="-132" type="curve" name="hr00"/>
      <point x="-154" y="-171" type="line"/>
      <point x="327" y="-193"/>
      <point x="916" y="168"/>
      <point x="1074" y="663" type="curve" smooth="yes"/>
      <point x="1183" y="1006"/>
      <point x="897" y="1086"/>
      <point x="621" y="1086" type="curve" smooth="yes"/>
      <point x="538" y="1086"/>
      <point x="452" y="1078"/>
      <point x="365" y="1064" type="curve"/>
      <point x="531" y="1588" type="line"/>
      <point x="1405" y="1755" type="line"/>
      <point x="1409" y="1793" type="line"/>
      <point x="503" y="1619" type="line"/>
      <point x="312" y="1017" type="line"/>
      <point x="365" y="1028"/>
      <point x="480" y="1048"/>
      <point x="609" y="1048" type="curve" smooth="yes"/>
      <point x="882" y="1048"/>
      <point x="1136" y="982"/>
      <point x="1035" y="663" type="curve" smooth="yes"/>
      <point x="885" y="190"/>
      <point x="329" y="-141"/>
    </contour>
  </outline>
</glyph>
<glyph name="six" format="1">
  <advance width="1194"/>
  <unicode hex="0036"/>
  <outline>
    <contour>
      <point x="134" y="447" type="curve" smooth="yes" name="hr00"/>
      <point x="67" y="201"/>
      <point x="126" y="-15"/>
      <point x="380" y="-15" type="curve" smooth="yes"/>
      <point x="673" y="-4"/>
      <point x="934" y="210"/>
      <point x="1030" y="511" type="curve" smooth="yes"/>
      <point x="1106" y="751"/>
      <point x="1010" y="959"/>
      <point x="740" y="959" type="curve" smooth="yes"/>
      <point x="632" y="959"/>
      <point x="521" y="908"/>
      <point x="436" y="824" type="curve"/>
      <point x="458" y="804" type="line"/>
      <point x="536" y="882"/>
      <point x="634" y="920"/>
      <point x="728" y="920" type="curve" smooth="yes"/>
      <point x="975" y="920"/>
      <point x="1067" y="747"/>
      <point x="992" y="510" type="curve" smooth="yes"/>
      <point x="908" y="246"/>
      <point x="655" y="27"/>
      <point x="392" y="23" type="curve" smooth="yes"/>
      <point x="225" y="20"/>
      <point x="86" y="134"/>
      <point x="172" y="448" type="curve" smooth="yes"/>
      <point x="306" y="934"/>
      <point x="835" y="1567"/>
      <point x="1375" y="1611" type="curve"/>
      <point x="1385" y="1649" type="line"/>
      <point x="837" y="1611"/>
      <point x="279" y="981"/>
    </contour>
  </outline>
</glyph>
<glyph name="seven" format="1">
  <advance width="1238"/>
  <unicode hex="0037"/>
  <outline>
    <contour>
      <point x="273" y="1345" type="line" name="hr00"/>
      <point x="490" y="1612" type="line"/>
      <point x="1529" y="1612" type="line"/>
      <point x="134" y="-212" type="line"/>
      <point x="94" y="-197" type="line"/>
      <point x="1449" y="1573" type="line"/>
      <point x="502" y="1573" type="line"/>
      <point x="301" y="1328" type="line"/>
    </contour>
  </outline>
</glyph>
<glyph name="eight" format="1">
  <advance width="1187"/>
  <unicode hex="0038"/>
  <outline>
    <contour>
      <point x="102" y="401" type="curve" smooth="yes" name="hr00"/>
      <point x="18" y="138"/>
      <point x="192" y="-14"/>
      <point x="427" y="-14" type="curve" smooth="yes"/>
      <point x="678" y="-14"/>
      <point x="938" y="147"/>
      <point x="1019" y="401" type="curve" smooth="yes"/>
      <point x="1099" y="652"/>
      <point x="910" y="772"/>
      <point x="713" y="871" type="curve" smooth="yes"/>
      <point x="518" y="975"/>
      <point x="414" y="1059"/>
      <point x="484" y="1278" type="curve" smooth="yes"/>
      <point x="544" y="1465"/>
      <point x="707" y="1591"/>
      <point x="902" y="1591" type="curve" smooth="yes"/>
      <point x="1097" y="1591"/>
      <point x="1255" y="1490"/>
      <point x="1187" y="1278" type="curve" smooth="yes"/>
      <point x="1138" y="1124"/>
      <point x="1040" y="977"/>
      <point x="870" y="926" type="curve"/>
      <point x="872" y="894" type="line"/>
      <point x="1038" y="939"/>
      <point x="1162" y="1080"/>
      <point x="1225" y="1278" type="curve" smooth="yes"/>
      <point x="1298" y="1508"/>
      <point x="1118" y="1629"/>
      <point x="914" y="1629" type="curve" smooth="yes"/>
      <point x="688" y="1629"/>
      <point x="512" y="1488"/>
      <point x="445" y="1278" type="curve" smooth="yes"/>
      <point x="370" y="1041"/>
      <point x="484" y="947"/>
      <point x="697" y="835" type="curve" smooth="yes"/>
      <point x="882" y="744"/>
      <point x="1053" y="631"/>
      <point x="981" y="401" type="curve" smooth="yes"/>
      <point x="911" y="177"/>
      <point x="660" y="25"/>
      <point x="440" y="25" type="curve" smooth="yes"/>
      <point x="199" y="25"/>
      <point x="67" y="169"/>
      <point x="140" y="401" type="curve" smooth="yes"/>
      <point x="193" y="566"/>
      <point x="344" y="738"/>
      <point x="513" y="806" type="curve"/>
      <point x="507" y="838" type="line"/>
      <point x="315" y="760"/>
      <point x="157" y="575"/>
    </contour>
  </outline>
</glyph>
<glyph name="nine" format="1">
  <advance width="1216"/>
  <unicode hex="0039"/>
  <outline>
    <contour>
      <point x="1201" y="1098" type="curve" smooth="yes" name="hr00"/>
      <point x="1294" y="1390"/>
      <point x="1231" y="1630"/>
      <point x="919" y="1630" type="curve" smooth="yes"/>
      <point x="686" y="1630"/>
      <point x="418" y="1394"/>
      <point x="326" y="1104" type="curve" smooth="yes"/>
      <point x="250" y="864"/>
      <point x="346" y="656"/>
      <point x="616" y="656" type="curve" smooth="yes"/>
      <point x="724" y="656"/>
      <point x="835" y="707"/>
      <point x="920" y="791" type="curve"/>
      <point x="898" y="811" type="line"/>
      <point x="820" y="733"/>
      <point x="708" y="695"/>
      <point x="628" y="695" type="curve" smooth="yes"/>
      <point x="381" y="695"/>
      <point x="288" y="869"/>
      <point x="364" y="1105" type="curve" smooth="yes"/>
      <point x="444" y="1355"/>
      <point x="701" y="1588"/>
      <point x="907" y="1591" type="curve" smooth="yes"/>
      <point x="1147" y="1595"/>
      <point x="1273" y="1448"/>
      <point x="1162" y="1099" type="curve" smooth="yes"/>
      <point x="979" y="524"/>
      <point x="521" y="48"/>
      <point x="-18" y="4" type="curve"/>
      <point x="-28" y="-34" type="line"/>
      <point x="519" y="4"/>
      <point x="1003" y="477"/>
    </contour>
  </outline>
</glyph>
<glyph name="colon" format="1">
  <advance width="477"/>
  <unicode hex="003A"/>
  <outline>
    <contour>
      <point x="-28" y="111" type="curve" smooth="yes"/>
      <point x="-48" y="48"/>
      <point x="-11" y="-2"/>
      <point x="49" y="-2" type="curve" smooth="yes"/>
      <point x="112" y="-2"/>
      <point x="179" y="51"/>
      <point x="199" y="111" type="curve" smooth="yes"/>
      <point x="219" y="174"/>
      <point x="181" y="225"/>
      <point x="121" y="225" type="curve" smooth="yes"/>
      <point x="58" y="225"/>
      <point x="-9" y="171"/>
    </contour>
    <contour>
      <point x="87" y="474" type="curve" smooth="yes"/>
      <point x="67" y="411"/>
      <point x="104" y="361"/>
      <point x="164" y="361" type="curve" smooth="yes"/>
      <point x="227" y="361"/>
      <point x="295" y="414"/>
      <point x="314" y="474" type="curve" smooth="yes"/>
      <point x="334" y="537"/>
      <point x="296" y="588"/>
      <point x="236" y="588" type="curve" smooth="yes"/>
      <point x="173" y="588"/>
      <point x="106" y="534"/>
    </contour>
    <contour>
      <point x="160" y="111" type="curve" smooth="yes"/>
      <point x="147" y="70"/>
      <point x="102" y="36"/>
      <point x="61" y="36" type="curve" smooth="yes"/>
      <point x="20" y="36"/>
      <point x="-3" y="70"/>
      <point x="10" y="111" type="curve" smooth="yes"/>
      <point x="23" y="152"/>
      <point x="68" y="187"/>
      <point x="109" y="187" type="curve" smooth="yes" name="hr01"/>
      <point x="150" y="187"/>
      <point x="173" y="154"/>
    </contour>
    <contour>
      <point x="176" y="399" type="curve" smooth="yes"/>
      <point x="135" y="399"/>
      <point x="112" y="433"/>
      <point x="125" y="474" type="curve" smooth="yes"/>
      <point x="138" y="515"/>
      <point x="183" y="549"/>
      <point x="224" y="549" type="curve" smooth="yes"/>
      <point x="265" y="549"/>
      <point x="288" y="515"/>
      <point x="275" y="474" type="curve" smooth="yes"/>
      <point x="262" y="433"/>
      <point x="217" y="399"/>
    </contour>
  </outline>
</glyph>
<glyph name="semicolon" format="1">
  <advance width="443"/>
  <unicode hex="003B"/>
  <outline>
    <contour>
      <point x="-149" y="-140" type="line" name="hr00"/>
      <point x="-133" y="-170" type="line"/>
      <point x="118" y="0" type="line"/>
      <point x="206" y="275" type="line"/>
      <point x="168" y="275" type="line"/>
      <point x="86" y="18" type="line"/>
    </contour>
    <contour>
      <point x="136" y="474" type="curve" smooth="yes"/>
      <point x="116" y="411"/>
      <point x="153" y="361"/>
      <point x="213" y="361" type="curve" smooth="yes"/>
      <point x="276" y="361"/>
      <point x="344" y="414"/>
      <point x="363" y="474" type="curve" smooth="yes"/>
      <point x="383" y="537"/>
      <point x="345" y="588"/>
      <point x="285" y="588" type="curve" smooth="yes"/>
      <point x="222" y="588"/>
      <point x="155" y="534"/>
    </contour>
    <contour>
      <point x="225" y="399" type="curve" smooth="yes"/>
      <point x="184" y="399"/>
      <point x="161" y="433"/>
      <point x="174" y="474" type="curve" smooth="yes"/>
      <point x="187" y="515"/>
      <point x="232" y="549"/>
      <point x="273" y="549" type="curve" smooth="yes"/>
      <point x="314" y="549"/>
      <point x="337" y="515"/>
      <point x="324" y="474" type="curve" smooth="yes"/>
      <point x="311" y="433"/>
      <point x="266" y="399"/>
    </contour>
  </outline>
</glyph>
<glyph name="equal" format="1">
  <advance width="1024"/>
  <unicode hex="003D"/>
  <outline>
    <contour>
      <point x="143" y="681" type="line" name="hr00"/>
      <point x="958" y="681" type="line"/>
      <point x="970" y="719" type="line"/>
      <point x="155" y="719" type="line"/>
    </contour>
    <contour>
      <point x="218" y="918" type="line"/>
      <point x="1033" y="918" type="line"/>
      <point x="1045" y="956" type="line"/>
      <point x="230" y="956" type="line"/>
    </contour>
  </outline>
</glyph>
<glyph name="greater" format="1">
  <advance width="546"/>
  <unicode hex="003E"/>
  <outline>
    <contour>
      <point x="562" y="849" type="line" name="hr00"/>
      <point x="296" y="1239" type="line"/>
      <point x="264" y="1215" type="line"/>
      <point x="508" y="857" type="line"/>
      <point x="27" y="492" type="line"/>
      <point x="49" y="460" type="line"/>
    </contour>
  </outline>
</glyph>
<glyph name="question" format="1">
  <advance width="1160"/>
  <unicode hex="003F"/>
  <outline>
    <contour>
      <point x="220" y="1200" type="curve" smooth="yes" name="hr00"/>
      <point x="393" y="1026" type="line"/>
      <point x="423" y="1049" type="line"/>
      <point x="262" y="1210" type="line"/>
      <point x="361" y="1481"/>
      <point x="642" y="1590"/>
      <point x="857" y="1590" type="curve" smooth="yes"/>
      <point x="1169" y="1590"/>
      <point x="1305" y="1473"/>
      <point x="1195" y="1080" type="curve"/>
      <point x="852" y="959"/>
      <point x="565" y="722"/>
      <point x="470" y="395" type="curve"/>
      <point x="509" y="395" type="line"/>
      <point x="585" y="693"/>
      <point x="911" y="952"/>
      <point x="1226" y="1053" type="curve"/>
      <point x="1334" y="1440"/>
      <point x="1258" y="1628"/>
      <point x="869" y="1628" type="curve" smooth="yes"/>
      <point x="584" y="1628"/>
      <point x="313" y="1490"/>
    </contour>
    <contour>
      <point x="390" y="127" type="line"/>
      <point x="296" y="-183" type="line"/>
      <point x="336" y="-182" type="line"/>
      <point x="428" y="128" type="line"/>
    </contour>
  </outline>
</glyph>
<glyph name="A" format="1">
  <advance width="1338"/>
  <unicode hex="0041"/>
  <outline>
    <contour>
      <point x="1015" y="830" type="line"/>
      <point x="1077" y="855"/>
      <point x="1126" y="873"/>
      <point x="1163" y="882" type="curve"/>
      <point x="1153" y="918" type="line"/>
      <point x="1106" y="906"/>
      <point x="1058" y="890"/>
      <point x="1011" y="870" type="curve"/>
      <point x="990" y="1069"/>
      <point x="967" y="1291"/>
      <point x="943" y="1536" type="curve"/>
      <point x="1002" y="1655"/>
      <point x="1031" y="1730"/>
      <point x="1031" y="1772" type="curve" smooth="yes"/>
      <point x="1031" y="1837"/>
      <point x="1001" y="1860"/>
      <point x="965" y="1860" type="curve" smooth="yes"/>
      <point x="925" y="1860"/>
      <point x="887" y="1818"/>
      <point x="887" y="1758" type="curve" smooth="yes"/>
      <point x="887" y="1741"/>
      <point x="893" y="1669"/>
      <point x="905" y="1542" type="curve"/>
      <point x="782" y="1303"/>
      <point x="679" y="1126"/>
      <point x="507" y="861" type="curve"/>
      <point x="459" y="888"/>
      <point x="414" y="907"/>
      <point x="371" y="918" type="curve"/>
      <point x="361" y="881" type="line"/>
      <point x="401" y="871"/>
      <point x="443" y="854"/>
      <point x="486" y="829" type="curve"/>
      <point x="333" y="597"/>
      <point x="145" y="333"/>
      <point x="-78" y="38" type="curve"/>
      <point x="-150" y="38" type="line"/>
      <point x="-150" y="0" type="line"/>
      <point x="100" y="0" type="line"/>
      <point x="100" y="38" type="line"/>
      <point x="-31" y="38" type="line"/>
      <point x="167" y="297"/>
      <point x="348" y="551"/>
      <point x="519" y="810" type="curve"/>
      <point x="580" y="769"/>
      <point x="631" y="726"/>
      <point x="674" y="675" type="curve"/>
      <point x="579" y="602"/>
      <point x="534" y="543"/>
      <point x="539" y="498" type="curve" smooth="yes"/>
      <point x="544" y="459"/>
      <point x="584" y="439"/>
      <point x="657" y="439" type="curve" smooth="yes"/>
      <point x="734" y="439"/>
      <point x="777" y="466"/>
      <point x="784" y="519" type="curve" smooth="yes"/>
      <point x="789" y="561"/>
      <point x="771" y="611"/>
      <point x="728" y="668" type="curve"/>
      <point x="805" y="728"/>
      <point x="893" y="774"/>
      <point x="979" y="814" type="curve"/>
      <point x="1061" y="38" type="line"/>
      <point x="936" y="38" type="line"/>
      <point x="936" y="0" type="line"/>
      <point x="1185" y="0" type="line"/>
      <point x="1185" y="38" type="line"/>
      <point x="1099" y="38" type="line"/>
    </contour>
    <contour>
      <point x="965" y="1822" type="curve" smooth="yes"/>
      <point x="990" y="1822"/>
      <point x="993" y="1790"/>
      <point x="993" y="1770" type="curve" smooth="yes"/>
      <point x="993" y="1741"/>
      <point x="974" y="1690"/>
      <point x="936" y="1609" type="curve"/>
      <point x="928" y="1700"/>
      <point x="924" y="1750"/>
      <point x="924" y="1758" type="curve" smooth="yes"/>
      <point x="924" y="1795"/>
      <point x="946" y="1822"/>
    </contour>
    <contour>
      <point x="747" y="523" type="curve" smooth="yes"/>
      <point x="744" y="492"/>
      <point x="713" y="477"/>
      <point x="657" y="477" type="curve" smooth="yes"/>
      <point x="606" y="477"/>
      <point x="579" y="485"/>
      <point x="577" y="502" type="curve" smooth="yes"/>
      <point x="574" y="532"/>
      <point x="614" y="580"/>
      <point x="697" y="645" type="curve"/>
      <point x="734" y="596"/>
      <point x="751" y="556"/>
    </contour>
    <contour>
      <point x="705" y="698" type="line"/>
      <point x="657" y="754"/>
      <point x="600" y="802"/>
      <point x="539" y="841" type="curve"/>
      <point x="708" y="1101"/>
      <point x="812" y="1279"/>
      <point x="911" y="1472" type="curve"/>
      <point x="975" y="853" type="line"/>
      <point x="895" y="817"/>
      <point x="820" y="776"/>
      <point x="750" y="729" type="curve"/>
    </contour>
  </outline>
</glyph>
<glyph name="B" format="1">
  <advance width="1365"/>
  <unicode hex="0042"/>
  <outline>
    <contour>
      <point x="1025" y="1612" type="curve" smooth="yes"/>
      <point x="442" y="1612" type="line"/>
      <point x="442" y="1575" type="line"/>
      <point x="552" y="1575" type="line"/>
      <point x="81" y="38" type="line"/>
      <point x="-40" y="38" type="line"/>
      <point x="-40" y="0" type="line"/>
      <point x="607" y="0" type="line" smooth="yes"/>
      <point x="942" y="0"/>
      <point x="1313" y="322"/>
      <point x="1313" y="654" type="curve" smooth="yes"/>
      <point x="1313" y="759"/>
      <point x="1284" y="860"/>
      <point x="1228" y="942" type="curve"/>
      <point x="1318" y="1041"/>
      <point x="1374" y="1151"/>
      <point x="1374" y="1281" type="curve" smooth="yes"/>
      <point x="1374" y="1487"/>
      <point x="1217" y="1612"/>
    </contour>
    <contour>
      <point x="1205" y="972" type="curve" smooth="yes"/>
      <point x="1160" y="1025"/>
      <point x="1114" y="1051"/>
      <point x="1065" y="1051" type="curve" smooth="yes"/>
      <point x="1006" y="1051"/>
      <point x="961" y="1012"/>
      <point x="929" y="935" type="curve" smooth="yes"/>
      <point x="903" y="874"/>
      <point x="887" y="783"/>
      <point x="969" y="783" type="curve" smooth="yes"/>
      <point x="1052" y="783"/>
      <point x="1146" y="863"/>
      <point x="1201" y="915" type="curve"/>
      <point x="1253" y="830"/>
      <point x="1276" y="743"/>
      <point x="1274" y="654" type="curve" smooth="yes"/>
      <point x="1267" y="330"/>
      <point x="918" y="38"/>
      <point x="607" y="38" type="curve" smooth="yes"/>
      <point x="121" y="38" type="line"/>
      <point x="591" y="1574" type="line"/>
      <point x="1025" y="1574" type="line" smooth="yes"/>
      <point x="1221" y="1574"/>
      <point x="1331" y="1449"/>
      <point x="1336" y="1290" type="curve" smooth="yes"/>
      <point x="1339" y="1166"/>
      <point x="1285" y="1060"/>
    </contour>
    <contour>
      <point x="1178" y="946" type="curve"/>
      <point x="1125" y="897"/>
      <point x="1038" y="821"/>
      <point x="969" y="821" type="curve" smooth="yes"/>
      <point x="922" y="821"/>
      <point x="956" y="901"/>
      <point x="964" y="920" type="curve" smooth="yes"/>
      <point x="990" y="983"/>
      <point x="1024" y="1014"/>
      <point x="1065" y="1014" type="curve" smooth="yes"/>
      <point x="1102" y="1014"/>
      <point x="1140" y="991"/>
    </contour>
  </outline>
</glyph>
<glyph name="C" format="1">
  <advance width="1214"/>
  <unicode hex="0043"/>
  <outline>
    <contour>
      <point x="1074" y="1268" type="line"/>
      <point x="1312" y="1450" type="line"/>
      <point x="1231" y="1573"/>
      <point x="1113" y="1630"/>
      <point x="990" y="1630" type="curve" smooth="yes"/>
      <point x="496" y="1630"/>
      <point x="100" y="952"/>
      <point x="100" y="499" type="curve" smooth="yes"/>
      <point x="100" y="227"/>
      <point x="239" y="-15"/>
      <point x="508" y="-15" type="curve" smooth="yes"/>
      <point x="741" y="-15"/>
      <point x="966" y="151"/>
      <point x="1088" y="326" type="curve" smooth="yes"/>
      <point x="1146" y="409"/>
      <point x="1168" y="473"/>
      <point x="1154" y="517" type="curve"/>
      <point x="1143" y="547"/>
      <point x="1120" y="566"/>
      <point x="1083" y="573" type="curve"/>
      <point x="1076" y="535" type="line"/>
      <point x="1098" y="530"/>
      <point x="1112" y="521"/>
      <point x="1118" y="506" type="curve" smooth="yes"/>
      <point x="1127" y="480"/>
      <point x="1115" y="441"/>
      <point x="1083" y="389" type="curve" smooth="yes"/>
      <point x="963" y="193"/>
      <point x="736" y="23"/>
      <point x="508" y="23" type="curve" smooth="yes"/>
      <point x="249" y="23"/>
      <point x="138" y="269"/>
      <point x="138" y="495" type="curve" smooth="yes"/>
      <point x="138" y="920"/>
      <point x="505" y="1592"/>
      <point x="990" y="1592" type="curve" smooth="yes"/>
      <point x="1103" y="1592"/>
      <point x="1193" y="1547"/>
      <point x="1260" y="1458" type="curve"/>
      <point x="1051" y="1298" type="line"/>
    </contour>
  </outline>
</glyph>
<glyph name="D" format="1">
  <advance width="1287"/>
  <unicode hex="0044"/>
  <outline>
    <contour>
      <point x="972" y="1612" type="curve" smooth="yes"/>
      <point x="443" y="1612" type="line"/>
      <point x="443" y="1575" type="line"/>
      <point x="552" y="1575" type="line"/>
      <point x="82" y="38" type="line"/>
      <point x="-40" y="38" type="line"/>
      <point x="-39" y="0" type="line"/>
      <point x="567" y="3" type="line" smooth="yes"/>
      <point x="1123" y="3"/>
      <point x="1347" y="792"/>
      <point x="1347" y="1178" type="curve" smooth="yes"/>
      <point x="1347" y="1421"/>
      <point x="1253" y="1612"/>
    </contour>
    <contour>
      <point x="567" y="41" type="curve" smooth="yes"/>
      <point x="121" y="39" type="line"/>
      <point x="592" y="1574" type="line"/>
      <point x="969" y="1574" type="line" smooth="yes"/>
      <point x="1206" y="1574"/>
      <point x="1308" y="1420"/>
      <point x="1308" y="1178" type="curve" smooth="yes"/>
      <point x="1308" y="807"/>
      <point x="1088" y="41"/>
    </contour>
  </outline>
</glyph>
<glyph name="E" format="1">
  <advance width="1223"/>
  <unicode hex="0045"/>
  <outline>
    <contour>
      <point x="1003" y="510" type="curve"/>
      <point x="1003" y="473" type="line"/>
      <point x="1063" y="471"/>
      <point x="1121" y="451"/>
      <point x="1121" y="386" type="curve" smooth="yes"/>
      <point x="1121" y="160"/>
      <point x="890" y="23"/>
      <point x="630" y="23" type="curve" smooth="yes"/>
      <point x="401" y="23"/>
      <point x="139" y="121"/>
      <point x="139" y="383" type="curve" smooth="yes"/>
      <point x="139" y="593"/>
      <point x="246" y="820"/>
      <point x="439" y="914" type="curve"/>
      <point x="510" y="846"/>
      <point x="599" y="801"/>
      <point x="682" y="801" type="curve" smooth="yes"/>
      <point x="755" y="801"/>
      <point x="825" y="849"/>
      <point x="825" y="917" type="curve" smooth="yes"/>
      <point x="825" y="994"/>
      <point x="703" y="1007"/>
      <point x="655" y="1007" type="curve" smooth="yes"/>
      <point x="589" y="1007"/>
      <point x="520" y="992"/>
      <point x="448" y="960" type="curve"/>
      <point x="392" y="1024"/>
      <point x="362" y="1099"/>
      <point x="362" y="1178" type="curve"/>
      <point x="362" y="1186" type="line"/>
      <point x="362" y="1416"/>
      <point x="561" y="1592"/>
      <point x="772" y="1592" type="curve" smooth="yes"/>
      <point x="918" y="1592"/>
      <point x="1097" y="1497"/>
      <point x="1097" y="1347" type="curve" smooth="yes"/>
      <point x="1097" y="1293"/>
      <point x="1073" y="1240"/>
      <point x="1020" y="1187" type="curve"/>
      <point x="1047" y="1161" type="line"/>
      <point x="1106" y="1218"/>
      <point x="1135" y="1283"/>
      <point x="1135" y="1347" type="curve" smooth="yes"/>
      <point x="1135" y="1533"/>
      <point x="922" y="1630"/>
      <point x="772" y="1630" type="curve" smooth="yes"/>
      <point x="528" y="1630"/>
      <point x="324" y="1418"/>
      <point x="324" y="1184" type="curve" smooth="yes"/>
      <point x="324" y="1097"/>
      <point x="354" y="1013"/>
      <point x="413" y="942" type="curve"/>
      <point x="211" y="835"/>
      <point x="100" y="608"/>
      <point x="100" y="385" type="curve" smooth="yes"/>
      <point x="100" y="87"/>
      <point x="395" y="-15"/>
      <point x="630" y="-15" type="curve" smooth="yes"/>
      <point x="871" y="-15"/>
      <point x="1159" y="118"/>
      <point x="1159" y="385" type="curve" smooth="yes"/>
      <point x="1159" y="474"/>
      <point x="1080" y="510"/>
    </contour>
    <contour>
      <point x="787" y="916" type="curve" smooth="yes"/>
      <point x="787" y="865"/>
      <point x="729" y="839"/>
      <point x="681" y="839" type="curve" smooth="yes"/>
      <point x="605" y="839"/>
      <point x="530" y="883"/>
      <point x="477" y="930" type="curve"/>
      <point x="540" y="958"/>
      <point x="603" y="970"/>
      <point x="659" y="970" type="curve" smooth="yes"/>
      <point x="687" y="970"/>
      <point x="787" y="960"/>
    </contour>
  </outline>
</glyph>
<glyph name="F" format="1">
  <advance width="1245"/>
  <unicode hex="0046"/>
  <outline>
    <contour>
      <point x="464" y="1612" type="line"/>
      <point x="464" y="1575" type="line"/>
      <point x="573" y="1575" type="line"/>
      <point x="103" y="38" type="line"/>
      <point x="-40" y="38" type="line"/>
      <point x="-40" y="0" type="line"/>
      <point x="287" y="0" type="line"/>
      <point x="287" y="38" type="line"/>
      <point x="143" y="38" type="line"/>
      <point x="400" y="881" type="line"/>
      <point x="961" y="881" type="line"/>
      <point x="932" y="789" type="line"/>
      <point x="969" y="777" type="line"/>
      <point x="1045" y="1027" type="line"/>
      <point x="1009" y="1038" type="line"/>
      <point x="972" y="919" type="line"/>
      <point x="412" y="919" type="line"/>
      <point x="613" y="1574" type="line"/>
      <point x="1325" y="1574" type="line"/>
      <point x="1473" y="1427" type="line"/>
      <point x="1500" y="1454" type="line"/>
      <point x="1341" y="1612" type="line"/>
    </contour>
  </outline>
</glyph>
<glyph name="G" format="1">
  <advance width="1322"/>
  <unicode hex="0047"/>
  <outline>
    <contour>
      <point x="1154" y="1193" type="line"/>
      <point x="1356" y="1430" type="line"/>
      <point x="1289" y="1593"/>
      <point x="1180" y="1630"/>
      <point x="1029" y="1630" type="curve" smooth="yes"/>
      <point x="473" y="1630"/>
      <point x="100" y="846"/>
      <point x="100" y="379" type="curve" smooth="yes"/>
      <point x="100" y="99"/>
      <point x="289" y="-15"/>
      <point x="547" y="-15" type="curve" smooth="yes"/>
      <point x="801" y="-15"/>
      <point x="1012" y="167"/>
      <point x="1171" y="493" type="curve"/>
      <point x="1065" y="103"/>
      <point x="820" y="-448"/>
      <point x="546" y="-448" type="curve" smooth="yes"/>
      <point x="418" y="-448"/>
      <point x="303" y="-369"/>
      <point x="303" y="-244" type="curve" smooth="yes"/>
      <point x="303" y="-226"/>
      <point x="306" y="-208"/>
      <point x="311" y="-189" type="curve"/>
      <point x="481" y="-100" type="line"/>
      <point x="463" y="-67" type="line"/>
      <point x="279" y="-163" type="line"/>
      <point x="268" y="-196"/>
      <point x="265" y="-220"/>
      <point x="265" y="-243" type="curve" smooth="yes"/>
      <point x="265" y="-394"/>
      <point x="389" y="-486"/>
      <point x="546" y="-486" type="curve" smooth="yes"/>
      <point x="869" y="-486"/>
      <point x="1129" y="131"/>
      <point x="1276" y="734" type="curve"/>
      <point x="981" y="734" type="line"/>
      <point x="981" y="696" type="line"/>
      <point x="1220" y="696" type="line"/>
      <point x="1098" y="396"/>
      <point x="907" y="23"/>
      <point x="547" y="23" type="curve" smooth="yes"/>
      <point x="269" y="39"/>
      <point x="138" y="155"/>
      <point x="138" y="379" type="curve" smooth="yes"/>
      <point x="138" y="878"/>
      <point x="528" y="1592"/>
      <point x="1029" y="1592" type="curve" smooth="yes"/>
      <point x="1161" y="1592"/>
      <point x="1257" y="1562"/>
      <point x="1314" y="1439" type="curve"/>
      <point x="1125" y="1217" type="line"/>
    </contour>
  </outline>
</glyph>
<glyph name="H" format="1">
  <advance width="1565"/>
  <unicode hex="0048"/>
  <outline>
    <contour>
      <point x="1423" y="926" type="curve"/>
      <point x="1623" y="1575" type="line"/>
      <point x="1765" y="1575" type="line"/>
      <point x="1765" y="1612" type="line"/>
      <point x="1439" y="1612" type="line"/>
      <point x="1439" y="1575" type="line"/>
      <point x="1583" y="1575" type="line"/>
      <point x="1383" y="923" type="line"/>
      <point x="1167" y="895"/>
      <point x="983" y="802"/>
      <point x="807" y="690" type="curve"/>
      <point x="706" y="811"/>
      <point x="567" y="904"/>
      <point x="414" y="926" type="curve"/>
      <point x="613" y="1575" type="line"/>
      <point x="769" y="1575" type="line"/>
      <point x="769" y="1612" type="line"/>
      <point x="442" y="1612" type="line"/>
      <point x="442" y="1575" type="line"/>
      <point x="573" y="1575" type="line"/>
      <point x="375" y="930" type="line"/>
      <point x="301" y="933"/>
      <point x="255" y="933"/>
      <point x="237" y="928" type="curve"/>
      <point x="244" y="890" type="line"/>
      <point x="259" y="891"/>
      <point x="309" y="892"/>
      <point x="363" y="892" type="curve"/>
      <point x="103" y="38" type="line"/>
      <point x="-40" y="38" type="line"/>
      <point x="-40" y="0" type="line"/>
      <point x="287" y="0" type="line"/>
      <point x="287" y="38" type="line"/>
      <point x="142" y="38" type="line"/>
      <point x="403" y="890" type="line"/>
      <point x="554" y="869"/>
      <point x="688" y="780"/>
      <point x="776" y="668" type="curve"/>
      <point x="683" y="600"/>
      <point x="636" y="544"/>
      <point x="636" y="502" type="curve" smooth="yes"/>
      <point x="636" y="444"/>
      <point x="719" y="439"/>
      <point x="754" y="439" type="curve" smooth="yes"/>
      <point x="819" y="439"/>
      <point x="882" y="465"/>
      <point x="882" y="532" type="curve" smooth="yes"/>
      <point x="882" y="567"/>
      <point x="865" y="610"/>
      <point x="830" y="660" type="curve"/>
      <point x="1013" y="774"/>
      <point x="1183" y="861"/>
      <point x="1370" y="883" type="curve"/>
      <point x="1112" y="38" type="line"/>
      <point x="956" y="38" type="line"/>
      <point x="956" y="0" type="line"/>
      <point x="1283" y="0" type="line"/>
      <point x="1283" y="38" type="line"/>
      <point x="1151" y="38" type="line"/>
      <point x="1411" y="888" type="line"/>
      <point x="1487" y="893"/>
      <point x="1536" y="886"/>
      <point x="1547" y="886" type="curve"/>
      <point x="1555" y="922" type="line"/>
      <point x="1534" y="929"/>
      <point x="1490" y="930"/>
    </contour>
    <contour>
      <point x="754" y="477" type="curve" smooth="yes"/>
      <point x="704" y="477"/>
      <point x="674" y="482"/>
      <point x="674" y="504" type="curve" smooth="yes"/>
      <point x="674" y="527"/>
      <point x="717" y="579"/>
      <point x="799" y="638" type="curve"/>
      <point x="829" y="594"/>
      <point x="843" y="559"/>
      <point x="843" y="531" type="curve" smooth="yes"/>
      <point x="843" y="481"/>
      <point x="783" y="477"/>
    </contour>
  </outline>
</glyph>
<glyph name="I" format="1">
  <advance width="574"/>
  <unicode hex="0049"/>
  <outline>
    <contour>
      <point x="620" y="1574" type="line"/>
      <point x="149" y="38" type="line"/>
      <point x="287" y="38" type="line"/>
      <point x="287" y="0" type="line"/>
      <point x="-40" y="0" type="line"/>
      <point x="-40" y="38" type="line"/>
      <point x="109" y="38" type="line"/>
      <point x="580" y="1574" type="line"/>
      <point x="443" y="1574" type="line"/>
      <point x="443" y="1612" type="line"/>
      <point x="769" y="1612" type="line"/>
      <point x="769" y="1574" type="line"/>
    </contour>
  </outline>
</glyph>
<glyph name="J" format="1">
  <advance width="1010"/>
  <unicode hex="004A"/>
  <outline>
    <contour>
      <point x="1074" y="883" type="line"/>
      <point x="1074" y="920" type="line"/>
      <point x="887" y="920" type="line"/>
      <point x="1088" y="1574" type="line"/>
      <point x="1215" y="1574" type="line"/>
      <point x="1215" y="1612" type="line"/>
      <point x="890" y="1612" type="line" smooth="yes"/>
      <point x="750" y="1612"/>
      <point x="662" y="1718"/>
      <point x="532" y="1718" type="curve" smooth="yes"/>
      <point x="442" y="1718"/>
      <point x="354" y="1672"/>
      <point x="330" y="1594" type="curve"/>
      <point x="366" y="1583" type="line"/>
      <point x="384" y="1657"/>
      <point x="486" y="1680"/>
      <point x="532" y="1680" type="curve" smooth="yes"/>
      <point x="658" y="1680"/>
      <point x="742" y="1574"/>
      <point x="888" y="1574" type="curve" smooth="yes"/>
      <point x="1048" y="1574" type="line"/>
      <point x="848" y="920" type="line"/>
      <point x="547" y="920" type="line"/>
      <point x="547" y="883" type="line"/>
      <point x="836" y="883" type="line"/>
      <point x="704" y="450" type="line" smooth="yes"/>
      <point x="594" y="88"/>
      <point x="364" y="-444"/>
      <point x="113" y="-444" type="curve" smooth="yes"/>
      <point x="-47" y="-444"/>
      <point x="-138" y="-365"/>
      <point x="-138" y="-214" type="curve" smooth="yes"/>
      <point x="-138" y="-173"/>
      <point x="-131" y="-143"/>
      <point x="-122" y="-114" type="curve"/>
      <point x="48" y="-26" type="line"/>
      <point x="30" y="8" type="line"/>
      <point x="-154" y="-88" type="line"/>
      <point x="-170" y="-138"/>
      <point x="-177" y="-179"/>
      <point x="-177" y="-219" type="curve" smooth="yes"/>
      <point x="-177" y="-395"/>
      <point x="-50" y="-482"/>
      <point x="113" y="-482" type="curve" smooth="yes"/>
      <point x="378" y="-482"/>
      <point x="612" y="23"/>
      <point x="740" y="440" type="curve" smooth="yes"/>
      <point x="876" y="883" type="line"/>
    </contour>
  </outline>
</glyph>
<glyph name="K" format="1">
  <advance width="1484"/>
  <unicode hex="004B"/>
  <outline>
    <contour>
      <point x="1452" y="1578" type="line"/>
      <point x="1602" y="1578" type="line"/>
      <point x="1602" y="1616" type="line"/>
      <point x="1275" y="1616" type="line"/>
      <point x="1275" y="1578" type="line"/>
      <point x="1392" y="1578" type="line"/>
      <point x="382" y="799" type="line"/>
      <point x="620" y="1578" type="line"/>
      <point x="769" y="1578" type="line"/>
      <point x="769" y="1616" type="line"/>
      <point x="443" y="1616" type="line"/>
      <point x="443" y="1578" type="line"/>
      <point x="581" y="1578" type="line"/>
      <point x="109" y="38" type="line"/>
      <point x="-40" y="38" type="line"/>
      <point x="-40" y="0" type="line"/>
      <point x="287" y="0" type="line"/>
      <point x="287" y="38" type="line"/>
      <point x="149" y="38" type="line"/>
      <point x="363" y="736" type="line"/>
      <point x="561" y="889" type="line"/>
      <point x="773" y="759"/>
      <point x="874" y="596"/>
      <point x="921" y="411" type="curve" smooth="yes"/>
      <point x="1004" y="85"/>
      <point x="1181" y="4"/>
      <point x="1399" y="2" type="curve"/>
      <point x="1399" y="40" type="line"/>
      <point x="1180" y="43"/>
      <point x="1037" y="115"/>
      <point x="958" y="421" type="curve" smooth="yes"/>
      <point x="918" y="576"/>
      <point x="828" y="782"/>
      <point x="593" y="914" type="curve"/>
    </contour>
  </outline>
</glyph>
<glyph name="L" format="1">
  <advance width="1301"/>
  <unicode hex="004C"/>
  <outline>
    <contour>
      <point x="988" y="37" type="line"/>
      <point x="1191" y="232" type="line"/>
      <point x="1217" y="204" type="line"/>
      <point x="895" y="-104" type="line"/>
      <point x="869" y="-76" type="line"/>
      <point x="949" y="0" type="line"/>
      <point x="-40" y="0" type="line"/>
      <point x="-40" y="38" type="line"/>
      <point x="110" y="38" type="line"/>
      <point x="579" y="1574" type="line"/>
      <point x="441" y="1574" type="line"/>
      <point x="441" y="1612" type="line"/>
      <point x="768" y="1612" type="line"/>
      <point x="768" y="1574" type="line"/>
      <point x="619" y="1574" type="line"/>
      <point x="149" y="38" type="line"/>
    </contour>
  </outline>
</glyph>
<glyph name="M" format="1">
  <advance width="1745"/>
  <unicode hex="004D"/>
  <outline>
    <contour>
      <point x="1735" y="1652" type="line" smooth="yes"/>
      <point x="1487" y="1403"/>
      <point x="1192" y="1080"/>
      <point x="1007" y="841" type="curve"/>
      <point x="944" y="1107"/>
      <point x="846" y="1361"/>
      <point x="735" y="1604" type="curve" smooth="yes"/>
      <point x="706" y="1667"/>
      <point x="667" y="1708"/>
      <point x="599" y="1721" type="curve" smooth="yes"/>
      <point x="558" y="1729"/>
      <point x="519" y="1726"/>
      <point x="508" y="1722" type="curve"/>
      <point x="512" y="1685" type="line"/>
      <point x="525" y="1686"/>
      <point x="555" y="1692"/>
      <point x="591" y="1684" type="curve" smooth="yes"/>
      <point x="645" y="1673"/>
      <point x="680" y="1643"/>
      <point x="697" y="1594" type="curve"/>
      <point x="412" y="814" type="line" smooth="yes"/>
      <point x="186" y="196"/>
      <point x="135" y="69"/>
      <point x="-48" y="21" type="curve"/>
      <point x="-48" y="-15" type="line"/>
      <point x="150" y="27"/>
      <point x="206" y="144"/>
      <point x="447" y="800" type="curve" smooth="yes"/>
      <point x="720" y="1544" type="line"/>
      <point x="827" y="1297"/>
      <point x="925" y="1053"/>
      <point x="977" y="800" type="curve"/>
      <point x="871" y="646"/>
      <point x="828" y="559"/>
      <point x="828" y="508" type="curve" smooth="yes"/>
      <point x="828" y="462"/>
      <point x="869" y="442"/>
      <point x="907" y="442" type="curve" smooth="yes"/>
      <point x="1010" y="442"/>
      <point x="1035" y="532"/>
      <point x="1035" y="626" type="curve" smooth="yes"/>
      <point x="1035" y="688"/>
      <point x="1024" y="751"/>
      <point x="1017" y="791" type="curve"/>
      <point x="1220" y="1061"/>
      <point x="1448" y="1304"/>
      <point x="1679" y="1541" type="curve"/>
      <point x="1437" y="38" type="line"/>
      <point x="1327" y="38" type="line"/>
      <point x="1327" y="0" type="line"/>
      <point x="1577" y="0" type="line"/>
      <point x="1577" y="38" type="line"/>
      <point x="1475" y="38" type="line"/>
    </contour>
    <contour>
      <point x="907" y="480" type="curve" smooth="yes"/>
      <point x="880" y="480"/>
      <point x="866" y="490"/>
      <point x="866" y="514" type="curve" smooth="yes"/>
      <point x="866" y="556"/>
      <point x="906" y="634"/>
      <point x="987" y="749" type="curve"/>
      <point x="992" y="719"/>
      <point x="999" y="672"/>
      <point x="999" y="626" type="curve" smooth="yes"/>
      <point x="999" y="552"/>
      <point x="981" y="480"/>
    </contour>
  </outline>
</glyph>
<glyph name="N" format="1">
  <advance width="1680"/>
  <unicode hex="004E"/>
  <outline>
    <contour>
      <point x="412" y="814" type="line" smooth="yes"/>
      <point x="186" y="196"/>
      <point x="135" y="69"/>
      <point x="-48" y="21" type="curve"/>
      <point x="-48" y="-15" type="line"/>
      <point x="150" y="27"/>
      <point x="205" y="144"/>
      <point x="447" y="800" type="curve" smooth="yes"/>
      <point x="721" y="1544" type="line"/>
      <point x="1235" y="-44" type="line"/>
      <point x="1730" y="1575" type="line"/>
      <point x="1880" y="1575" type="line"/>
      <point x="1880" y="1612" type="line"/>
      <point x="1553" y="1612" type="line"/>
      <point x="1553" y="1575" type="line"/>
      <point x="1690" y="1575" type="line"/>
      <point x="1234" y="82" type="line"/>
      <point x="742" y="1603" type="line" smooth="yes"/>
      <point x="709" y="1706"/>
      <point x="609" y="1739"/>
      <point x="517" y="1722" type="curve"/>
      <point x="521" y="1685" type="line"/>
      <point x="595" y="1694"/>
      <point x="671" y="1675"/>
      <point x="701" y="1602" type="curve"/>
    </contour>
  </outline>
</glyph>
<glyph name="P" format="1">
  <advance width="1347"/>
  <unicode hex="0050"/>
  <outline>
    <contour>
      <point x="465" y="1612" type="line"/>
      <point x="465" y="1575" type="line"/>
      <point x="575" y="1575" type="line"/>
      <point x="104" y="38" type="line"/>
      <point x="-40" y="38" type="line"/>
      <point x="-40" y="0" type="line"/>
      <point x="287" y="0" type="line"/>
      <point x="287" y="38" type="line"/>
      <point x="144" y="38" type="line"/>
      <point x="615" y="1574" type="line"/>
      <point x="1048" y="1574" type="line"/>
      <point x="1049" y="1574" type="line" smooth="yes"/>
      <point x="1235" y="1574"/>
      <point x="1413" y="1509"/>
      <point x="1413" y="1306" type="curve" smooth="yes"/>
      <point x="1413" y="904"/>
      <point x="1054" y="703"/>
      <point x="533" y="736" type="curve"/>
      <point x="533" y="698" type="line"/>
      <point x="986" y="670"/>
      <point x="1451" y="816"/>
      <point x="1451" y="1305" type="curve" smooth="yes"/>
      <point x="1451" y="1522"/>
      <point x="1263" y="1612"/>
      <point x="1047" y="1612" type="curve" smooth="yes"/>
    </contour>
  </outline>
</glyph>
<glyph name="Q" format="1">
  <advance width="1374"/>
  <unicode hex="0051"/>
  <outline>
    <contour>
      <point x="1015" y="1616" type="curve" smooth="yes"/>
      <point x="502" y="1616"/>
      <point x="108" y="910"/>
      <point x="108" y="447" type="curve" smooth="yes"/>
      <point x="108" y="252"/>
      <point x="198" y="40"/>
      <point x="402" y="2" type="curve"/>
      <point x="405" y="40" type="line"/>
      <point x="220" y="72"/>
      <point x="146" y="284"/>
      <point x="146" y="443" type="curve" smooth="yes"/>
      <point x="146" y="913"/>
      <point x="535" y="1578"/>
      <point x="1015" y="1578" type="curve" smooth="yes"/>
      <point x="1280" y="1578"/>
      <point x="1385" y="1336"/>
      <point x="1385" y="1113" type="curve" smooth="yes"/>
      <point x="1385" y="661"/>
      <point x="1069" y="274"/>
      <point x="716" y="56" type="curve" smooth="yes"/>
      <point x="518" y="-66"/>
      <point x="321" y="-176"/>
      <point x="116" y="-264" type="curve"/>
      <point x="72" y="-223"/>
      <point x="20" y="-161"/>
      <point x="-43" y="-161" type="curve" smooth="yes"/>
      <point x="-105" y="-161"/>
      <point x="-150" y="-253"/>
      <point x="-150" y="-302" type="curve" smooth="yes"/>
      <point x="-150" y="-343"/>
      <point x="-113" y="-357"/>
      <point x="-79" y="-357" type="curve" smooth="yes"/>
      <point x="-40" y="-357"/>
      <point x="40" y="-338"/>
      <point x="107" y="-308" type="curve"/>
      <point x="204" y="-399"/>
      <point x="307" y="-484"/>
      <point x="436" y="-484" type="curve" smooth="yes"/>
      <point x="715" y="-484"/>
      <point x="988" y="-391"/>
      <point x="1177" y="-202" type="curve"/>
      <point x="1149" y="-178" type="line"/>
      <point x="958" y="-364"/>
      <point x="693" y="-447"/>
      <point x="436" y="-447" type="curve" smooth="yes"/>
      <point x="332" y="-447"/>
      <point x="246" y="-388"/>
      <point x="146" y="-292" type="curve"/>
      <point x="355" y="-199"/>
      <point x="551" y="-91"/>
      <point x="740" y="26" type="curve" smooth="yes"/>
      <point x="1114" y="257"/>
      <point x="1424" y="667"/>
      <point x="1424" y="1116" type="curve" smooth="yes"/>
      <point x="1424" y="1380"/>
      <point x="1281" y="1616"/>
    </contour>
    <contour>
      <point x="-78" y="-321" type="curve" smooth="yes"/>
      <point x="-95" y="-321"/>
      <point x="-113" y="-317"/>
      <point x="-113" y="-300" type="curve" smooth="yes"/>
      <point x="-113" y="-269"/>
      <point x="-77" y="-199"/>
      <point x="-41" y="-199" type="curve" smooth="yes"/>
      <point x="-19" y="-199"/>
      <point x="20" y="-226"/>
      <point x="77" y="-279" type="curve"/>
      <point x="39" y="-299"/>
      <point x="-42" y="-321"/>
    </contour>
  </outline>
</glyph>
<glyph name="R" format="1">
  <advance width="1426"/>
  <unicode hex="0052"/>
  <outline>
    <contour>
      <point x="1057" y="1612" type="curve" smooth="yes"/>
      <point x="474" y="1612" type="line"/>
      <point x="474" y="1575" type="line"/>
      <point x="584" y="1575" type="line"/>
      <point x="113" y="38" type="line"/>
      <point x="-40" y="38" type="line"/>
      <point x="-40" y="0" type="line"/>
      <point x="287" y="0" type="line"/>
      <point x="287" y="38" type="line"/>
      <point x="153" y="38" type="line"/>
      <point x="623" y="1574" type="line"/>
      <point x="1057" y="1574" type="line" smooth="yes"/>
      <point x="1226" y="1574"/>
      <point x="1418" y="1478"/>
      <point x="1418" y="1292" type="curve" smooth="yes"/>
      <point x="1418" y="965"/>
      <point x="1114" y="736"/>
      <point x="811" y="736" type="curve" smooth="yes"/>
      <point x="578" y="736" type="line"/>
      <point x="569" y="701" type="line"/>
      <point x="696" y="585"/>
      <point x="742" y="520"/>
      <point x="859" y="330" type="curve" smooth="yes"/>
      <point x="977" y="138"/>
      <point x="1067" y="-1"/>
      <point x="1299" y="-1" type="curve"/>
      <point x="1299" y="37" type="line"/>
      <point x="1074" y="40"/>
      <point x="996" y="178"/>
      <point x="891" y="350" type="curve" smooth="yes"/>
      <point x="792" y="512"/>
      <point x="706" y="628"/>
      <point x="631" y="698" type="curve"/>
      <point x="811" y="698" type="line" smooth="yes"/>
      <point x="1141" y="698"/>
      <point x="1456" y="955"/>
      <point x="1456" y="1292" type="curve" smooth="yes"/>
      <point x="1456" y="1511"/>
      <point x="1238" y="1612"/>
    </contour>
  </outline>
</glyph>
<glyph name="S" format="1">
  <advance width="1238"/>
  <unicode hex="0053"/>
  <outline>
    <contour>
      <point x="1115" y="1333" type="line"/>
      <point x="1258" y="1582" type="line"/>
      <point x="1225" y="1601" type="line"/>
      <point x="1182" y="1525" type="line"/>
      <point x="1113" y="1594"/>
      <point x="1016" y="1629"/>
      <point x="893" y="1629" type="curve" smooth="yes"/>
      <point x="619" y="1629"/>
      <point x="311" y="1451"/>
      <point x="311" y="1153" type="curve" smooth="yes"/>
      <point x="311" y="996"/>
      <point x="475" y="926"/>
      <point x="685" y="868" type="curve" smooth="yes"/>
      <point x="867" y="818"/>
      <point x="1098" y="756"/>
      <point x="1098" y="529" type="curve" smooth="yes"/>
      <point x="1098" y="150"/>
      <point x="735" y="22"/>
      <point x="409" y="22" type="curve" smooth="yes"/>
      <point x="263" y="22"/>
      <point x="150" y="61"/>
      <point x="69" y="140" type="curve"/>
      <point x="155" y="297" type="line"/>
      <point x="121" y="315" type="line"/>
      <point x="-50" y="-1" type="line"/>
      <point x="-17" y="-18" type="line"/>
      <point x="51" y="106" type="line"/>
      <point x="139" y="25"/>
      <point x="258" y="-15"/>
      <point x="409" y="-15" type="curve" smooth="yes"/>
      <point x="792" y="-15"/>
      <point x="1137" y="144"/>
      <point x="1137" y="531" type="curve" smooth="yes"/>
      <point x="1137" y="784"/>
      <point x="875" y="853"/>
      <point x="695" y="905" type="curve" smooth="yes"/>
      <point x="479" y="967"/>
      <point x="349" y="1024"/>
      <point x="349" y="1154" type="curve" smooth="yes"/>
      <point x="349" y="1431"/>
      <point x="652" y="1591"/>
      <point x="888" y="1591" type="curve" smooth="yes"/>
      <point x="1010" y="1591"/>
      <point x="1102" y="1556"/>
      <point x="1163" y="1492" type="curve"/>
      <point x="1083" y="1351" type="line"/>
    </contour>
  </outline>
</glyph>
<glyph name="T" format="1">
  <advance width="1370"/>
  <unicode hex="0054"/>
  <outline>
    <contour>
      <point x="1472" y="1706" type="curve"/>
      <point x="1472" y="1668" type="line"/>
      <point x="1548" y="1668"/>
      <point x="1592" y="1648"/>
      <point x="1592" y="1613" type="curve" smooth="yes"/>
      <point x="1592" y="1553"/>
      <point x="1539" y="1510"/>
      <point x="1463" y="1510" type="curve" smooth="yes"/>
      <point x="1285" y="1510"/>
      <point x="1129" y="1579"/>
      <point x="964" y="1615" type="curve" smooth="yes"/>
      <point x="852" y="1641"/>
      <point x="751" y="1654"/>
      <point x="662" y="1654" type="curve" smooth="yes"/>
      <point x="522" y="1654"/>
      <point x="260" y="1606"/>
      <point x="260" y="1422" type="curve" smooth="yes"/>
      <point x="260" y="1370"/>
      <point x="305" y="1350"/>
      <point x="348" y="1350" type="curve" smooth="yes"/>
      <point x="395" y="1350"/>
      <point x="462" y="1368"/>
      <point x="482" y="1411" type="curve"/>
      <point x="448" y="1428" type="line"/>
      <point x="428" y="1398"/>
      <point x="381" y="1388"/>
      <point x="348" y="1388" type="curve" smooth="yes"/>
      <point x="322" y="1388"/>
      <point x="298" y="1396"/>
      <point x="298" y="1423" type="curve" smooth="yes"/>
      <point x="298" y="1581"/>
      <point x="553" y="1616"/>
      <point x="660" y="1616" type="curve" smooth="yes"/>
      <point x="741" y="1616"/>
      <point x="833" y="1605"/>
      <point x="935" y="1582" type="curve"/>
      <point x="463" y="38" type="line"/>
      <point x="314" y="38" type="line"/>
      <point x="314" y="0" type="line"/>
      <point x="640" y="0" type="line"/>
      <point x="640" y="38" type="line"/>
      <point x="502" y="38" type="line"/>
      <point x="972" y="1574" type="line"/>
      <point x="1152" y="1525"/>
      <point x="1302" y="1472"/>
      <point x="1463" y="1472" type="curve" smooth="yes"/>
      <point x="1564" y="1472"/>
      <point x="1630" y="1534"/>
      <point x="1630" y="1613" type="curve" smooth="yes"/>
      <point x="1630" y="1693"/>
      <point x="1528" y="1706"/>
    </contour>
  </outline>
</glyph>
<glyph name="U" format="1">
  <advance width="1469"/>
  <unicode hex="0055"/>
  <outline>
    <contour>
      <point x="1362" y="1575" type="line"/>
      <point x="1362" y="1612" type="line"/>
      <point x="1689" y="1612" type="line"/>
      <point x="1689" y="1575" type="line"/>
      <point x="1536" y="1575" type="line"/>
      <point x="1193" y="456" type="line" smooth="yes"/>
      <point x="1085" y="102"/>
      <point x="792" y="0"/>
      <point x="574" y="0" type="curve" smooth="yes"/>
      <point x="270" y="0"/>
      <point x="130" y="175"/>
      <point x="216" y="454" type="curve" smooth="yes"/>
      <point x="560" y="1575" type="line"/>
      <point x="418" y="1575" type="line"/>
      <point x="418" y="1612" type="line"/>
      <point x="744" y="1612" type="line"/>
      <point x="744" y="1575" type="line"/>
      <point x="600" y="1575" type="line"/>
      <point x="252" y="442" type="line" smooth="yes"/>
      <point x="173" y="183"/>
      <point x="313" y="38"/>
      <point x="574" y="38" type="curve" smooth="yes"/>
      <point x="832" y="38"/>
      <point x="1066" y="173"/>
      <point x="1156" y="466" type="curve" smooth="yes"/>
      <point x="1496" y="1575" type="line"/>
    </contour>
  </outline>
</glyph>
<glyph name="V" format="1">
  <advance width="1425"/>
  <unicode hex="0056"/>
  <outline>
    <contour>
      <point x="1429" y="1575" type="line"/>
      <point x="1563" y="1575" type="line"/>
      <point x="627" y="307" type="line"/>
      <point x="636" y="704"/>
      <point x="572" y="1091"/>
      <point x="472" y="1575" type="curve"/>
      <point x="616" y="1575" type="line"/>
      <point x="616" y="1612" type="line"/>
      <point x="290" y="1612" type="line"/>
      <point x="290" y="1575" type="line"/>
      <point x="433" y="1575" type="line"/>
      <point x="523" y="1178"/>
      <point x="619" y="585"/>
      <point x="585" y="245" type="curve"/>
      <point x="544" y="185"/>
      <point x="511" y="136"/>
      <point x="487" y="97" type="curve" smooth="yes"/>
      <point x="469" y="70"/>
      <point x="442" y="35"/>
      <point x="442" y="5" type="curve" smooth="yes"/>
      <point x="442" y="-6"/>
      <point x="453" y="-15"/>
      <point x="463" y="-15" type="curve" smooth="yes"/>
      <point x="499" y="-15"/>
      <point x="530" y="1"/>
      <point x="556" y="33" type="curve" smooth="yes"/>
      <point x="588" y="72"/>
      <point x="610" y="138"/>
      <point x="621" y="231" type="curve"/>
      <point x="1610" y="1575" type="line"/>
      <point x="1755" y="1575" type="line"/>
      <point x="1755" y="1612" type="line"/>
      <point x="1429" y="1612" type="line"/>
    </contour>
    <contour>
      <point x="527" y="56" type="curve" smooth="yes"/>
      <point x="516" y="43"/>
      <point x="504" y="33"/>
      <point x="489" y="28" type="curve"/>
      <point x="501" y="51"/>
      <point x="528" y="94"/>
      <point x="570" y="155" type="curve"/>
      <point x="559" y="112"/>
      <point x="545" y="78"/>
    </contour>
  </outline>
</glyph>
<glyph name="W" format="1">
  <advance width="1606"/>
  <unicode hex="0057"/>
  <outline>
    <contour>
      <point x="1844" y="1574" type="line"/>
      <point x="927" y="38" type="line"/>
      <point x="1031" y="38" type="line"/>
      <point x="1031" y="0" type="line"/>
      <point x="761" y="0" type="line"/>
      <point x="761" y="38" type="line"/>
      <point x="869" y="38" type="line"/>
      <point x="852" y="277"/>
      <point x="839" y="491"/>
      <point x="845" y="703" type="curve"/>
      <point x="660" y="368"/>
      <point x="557" y="195"/>
      <point x="457" y="38" type="curve"/>
      <point x="561" y="38" type="line"/>
      <point x="561" y="0" type="line"/>
      <point x="291" y="0" type="line"/>
      <point x="291" y="38" type="line"/>
      <point x="401" y="38" type="line"/>
      <point x="401" y="1574" type="line"/>
      <point x="290" y="1574" type="line"/>
      <point x="290" y="1612" type="line"/>
      <point x="560" y="1612" type="line"/>
      <point x="560" y="1574" type="line"/>
      <point x="440" y="1574" type="line"/>
      <point x="440" y="81" type="line"/>
      <point x="545" y="250"/>
      <point x="642" y="416"/>
      <point x="846" y="788" type="curve"/>
      <point x="847" y="1025"/>
      <point x="878" y="1258"/>
      <point x="989" y="1258" type="curve" smooth="yes"/>
      <point x="1027" y="1258"/>
      <point x="1042" y="1226"/>
      <point x="1042" y="1194" type="curve" smooth="yes"/>
      <point x="1042" y="1147"/>
      <point x="1020" y="1072"/>
      <point x="975" y="969" type="curve" smooth="yes"/>
      <point x="953" y="917"/>
      <point x="923" y="854"/>
      <point x="884" y="779" type="curve"/>
      <point x="878" y="570"/>
      <point x="885" y="335"/>
      <point x="904" y="74" type="curve"/>
      <point x="1800" y="1574" type="line"/>
      <point x="1691" y="1574" type="line"/>
      <point x="1691" y="1612" type="line"/>
      <point x="1961" y="1612" type="line"/>
      <point x="1961" y="1574" type="line"/>
    </contour>
    <contour>
      <point x="884" y="852" type="curve"/>
      <point x="906" y="899"/>
      <point x="928" y="957"/>
      <point x="940" y="984" type="curve" smooth="yes"/>
      <point x="983" y="1086"/>
      <point x="1006" y="1155"/>
      <point x="1006" y="1192" type="curve" smooth="yes"/>
      <point x="1006" y="1206"/>
      <point x="1003" y="1220"/>
      <point x="989" y="1220" type="curve" smooth="yes"/>
      <point x="923" y="1220"/>
      <point x="895" y="1033"/>
    </contour>
  </outline>
</glyph>
<glyph name="X" format="1">
  <advance width="1650"/>
  <unicode hex="0058"/>
  <outline>
    <contour>
      <point x="1679" y="1629" type="curve" smooth="yes"/>
      <point x="1611" y="1629"/>
      <point x="1538" y="1562"/>
      <point x="1455" y="1465" type="curve" smooth="yes"/>
      <point x="928" y="848" type="line"/>
      <point x="715" y="1329"/>
      <point x="602" y="1588"/>
      <point x="592" y="1630" type="curve"/>
      <point x="487" y="1612"/>
      <point x="407" y="1586"/>
      <point x="337" y="1551" type="curve"/>
      <point x="355" y="1518" type="line"/>
      <point x="441" y="1557"/>
      <point x="503" y="1575"/>
      <point x="566" y="1586" type="curve"/>
      <point x="597" y="1507"/>
      <point x="711" y="1246"/>
      <point x="900" y="817" type="curve"/>
      <point x="298" y="140" type="line" smooth="yes"/>
      <point x="228" y="61"/>
      <point x="168" y="23"/>
      <point x="119" y="23" type="curve" smooth="yes"/>
      <point x="53" y="23"/>
      <point x="5" y="100"/>
      <point x="-3" y="173" type="curve"/>
      <point x="-40" y="167" type="line"/>
      <point x="-29" y="89"/>
      <point x="29" y="-15"/>
      <point x="117" y="-15" type="curve" smooth="yes"/>
      <point x="178" y="-15"/>
      <point x="248" y="27"/>
      <point x="326" y="115" type="curve" smooth="yes"/>
      <point x="918" y="779" type="line"/>
      <point x="1214" y="108" type="line" smooth="yes"/>
      <point x="1254" y="19"/>
      <point x="1299" y="-15"/>
      <point x="1352" y="-15" type="curve" smooth="yes"/>
      <point x="1416" y="-15"/>
      <point x="1476" y="35"/>
      <point x="1535" y="135" type="curve"/>
      <point x="1503" y="154" type="line"/>
      <point x="1452" y="66"/>
      <point x="1402" y="23"/>
      <point x="1355" y="23" type="curve" smooth="yes"/>
      <point x="1316" y="23"/>
      <point x="1280" y="54"/>
      <point x="1244" y="134" type="curve" smooth="yes"/>
      <point x="945" y="810" type="line"/>
      <point x="1486" y="1442" type="line" smooth="yes"/>
      <point x="1561" y="1529"/>
      <point x="1626" y="1592"/>
      <point x="1679" y="1592" type="curve" smooth="yes"/>
      <point x="1715" y="1592"/>
      <point x="1755" y="1560"/>
      <point x="1790" y="1497" type="curve"/>
      <point x="1825" y="1512" type="line"/>
      <point x="1794" y="1572"/>
      <point x="1747" y="1629"/>
    </contour>
  </outline>
</glyph>
<glyph name="Y" format="1">
  <advance width="1203"/>
  <unicode hex="0059"/>
  <outline>
    <contour>
      <point x="1543" y="1575" type="line"/>
      <point x="1543" y="1613" type="line"/>
      <point x="1273" y="1613" type="line"/>
      <point x="1273" y="1575" type="line"/>
      <point x="1338" y="1575" type="line"/>
      <point x="705" y="949" type="line"/>
      <point x="458" y="1575" type="line"/>
      <point x="550" y="1575" type="line"/>
      <point x="550" y="1613" type="line"/>
      <point x="280" y="1613" type="line"/>
      <point x="280" y="1575" type="line"/>
      <point x="418" y="1575" type="line"/>
      <point x="678" y="914" type="line"/>
      <point x="410" y="38" type="line"/>
      <point x="289" y="38" type="line"/>
      <point x="289" y="0" type="line"/>
      <point x="559" y="0" type="line"/>
      <point x="559" y="38" type="line"/>
      <point x="450" y="38" type="line"/>
      <point x="715" y="906" type="line"/>
      <point x="1391" y="1574" type="line"/>
    </contour>
  </outline>
</glyph>
<glyph name="Z" format="1">
  <advance width="1497"/>
  <unicode hex="005A"/>
  <outline>
    <contour>
      <point x="1355" y="249" type="line"/>
      <point x="1387" y="228" type="line"/>
      <point x="1240" y="0" type="line"/>
      <point x="58" y="0" type="line"/>
      <point x="1272" y="1575" type="line"/>
      <point x="483" y="1575" type="line"/>
      <point x="343" y="1417" type="line"/>
      <point x="314" y="1443" type="line"/>
      <point x="467" y="1613" type="line"/>
      <point x="1349" y="1613" type="line"/>
      <point x="135" y="38" type="line"/>
      <point x="1219" y="38" type="line"/>
    </contour>
  </outline>
</glyph>
<glyph name="bracketleft" format="1">
  <advance width="546"/>
  <unicode hex="005B"/>
  <outline>
    <contour>
      <point x="48" y="-1" type="line"/>
      <point x="541" y="1612" type="line"/>
      <point x="872" y="1612" type="line"/>
      <point x="860" y="1574" type="line"/>
      <point x="567" y="1574" type="line"/>
      <point x="98" y="37" type="line"/>
      <point x="391" y="37" type="line"/>
      <point x="379" y="-1" type="line"/>
    </contour>
  </outline>
</glyph>
<glyph name="bracketright" format="1">
  <advance width="580"/>
  <unicode hex="005D"/>
  <outline>
    <contour>
      <point x="676" y="1612" type="line"/>
      <point x="183" y="0" type="line"/>
      <point x="-148" y="0" type="line"/>
      <point x="-136" y="38" type="line"/>
      <point x="157" y="38" type="line"/>
      <point x="627" y="1574" type="line"/>
      <point x="334" y="1574" type="line"/>
      <point x="346" y="1612" type="line"/>
    </contour>
  </outline>
</glyph>
<glyph name="asciicircum" format="1">
  <advance width="921"/>
  <unicode hex="005E"/>
  <outline>
    <contour>
      <point x="498" y="1997" type="line"/>
      <point x="699" y="1826" type="line"/>
      <point x="730" y="1856" type="line"/>
      <point x="502" y="2046" type="line"/>
      <point x="180" y="1856" type="line"/>
      <point x="203" y="1819" type="line"/>
    </contour>
  </outline>
</glyph>
<glyph name="underscore" format="1">
  <advance width="1058"/>
  <unicode hex="005F"/>
  <outline>
    <contour>
      <point x="-12" y="-1" type="line"/>
      <point x="802" y="-1" type="line"/>
      <point x="802" y="37" type="line"/>
      <point x="-12" y="37" type="line"/>
    </contour>
  </outline>
</glyph>
<glyph name="grave" format="1">
  <advance width="1024"/>
  <unicode hex="0060"/>
  <outline>
    <contour>
      <point x="205" y="2018" type="line"/>
      <point x="855" y="1814" type="line"/>
      <point x="866" y="1851" type="line"/>
      <point x="216" y="2055" type="line"/>
    </contour>
  </outline>
</glyph>
<glyph name="a" format="1">
  <advance width="1002"/>
  <unicode hex="0061"/>
  <outline>
    <contour>
      <point x="758" y="22" type="curve" smooth="yes"/>
      <point x="724" y="20"/>
      <point x="722" y="72"/>
      <point x="722" y="111" type="curve" smooth="yes"/>
      <point x="722" y="231"/>
      <point x="755" y="449"/>
      <point x="820" y="698" type="curve"/>
      <point x="786" y="711" type="line"/>
      <point x="649" y="440"/>
      <point x="440" y="22"/>
      <point x="232" y="22" type="curve" smooth="yes"/>
      <point x="104" y="22"/>
      <point x="96" y="121"/>
      <point x="96" y="225" type="curve" smooth="yes"/>
      <point x="96" y="506"/>
      <point x="296" y="978"/>
      <point x="635" y="978" type="curve" smooth="yes"/>
      <point x="741" y="978"/>
      <point x="793" y="916"/>
      <point x="806" y="899" type="curve"/>
      <point x="840" y="917" type="line"/>
      <point x="791" y="982"/>
      <point x="722" y="1015"/>
      <point x="635" y="1015" type="curve" smooth="yes"/>
      <point x="269" y="1015"/>
      <point x="60" y="521"/>
      <point x="60" y="225" type="curve" smooth="yes"/>
      <point x="60" y="89"/>
      <point x="85" y="-15"/>
      <point x="232" y="-15" type="curve" smooth="yes"/>
      <point x="386" y="-15"/>
      <point x="559" y="185"/>
      <point x="750" y="558" type="curve"/>
      <point x="718" y="397"/>
      <point x="687" y="250"/>
      <point x="687" y="116" type="curve" smooth="yes"/>
      <point x="687" y="56"/>
      <point x="689" y="-16"/>
      <point x="755" y="-16" type="curve" smooth="yes"/>
      <point x="824" y="-16"/>
      <point x="894" y="58"/>
      <point x="967" y="152" type="curve"/>
      <point x="938" y="175" type="line"/>
      <point x="871" y="89"/>
      <point x="810" y="24"/>
    </contour>
  </outline>
</glyph>
<glyph name="b" format="1">
  <advance width="1019"/>
  <unicode hex="0062"/>
  <outline>
    <contour>
      <point x="959" y="746" type="curve" smooth="yes"/>
      <point x="959" y="449"/>
      <point x="701" y="-15"/>
      <point x="367" y="-15" type="curve" smooth="yes"/>
      <point x="200" y="-15"/>
      <point x="4" y="32"/>
      <point x="60" y="215" type="curve" smooth="yes"/>
      <point x="458" y="1517" type="line"/>
      <point x="327" y="1462" type="line"/>
      <point x="312" y="1496" type="line"/>
      <point x="516" y="1580" type="line"/>
      <point x="94" y="202" type="line" smooth="yes"/>
      <point x="53" y="69"/>
      <point x="193" y="22"/>
      <point x="367" y="22" type="curve" smooth="yes"/>
      <point x="675" y="22"/>
      <point x="923" y="455"/>
      <point x="923" y="747" type="curve" smooth="yes"/>
      <point x="923" y="863"/>
      <point x="868" y="979"/>
      <point x="747" y="979" type="curve" smooth="yes"/>
      <point x="618" y="979"/>
      <point x="499" y="900"/>
      <point x="404" y="827" type="curve"/>
      <point x="382" y="856" type="line"/>
      <point x="497" y="942"/>
      <point x="617" y="1017"/>
      <point x="746" y="1017" type="curve" smooth="yes"/>
      <point x="894" y="1017"/>
      <point x="959" y="877"/>
    </contour>
  </outline>
</glyph>
<glyph name="c" format="1">
  <advance width="864"/>
  <unicode hex="0063"/>
  <outline>
    <contour>
      <point x="644" y="1015" type="curve" smooth="yes"/>
      <point x="297" y="1015"/>
      <point x="60" y="590"/>
      <point x="60" y="288" type="curve" smooth="yes"/>
      <point x="60" y="132"/>
      <point x="116" y="-15"/>
      <point x="294" y="-15" type="curve" smooth="yes"/>
      <point x="452" y="-15"/>
      <point x="573" y="77"/>
      <point x="678" y="180" type="curve"/>
      <point x="652" y="206" type="line"/>
      <point x="542" y="99"/>
      <point x="433" y="21"/>
      <point x="293" y="21" type="curve" smooth="yes"/>
      <point x="140" y="21"/>
      <point x="97" y="153"/>
      <point x="97" y="285" type="curve" smooth="yes"/>
      <point x="97" y="582"/>
      <point x="332" y="978"/>
      <point x="644" y="978" type="curve" smooth="yes"/>
      <point x="731" y="978"/>
      <point x="786" y="951"/>
      <point x="821" y="895" type="curve"/>
      <point x="685" y="743" type="line"/>
      <point x="713" y="719" type="line"/>
      <point x="864" y="890" type="line"/>
      <point x="818" y="981"/>
      <point x="749" y="1015"/>
    </contour>
  </outline>
</glyph>
<glyph name="d" format="1">
  <advance width="1170"/>
  <unicode hex="0064"/>
  <outline>
    <contour>
      <point x="969" y="1490" type="line"/>
      <point x="981" y="1455" type="line"/>
      <point x="1154" y="1513" type="line"/>
      <point x="886" y="645" type="line" smooth="yes"/>
      <point x="832" y="471"/>
      <point x="608" y="22"/>
      <point x="331" y="22" type="curve" smooth="yes"/>
      <point x="179" y="22"/>
      <point x="97" y="146"/>
      <point x="97" y="283" type="curve" smooth="yes"/>
      <point x="97" y="561"/>
      <point x="378" y="979"/>
      <point x="648" y="979" type="curve" smooth="yes"/>
      <point x="733" y="979"/>
      <point x="796" y="950"/>
      <point x="839" y="882" type="curve"/>
      <point x="870" y="902" type="line"/>
      <point x="819" y="981"/>
      <point x="741" y="1015"/>
      <point x="646" y="1015" type="curve" smooth="yes"/>
      <point x="352" y="1015"/>
      <point x="60" y="571"/>
      <point x="60" y="285" type="curve" smooth="yes"/>
      <point x="60" y="118"/>
      <point x="165" y="-15"/>
      <point x="331" y="-15" type="curve" smooth="yes"/>
      <point x="531" y="-15"/>
      <point x="687" y="188"/>
      <point x="778" y="337" type="curve"/>
      <point x="807" y="387" type="line"/>
      <point x="782" y="294"/>
      <point x="701" y="-16"/>
      <point x="855" y="-16" type="curve" smooth="yes"/>
      <point x="940" y="-16"/>
      <point x="1015" y="44"/>
      <point x="1082" y="163" type="curve"/>
      <point x="1049" y="180" type="line"/>
      <point x="1011" y="109"/>
      <point x="944" y="21"/>
      <point x="855" y="21" type="curve" smooth="yes"/>
      <point x="765" y="21"/>
      <point x="801" y="223"/>
      <point x="847" y="396" type="curve" smooth="yes"/>
      <point x="866" y="465"/>
      <point x="893" y="543"/>
      <point x="921" y="633" type="curve" smooth="yes"/>
      <point x="1210" y="1571" type="line"/>
    </contour>
  </outline>
</glyph>
<glyph name="e" format="1">
  <advance width="973"/>
  <unicode hex="0065"/>
  <outline>
    <contour>
      <point x="801" y="206" type="line"/>
      <point x="689" y="95"/>
      <point x="552" y="21"/>
      <point x="402" y="21" type="curve" smooth="yes"/>
      <point x="218" y="21"/>
      <point x="96" y="183"/>
      <point x="96" y="347" type="curve" smooth="yes"/>
      <point x="96" y="670"/>
      <point x="404" y="978"/>
      <point x="706" y="978" type="curve" smooth="yes"/>
      <point x="804" y="978"/>
      <point x="926" y="930"/>
      <point x="926" y="823" type="curve" smooth="yes"/>
      <point x="926" y="636"/>
      <point x="616" y="595"/>
      <point x="258" y="543" type="curve"/>
      <point x="262" y="506" type="line"/>
      <point x="638" y="555"/>
      <point x="963" y="614"/>
      <point x="963" y="823" type="curve" smooth="yes"/>
      <point x="963" y="960"/>
      <point x="813" y="1015"/>
      <point x="711" y="1015" type="curve" smooth="yes"/>
      <point x="372" y="1015"/>
      <point x="60" y="682"/>
      <point x="60" y="346" type="curve" smooth="yes"/>
      <point x="60" y="138"/>
      <point x="218" y="-15"/>
      <point x="405" y="-15" type="curve" smooth="yes"/>
      <point x="570" y="-15"/>
      <point x="717" y="70"/>
      <point x="827" y="180" type="curve"/>
    </contour>
  </outline>
</glyph>
<glyph name="f" format="1">
  <advance width="619"/>
  <unicode hex="0066"/>
  <outline>
    <contour>
      <point x="422" y="1193" type="curve" smooth="yes"/>
      <point x="422" y="1071"/>
      <point x="547" y="1007"/>
      <point x="652" y="1001" type="curve"/>
      <point x="652" y="964" type="line"/>
      <point x="313" y="964" type="line"/>
      <point x="361" y="939"/>
      <point x="393" y="907"/>
      <point x="393" y="859" type="curve" smooth="yes"/>
      <point x="393" y="847"/>
      <point x="391" y="834"/>
      <point x="387" y="821" type="curve" smooth="yes"/>
      <point x="-5" y="-515" type="line" smooth="yes"/>
      <point x="-43" y="-645"/>
      <point x="-147" y="-734"/>
      <point x="-278" y="-734" type="curve" smooth="yes"/>
      <point x="-402" y="-734"/>
      <point x="-485" y="-667"/>
      <point x="-485" y="-562" type="curve" smooth="yes"/>
      <point x="-485" y="-554"/>
      <point x="-485" y="-545"/>
      <point x="-484" y="-537" type="curve"/>
      <point x="-448" y="-541" type="line"/>
      <point x="-448" y="-550" type="line"/>
      <point x="-448" y="-653"/>
      <point x="-377" y="-697"/>
      <point x="-278" y="-697" type="curve" smooth="yes"/>
      <point x="-158" y="-697"/>
      <point x="-72" y="-611"/>
      <point x="-41" y="-506" type="curve" smooth="yes"/>
      <point x="352" y="832" type="line" smooth="yes"/>
      <point x="355" y="841"/>
      <point x="356" y="849"/>
      <point x="356" y="857" type="curve" smooth="yes"/>
      <point x="356" y="945"/>
      <point x="199" y="962"/>
      <point x="143" y="964" type="curve"/>
      <point x="143" y="1001" type="line"/>
      <point x="514" y="1001" type="line"/>
      <point x="437" y="1039"/>
      <point x="386" y="1108"/>
      <point x="386" y="1192" type="curve" smooth="yes"/>
      <point x="386" y="1396"/>
      <point x="578" y="1582"/>
      <point x="759" y="1582" type="curve" smooth="yes"/>
      <point x="831" y="1582"/>
      <point x="928" y="1564"/>
      <point x="999" y="1463" type="curve"/>
      <point x="889" y="1395" type="line"/>
      <point x="870" y="1426" type="line"/>
      <point x="947" y="1473" type="line"/>
      <point x="905" y="1516"/>
      <point x="844" y="1547"/>
      <point x="760" y="1547" type="curve" smooth="yes"/>
      <point x="586" y="1547"/>
      <point x="422" y="1378"/>
    </contour>
  </outline>
</glyph>
<glyph name="g" format="1">
  <advance width="952"/>
  <unicode hex="0067"/>
  <outline>
    <contour>
      <point x="830" y="698" type="line"/>
      <point x="830" y="647"/>
      <point x="819" y="577"/>
      <point x="802" y="483" type="curve" smooth="yes"/>
      <point x="766" y="285"/>
      <point x="557" y="22"/>
      <point x="350" y="22" type="curve" smooth="yes"/>
      <point x="178" y="22"/>
      <point x="98" y="206"/>
      <point x="98" y="350" type="curve" smooth="yes"/>
      <point x="98" y="602"/>
      <point x="298" y="980"/>
      <point x="573" y="980" type="curve" smooth="yes"/>
      <point x="665" y="980"/>
      <point x="734" y="936"/>
      <point x="781" y="848" type="curve"/>
      <point x="813" y="866" type="line"/>
      <point x="761" y="960"/>
      <point x="674" y="1017"/>
      <point x="573" y="1017" type="curve" smooth="yes"/>
      <point x="267" y="1017"/>
      <point x="61" y="607"/>
      <point x="61" y="353" type="curve" smooth="yes"/>
      <point x="61" y="176"/>
      <point x="167" y="-15"/>
      <point x="350" y="-15" type="curve" smooth="yes"/>
      <point x="522" y="-15"/>
      <point x="677" y="148"/>
      <point x="756" y="277" type="curve"/>
      <point x="694" y="54"/>
      <point x="628" y="-146"/>
      <point x="528" y="-332" type="curve" smooth="yes"/>
      <point x="426" y="-522"/>
      <point x="288" y="-698"/>
      <point x="65" y="-698" type="curve" smooth="yes"/>
      <point x="-77" y="-698"/>
      <point x="-187" y="-598"/>
      <point x="-187" y="-461" type="curve" smooth="yes"/>
      <point x="-187" y="-430"/>
      <point x="-182" y="-398"/>
      <point x="-172" y="-364" type="curve"/>
      <point x="-3" y="-253" type="line"/>
      <point x="-24" y="-223" type="line"/>
      <point x="-204" y="-341" type="line"/>
      <point x="-218" y="-388"/>
      <point x="-224" y="-426"/>
      <point x="-224" y="-462" type="curve" smooth="yes"/>
      <point x="-224" y="-630"/>
      <point x="-91" y="-734"/>
      <point x="65" y="-734" type="curve" smooth="yes"/>
      <point x="318" y="-734"/>
      <point x="474" y="-525"/>
      <point x="575" y="-325" type="curve" smooth="yes"/>
      <point x="720" y="-43"/>
      <point x="843" y="380"/>
      <point x="867" y="698" type="curve"/>
    </contour>
  </outline>
</glyph>
<glyph name="h" format="1">
  <advance width="1026"/>
  <unicode hex="0068"/>
  <outline>
    <contour>
      <point x="776" y="1015" type="curve" smooth="yes"/>
      <point x="904" y="1015"/>
      <point x="966" y="929"/>
      <point x="966" y="784" type="curve" smooth="yes"/>
      <point x="966" y="527"/>
      <point x="725" y="-15"/>
      <point x="495" y="-15" type="curve" smooth="yes"/>
      <point x="435" y="-15"/>
      <point x="394" y="24"/>
      <point x="394" y="82" type="curve"/>
      <point x="431" y="80" type="line"/>
      <point x="433" y="40"/>
      <point x="462" y="22"/>
      <point x="494" y="22" type="curve" smooth="yes"/>
      <point x="684" y="22"/>
      <point x="930" y="508"/>
      <point x="930" y="782" type="curve" smooth="yes"/>
      <point x="930" y="919"/>
      <point x="870" y="978"/>
      <point x="776" y="978" type="curve" smooth="yes"/>
      <point x="530" y="978"/>
      <point x="359" y="653"/>
      <point x="267" y="469" type="curve" smooth="yes"/>
      <point x="222" y="380"/>
      <point x="177" y="267"/>
      <point x="86" y="-15" type="curve"/>
      <point x="50" y="-5" type="line"/>
      <point x="513" y="1506" type="line"/>
      <point x="332" y="1458" type="line"/>
      <point x="323" y="1493" type="line"/>
      <point x="568" y="1557" type="line"/>
      <point x="247" y="512" type="line"/>
      <point x="354" y="718"/>
      <point x="527" y="1015"/>
    </contour>
  </outline>
</glyph>
<glyph name="i" format="1">
  <advance width="531"/>
  <unicode hex="0069"/>
  <outline>
    <contour>
      <point x="413" y="1144" type="curve" smooth="yes"/>
      <point x="485" y="1144"/>
      <point x="551" y="1210"/>
      <point x="551" y="1277" type="curve" smooth="yes"/>
      <point x="551" y="1324"/>
      <point x="512" y="1357"/>
      <point x="469" y="1357" type="curve" smooth="yes"/>
      <point x="394" y="1357"/>
      <point x="328" y="1292"/>
      <point x="328" y="1221" type="curve" smooth="yes"/>
      <point x="328" y="1172"/>
      <point x="371" y="1144"/>
    </contour>
    <contour>
      <point x="467" y="1320" type="curve" smooth="yes"/>
      <point x="494" y="1320"/>
      <point x="514" y="1303"/>
      <point x="514" y="1278" type="curve" smooth="yes"/>
      <point x="514" y="1227"/>
      <point x="461" y="1180"/>
      <point x="413" y="1180" type="curve" smooth="yes"/>
      <point x="385" y="1180"/>
      <point x="366" y="1199"/>
      <point x="366" y="1224" type="curve" smooth="yes"/>
      <point x="366" y="1276"/>
      <point x="420" y="1320"/>
    </contour>
    <contour>
      <point x="418" y="178" type="line"/>
      <point x="348" y="120"/>
      <point x="231" y="22"/>
      <point x="150" y="22" type="curve" smooth="yes"/>
      <point x="117" y="22"/>
      <point x="107" y="44"/>
      <point x="107" y="69" type="curve" smooth="yes"/>
      <point x="107" y="87"/>
      <point x="112" y="107"/>
      <point x="117" y="122" type="curve" smooth="yes"/>
      <point x="368" y="927" type="line" smooth="yes"/>
      <point x="383" y="976"/>
      <point x="353" y="1015"/>
      <point x="305" y="1015" type="curve" smooth="yes"/>
      <point x="263" y="1015"/>
      <point x="208" y="988"/>
      <point x="139" y="933" type="curve"/>
      <point x="162" y="904" type="line"/>
      <point x="203" y="935"/>
      <point x="255" y="978"/>
      <point x="305" y="978" type="curve" smooth="yes"/>
      <point x="333" y="978"/>
      <point x="340" y="960"/>
      <point x="333" y="937" type="curve" smooth="yes"/>
      <point x="83" y="134" type="line" smooth="yes"/>
      <point x="76" y="111"/>
      <point x="70" y="86"/>
      <point x="70" y="62" type="curve" smooth="yes"/>
      <point x="70" y="7"/>
      <point x="108" y="-15"/>
      <point x="150" y="-15" type="curve" smooth="yes"/>
      <point x="242" y="-15"/>
      <point x="378" y="98"/>
      <point x="442" y="151" type="curve"/>
    </contour>
  </outline>
</glyph>
<glyph name="j" format="1">
  <advance width="531"/>
  <unicode hex="006A"/>
  <outline>
    <contour>
      <point x="75" y="-514" type="line" smooth="yes"/>
      <point x="42" y="-642"/>
      <point x="-69" y="-734"/>
      <point x="-198" y="-734" type="curve" smooth="yes"/>
      <point x="-315" y="-734"/>
      <point x="-416" y="-656"/>
      <point x="-400" y="-537" type="curve"/>
      <point x="-363" y="-542" type="line"/>
      <point x="-370" y="-650"/>
      <point x="-294" y="-697"/>
      <point x="-198" y="-697" type="curve" smooth="yes"/>
      <point x="-73" y="-697"/>
      <point x="14" y="-605"/>
      <point x="42" y="-495" type="curve" smooth="yes"/>
      <point x="408" y="937" type="line"/>
      <point x="414" y="960"/>
      <point x="408" y="978"/>
      <point x="380" y="978" type="curve" smooth="yes"/>
      <point x="330" y="978"/>
      <point x="278" y="935"/>
      <point x="237" y="904" type="curve"/>
      <point x="214" y="933" type="line"/>
      <point x="283" y="988"/>
      <point x="338" y="1015"/>
      <point x="380" y="1015" type="curve" smooth="yes"/>
      <point x="428" y="1015"/>
      <point x="456" y="977"/>
      <point x="443" y="927" type="curve" smooth="yes"/>
    </contour>
    <contour>
      <point x="413" y="1144" type="curve" smooth="yes"/>
      <point x="485" y="1144"/>
      <point x="551" y="1210"/>
      <point x="551" y="1277" type="curve" smooth="yes"/>
      <point x="551" y="1324"/>
      <point x="512" y="1357"/>
      <point x="469" y="1357" type="curve" smooth="yes"/>
      <point x="394" y="1357"/>
      <point x="328" y="1292"/>
      <point x="328" y="1221" type="curve" smooth="yes"/>
      <point x="328" y="1172"/>
      <point x="371" y="1144"/>
    </contour>
    <contour>
      <point x="467" y="1320" type="curve" smooth="yes"/>
      <point x="494" y="1320"/>
      <point x="514" y="1303"/>
      <point x="514" y="1278" type="curve" smooth="yes"/>
      <point x="514" y="1227"/>
      <point x="461" y="1180"/>
      <point x="413" y="1180" type="curve" smooth="yes"/>
      <point x="385" y="1180"/>
      <point x="366" y="1199"/>
      <point x="366" y="1224" type="curve" smooth="yes"/>
      <point x="366" y="1276"/>
      <point x="420" y="1320"/>
    </contour>
  </outline>
</glyph>
<glyph name="k" format="1">
  <advance width="1107"/>
  <unicode hex="006B"/>
  <outline>
    <contour>
      <point x="558" y="478" type="curve"/>
      <point x="545" y="352"/>
      <point x="504" y="21"/>
      <point x="704" y="21" type="curve" smooth="yes"/>
      <point x="820" y="21"/>
      <point x="923" y="146"/>
      <point x="964" y="201" type="curve"/>
      <point x="993" y="179" type="line"/>
      <point x="919" y="84"/>
      <point x="822" y="-15"/>
      <point x="704" y="-15" type="curve" smooth="yes"/>
      <point x="474" y="-15"/>
      <point x="503" y="326"/>
      <point x="520" y="474" type="curve"/>
      <point x="480" y="471"/>
      <point x="441" y="469"/>
      <point x="403" y="469" type="curve"/>
      <point x="403" y="506" type="line"/>
      <point x="629" y="510"/>
      <point x="990" y="571"/>
      <point x="990" y="818" type="curve" smooth="yes"/>
      <point x="990" y="942"/>
      <point x="909" y="978"/>
      <point x="800" y="978" type="curve" smooth="yes"/>
      <point x="504" y="978"/>
      <point x="245" y="449"/>
      <point x="85" y="0" type="curve"/>
      <point x="50" y="11" type="line"/>
      <point x="510" y="1512" type="line"/>
      <point x="329" y="1464" type="line"/>
      <point x="319" y="1500" type="line"/>
      <point x="564" y="1564" type="line"/>
      <point x="202" y="382" type="line"/>
      <point x="315" y="612"/>
      <point x="513" y="1015"/>
      <point x="800" y="1015" type="curve" smooth="yes"/>
      <point x="945" y="1015"/>
      <point x="1027" y="956"/>
      <point x="1027" y="818" type="curve" smooth="yes"/>
      <point x="1027" y="589"/>
      <point x="752" y="499"/>
    </contour>
  </outline>
</glyph>
<glyph name="l" format="1">
  <advance width="512"/>
  <unicode hex="006C"/>
  <outline>
    <contour>
      <point x="548" y="1568" type="line"/>
      <point x="118" y="157" type="line" smooth="yes"/>
      <point x="94" y="78"/>
      <point x="98" y="22"/>
      <point x="151" y="22" type="curve" smooth="yes"/>
      <point x="233" y="22"/>
      <point x="366" y="131"/>
      <point x="419" y="178" type="curve"/>
      <point x="443" y="151" type="line"/>
      <point x="375" y="94"/>
      <point x="242" y="-15"/>
      <point x="151" y="-15" type="curve" smooth="yes"/>
      <point x="67" y="-15"/>
      <point x="53" y="71"/>
      <point x="80" y="160" type="curve" smooth="yes"/>
      <point x="493" y="1516" type="line"/>
      <point x="312" y="1468" type="line"/>
      <point x="303" y="1504" type="line"/>
    </contour>
  </outline>
</glyph>
<glyph name="m" format="1">
  <advance width="1694"/>
  <unicode hex="006D"/>
  <outline>
    <contour>
      <point x="1296" y="22" type="curve" smooth="yes"/>
      <point x="1264" y="22"/>
      <point x="1245" y="37"/>
      <point x="1245" y="66" type="curve" smooth="yes"/>
      <point x="1245" y="79"/>
      <point x="1248" y="94"/>
      <point x="1265" y="136" type="curve" smooth="yes"/>
      <point x="1463" y="616" type="line" smooth="yes"/>
      <point x="1502" y="710"/>
      <point x="1513" y="765"/>
      <point x="1513" y="816" type="curve" smooth="yes"/>
      <point x="1513" y="930"/>
      <point x="1427" y="1015"/>
      <point x="1316" y="1015" type="curve" smooth="yes"/>
      <point x="1138" y="1015"/>
      <point x="996" y="823"/>
      <point x="916" y="691" type="curve"/>
      <point x="936" y="840"/>
      <point x="914" y="1015"/>
      <point x="738" y="1015" type="curve" smooth="yes"/>
      <point x="511" y="1015"/>
      <point x="340" y="699"/>
      <point x="258" y="532" type="curve"/>
      <point x="377" y="926" type="line" smooth="yes"/>
      <point x="392" y="975"/>
      <point x="365" y="1014"/>
      <point x="315" y="1014" type="curve" smooth="yes"/>
      <point x="272" y="1014"/>
      <point x="217" y="987"/>
      <point x="148" y="932" type="curve"/>
      <point x="171" y="903" type="line"/>
      <point x="210" y="935"/>
      <point x="264" y="977"/>
      <point x="315" y="977" type="curve" smooth="yes"/>
      <point x="344" y="977"/>
      <point x="349" y="958"/>
      <point x="342" y="936" type="curve" smooth="yes"/>
      <point x="60" y="-3" type="line"/>
      <point x="96" y="-13" type="line"/>
      <point x="150" y="146"/>
      <point x="210" y="342"/>
      <point x="273" y="478" type="curve" smooth="yes"/>
      <point x="357" y="657"/>
      <point x="518" y="978"/>
      <point x="738" y="978" type="curve" smooth="yes"/>
      <point x="937" y="978"/>
      <point x="888" y="712"/>
      <point x="858" y="593" type="curve"/>
      <point x="710" y="297"/>
      <point x="646" y="86"/>
      <point x="625" y="15" type="curve"/>
      <point x="659" y="1" type="line"/>
      <point x="765" y="215"/>
      <point x="845" y="394"/>
      <point x="892" y="579" type="curve"/>
      <point x="977" y="732"/>
      <point x="1125" y="978"/>
      <point x="1316" y="978" type="curve" smooth="yes"/>
      <point x="1412" y="978"/>
      <point x="1477" y="898"/>
      <point x="1477" y="813" type="curve" smooth="yes"/>
      <point x="1477" y="765"/>
      <point x="1465" y="713"/>
      <point x="1429" y="627" type="curve" smooth="yes"/>
      <point x="1231" y="149" type="line" smooth="yes"/>
      <point x="1218" y="117"/>
      <point x="1209" y="94"/>
      <point x="1209" y="68" type="curve" smooth="yes"/>
      <point x="1209" y="15"/>
      <point x="1237" y="-15"/>
      <point x="1296" y="-15" type="curve" smooth="yes"/>
      <point x="1383" y="-15"/>
      <point x="1529" y="93"/>
      <point x="1587" y="151" type="curve"/>
      <point x="1563" y="178" type="line"/>
      <point x="1505" y="121"/>
      <point x="1383" y="22"/>
    </contour>
  </outline>
</glyph>
<glyph name="n" format="1">
  <advance width="1116"/>
  <unicode hex="006E"/>
  <outline>
    <contour>
      <point x="738" y="1015" type="curve" smooth="yes"/>
      <point x="511" y="1015"/>
      <point x="340" y="699"/>
      <point x="258" y="532" type="curve"/>
      <point x="377" y="926" type="line" smooth="yes"/>
      <point x="392" y="975"/>
      <point x="365" y="1014"/>
      <point x="315" y="1014" type="curve" smooth="yes"/>
      <point x="272" y="1014"/>
      <point x="217" y="987"/>
      <point x="148" y="932" type="curve"/>
      <point x="171" y="903" type="line"/>
      <point x="210" y="935"/>
      <point x="264" y="977"/>
      <point x="315" y="977" type="curve" smooth="yes"/>
      <point x="344" y="977"/>
      <point x="349" y="958"/>
      <point x="342" y="936" type="curve" smooth="yes"/>
      <point x="60" y="-3" type="line"/>
      <point x="96" y="-13" type="line"/>
      <point x="150" y="146"/>
      <point x="210" y="342"/>
      <point x="273" y="478" type="curve" smooth="yes"/>
      <point x="357" y="657"/>
      <point x="518" y="978"/>
      <point x="738" y="978" type="curve" smooth="yes"/>
      <point x="834" y="978"/>
      <point x="899" y="898"/>
      <point x="899" y="813" type="curve" smooth="yes"/>
      <point x="899" y="765"/>
      <point x="887" y="713"/>
      <point x="851" y="627" type="curve" smooth="yes"/>
      <point x="653" y="149" type="line" smooth="yes"/>
      <point x="640" y="117"/>
      <point x="631" y="94"/>
      <point x="631" y="68" type="curve" smooth="yes"/>
      <point x="631" y="15"/>
      <point x="659" y="-15"/>
      <point x="718" y="-15" type="curve" smooth="yes"/>
      <point x="805" y="-15"/>
      <point x="951" y="93"/>
      <point x="1009" y="151" type="curve"/>
      <point x="985" y="178" type="line"/>
      <point x="927" y="121"/>
      <point x="805" y="22"/>
      <point x="718" y="22" type="curve" smooth="yes"/>
      <point x="686" y="22"/>
      <point x="667" y="37"/>
      <point x="667" y="66" type="curve" smooth="yes"/>
      <point x="667" y="79"/>
      <point x="670" y="94"/>
      <point x="687" y="136" type="curve" smooth="yes"/>
      <point x="885" y="616" type="line" smooth="yes"/>
      <point x="924" y="710"/>
      <point x="935" y="765"/>
      <point x="935" y="816" type="curve" smooth="yes"/>
      <point x="935" y="930"/>
      <point x="849" y="1015"/>
    </contour>
  </outline>
</glyph>
<glyph name="o" format="1">
  <advance width="984"/>
  <unicode hex="006F"/>
  <outline>
    <contour>
      <point x="624" y="1015" type="curve" smooth="yes"/>
      <point x="314" y="1015"/>
      <point x="60" y="660"/>
      <point x="60" y="342" type="curve" smooth="yes"/>
      <point x="60" y="136"/>
      <point x="170" y="-15"/>
      <point x="360" y="-15" type="curve" smooth="yes"/>
      <point x="674" y="-15"/>
      <point x="924" y="341"/>
      <point x="924" y="640" type="curve" smooth="yes"/>
      <point x="924" y="856"/>
      <point x="813" y="1015"/>
    </contour>
    <contour>
      <point x="360" y="21" type="curve" smooth="yes"/>
      <point x="186" y="21"/>
      <point x="96" y="172"/>
      <point x="96" y="338" type="curve" smooth="yes"/>
      <point x="96" y="643"/>
      <point x="343" y="978"/>
      <point x="624" y="978" type="curve" smooth="yes"/>
      <point x="802" y="978"/>
      <point x="887" y="818"/>
      <point x="887" y="640" type="curve" smooth="yes"/>
      <point x="887" y="339"/>
      <point x="634" y="21"/>
    </contour>
  </outline>
</glyph>
<glyph name="p" format="1">
  <advance width="977"/>
  <unicode hex="0070"/>
  <outline>
    <contour>
      <point x="741" y="1015" type="curve" smooth="yes"/>
      <point x="627" y="1015"/>
      <point x="503" y="982"/>
      <point x="370" y="916" type="curve"/>
      <point x="415" y="1053" type="line"/>
      <point x="379" y="1064" type="line"/>
      <point x="325" y="891" type="line"/>
      <point x="238" y="840"/>
      <point x="147" y="782"/>
      <point x="81" y="721" type="curve"/>
      <point x="107" y="692" type="line"/>
      <point x="172" y="746"/>
      <point x="237" y="795"/>
      <point x="308" y="836" type="curve"/>
      <point x="-120" y="-578" type="line" smooth="yes"/>
      <point x="-147" y="-667"/>
      <point x="-246" y="-694"/>
      <point x="-335" y="-697" type="curve"/>
      <point x="-335" y="-734" type="line"/>
      <point x="48" y="-734" type="line"/>
      <point x="48" y="-697" type="line"/>
      <point x="-175" y="-697" type="line"/>
      <point x="-129" y="-672"/>
      <point x="-99" y="-635"/>
      <point x="-85" y="-588" type="curve" smooth="yes"/>
      <point x="354" y="863" type="line"/>
      <point x="493" y="938"/>
      <point x="622" y="976"/>
      <point x="741" y="976" type="curve" smooth="yes"/>
      <point x="851" y="976"/>
      <point x="877" y="895"/>
      <point x="877" y="774" type="curve" smooth="yes"/>
      <point x="877" y="517"/>
      <point x="631" y="23"/>
      <point x="355" y="23" type="curve" smooth="yes"/>
      <point x="300" y="23"/>
      <point x="252" y="49"/>
      <point x="209" y="101" type="curve"/>
      <point x="178" y="75" type="line"/>
      <point x="227" y="15"/>
      <point x="286" y="-15"/>
      <point x="354" y="-15" type="curve" smooth="yes"/>
      <point x="662" y="-15"/>
      <point x="917" y="503"/>
      <point x="917" y="777" type="curve" smooth="yes"/>
      <point x="917" y="925"/>
      <point x="868" y="1015"/>
    </contour>
  </outline>
</glyph>
<glyph name="q" format="1">
  <advance width="1045"/>
  <unicode hex="0071"/>
  <outline>
    <contour>
      <point x="977" y="1054" type="line"/>
      <point x="880" y="734" type="line"/>
      <point x="884" y="873"/>
      <point x="808" y="1015"/>
      <point x="668" y="1015" type="curve" smooth="yes"/>
      <point x="339" y="1015"/>
      <point x="60" y="493"/>
      <point x="60" y="220" type="curve" smooth="yes"/>
      <point x="60" y="94"/>
      <point x="117" y="-16"/>
      <point x="237" y="-16" type="curve" smooth="yes"/>
      <point x="403" y="-16"/>
      <point x="559" y="162"/>
      <point x="647" y="280" type="curve"/>
      <point x="615" y="303" type="line"/>
      <point x="529" y="189"/>
      <point x="385" y="23"/>
      <point x="239" y="23" type="curve" smooth="yes"/>
      <point x="136" y="23"/>
      <point x="100" y="124"/>
      <point x="100" y="218" type="curve" smooth="yes"/>
      <point x="100" y="484"/>
      <point x="368" y="975"/>
      <point x="667" y="975" type="curve" smooth="yes"/>
      <point x="868" y="975"/>
      <point x="858" y="658"/>
      <point x="821" y="537" type="curve" smooth="yes"/>
      <point x="481" y="-579" type="line" smooth="yes"/>
      <point x="465" y="-633"/>
      <point x="433" y="-676"/>
      <point x="263" y="-699" type="curve"/>
      <point x="266" y="-735" type="line"/>
      <point x="726" y="-655" type="line"/>
      <point x="719" y="-620" type="line"/>
      <point x="473" y="-662" type="line"/>
      <point x="494" y="-641"/>
      <point x="507" y="-617"/>
      <point x="516" y="-589" type="curve" smooth="yes"/>
      <point x="1012" y="1043" type="line"/>
    </contour>
  </outline>
</glyph>
<glyph name="r" format="1">
  <advance width="874"/>
  <unicode hex="0072"/>
  <outline>
    <contour>
      <point x="714" y="1015" type="curve" smooth="yes"/>
      <point x="583" y="1015"/>
      <point x="416" y="811"/>
      <point x="255" y="471" type="curve"/>
      <point x="279" y="543"/>
      <point x="322" y="679"/>
      <point x="384" y="878" type="curve" smooth="yes"/>
      <point x="405" y="945"/>
      <point x="395" y="1015"/>
      <point x="312" y="1015" type="curve" smooth="yes"/>
      <point x="206" y="1015"/>
      <point x="128" y="932"/>
      <point x="95" y="842" type="curve"/>
      <point x="130" y="829" type="line"/>
      <point x="160" y="902"/>
      <point x="220" y="977"/>
      <point x="302" y="977" type="curve" smooth="yes"/>
      <point x="363" y="977"/>
      <point x="363" y="937"/>
      <point x="348" y="890" type="curve" smooth="yes"/>
      <point x="60" y="5" type="line"/>
      <point x="95" y="-6" type="line"/>
      <point x="152" y="167"/>
      <point x="224" y="325"/>
      <point x="299" y="477" type="curve" smooth="yes"/>
      <point x="462" y="803"/>
      <point x="600" y="979"/>
      <point x="714" y="979" type="curve" smooth="yes"/>
      <point x="832" y="979"/>
      <point x="864" y="879"/>
      <point x="839" y="784" type="curve"/>
      <point x="875" y="774" type="line"/>
      <point x="904" y="908"/>
      <point x="856" y="1015"/>
    </contour>
  </outline>
</glyph>
<glyph name="s" format="1">
  <advance width="724"/>
  <unicode hex="0073"/>
  <outline>
    <contour>
      <point x="529" y="1016" type="curve" smooth="yes"/>
      <point x="395" y="1016"/>
      <point x="238" y="940"/>
      <point x="238" y="788" type="curve" smooth="yes"/>
      <point x="238" y="598"/>
      <point x="485" y="530"/>
      <point x="485" y="310" type="curve" smooth="yes"/>
      <point x="485" y="155"/>
      <point x="391" y="22"/>
      <point x="225" y="22" type="curve" smooth="yes"/>
      <point x="146" y="22"/>
      <point x="52" y="53"/>
      <point x="47" y="135" type="curve"/>
      <point x="10" y="135" type="line"/>
      <point x="18" y="27"/>
      <point x="128" y="-15"/>
      <point x="224" y="-15" type="curve" smooth="yes"/>
      <point x="417" y="-15"/>
      <point x="522" y="136"/>
      <point x="522" y="310" type="curve" smooth="yes"/>
      <point x="522" y="538"/>
      <point x="276" y="629"/>
      <point x="276" y="781" type="curve" smooth="yes"/>
      <point x="276" y="917"/>
      <point x="399" y="981"/>
      <point x="524" y="981" type="curve" smooth="yes"/>
      <point x="579" y="981"/>
      <point x="684" y="966"/>
      <point x="687" y="879" type="curve"/>
      <point x="724" y="877" type="line"/>
      <point x="720" y="980"/>
      <point x="615" y="1016"/>
    </contour>
  </outline>
</glyph>
<glyph name="t" format="1">
  <advance width="710"/>
  <unicode hex="0074"/>
  <outline>
    <contour>
      <point x="780" y="1000" type="line"/>
      <point x="328" y="1000" type="line"/>
      <point x="431" y="1048"/>
      <point x="501" y="1173"/>
      <point x="520" y="1273" type="curve"/>
      <point x="484" y="1278" type="line"/>
      <point x="459" y="1125"/>
      <point x="335" y="1000"/>
      <point x="181" y="997" type="curve" smooth="yes"/>
      <point x="120" y="996" type="line"/>
      <point x="120" y="963" type="line"/>
      <point x="390" y="963" type="line"/>
      <point x="128" y="110" type="line" smooth="yes"/>
      <point x="98" y="13"/>
      <point x="166" y="-15"/>
      <point x="221" y="-15" type="curve" smooth="yes"/>
      <point x="366" y="-15"/>
      <point x="471" y="148"/>
      <point x="540" y="250" type="curve"/>
      <point x="509" y="270" type="line"/>
      <point x="446" y="173"/>
      <point x="343" y="22"/>
      <point x="223" y="22" type="curve" smooth="yes"/>
      <point x="189" y="22"/>
      <point x="141" y="31"/>
      <point x="164" y="106" type="curve" smooth="yes"/>
      <point x="429" y="964" type="line"/>
      <point x="780" y="964" type="line"/>
    </contour>
  </outline>
</glyph>
<glyph name="u" format="1">
  <advance width="1271"/>
  <unicode hex="0075"/>
  <outline>
    <contour>
      <point x="873" y="22" type="curve" smooth="yes"/>
      <point x="843" y="22"/>
      <point x="820" y="39"/>
      <point x="820" y="64" type="curve" smooth="yes"/>
      <point x="820" y="71"/>
      <point x="821" y="89"/>
      <point x="833" y="127" type="curve" smooth="yes"/>
      <point x="1104" y="1007" type="line"/>
      <point x="1068" y="1013" type="line"/>
      <point x="1012" y="828" type="line"/>
      <point x="1005" y="813"/>
      <point x="992" y="789"/>
      <point x="975" y="758" type="curve" smooth="yes"/>
      <point x="911" y="641"/>
      <point x="843" y="532"/>
      <point x="770" y="428" type="curve" smooth="yes"/>
      <point x="590" y="169"/>
      <point x="429" y="23"/>
      <point x="309" y="23" type="curve" smooth="yes"/>
      <point x="255" y="23"/>
      <point x="236" y="61"/>
      <point x="236" y="108" type="curve" smooth="yes"/>
      <point x="236" y="170"/>
      <point x="259" y="224"/>
      <point x="276" y="279" type="curve" smooth="yes"/>
      <point x="463" y="885" type="line" smooth="yes"/>
      <point x="470" y="907"/>
      <point x="473" y="926"/>
      <point x="473" y="942" type="curve" smooth="yes"/>
      <point x="473" y="993"/>
      <point x="441" y="1015"/>
      <point x="389" y="1015" type="curve" smooth="yes"/>
      <point x="266" y="1015"/>
      <point x="117" y="832"/>
      <point x="60" y="718" type="curve"/>
      <point x="93" y="702" type="line"/>
      <point x="140" y="797"/>
      <point x="281" y="978"/>
      <point x="389" y="978" type="curve" smooth="yes"/>
      <point x="413" y="978"/>
      <point x="434" y="969"/>
      <point x="434" y="936" type="curve" smooth="yes"/>
      <point x="434" y="926"/>
      <point x="432" y="914"/>
      <point x="427" y="898" type="curve" smooth="yes"/>
      <point x="242" y="293" type="line" smooth="yes"/>
      <point x="223" y="230"/>
      <point x="199" y="174"/>
      <point x="199" y="109" type="curve" smooth="yes"/>
      <point x="199" y="37"/>
      <point x="237" y="-14"/>
      <point x="309" y="-14" type="curve" smooth="yes"/>
      <point x="444" y="-14"/>
      <point x="608" y="133"/>
      <point x="800" y="407" type="curve" smooth="yes"/>
      <point x="857" y="488"/>
      <point x="910" y="571"/>
      <point x="959" y="656" type="curve"/>
      <point x="796" y="131" type="line" smooth="yes"/>
      <point x="786" y="99"/>
      <point x="782" y="85"/>
      <point x="782" y="66" type="curve" smooth="yes"/>
      <point x="782" y="12"/>
      <point x="825" y="-15"/>
      <point x="873" y="-15" type="curve" smooth="yes"/>
      <point x="960" y="-15"/>
      <point x="1106" y="93"/>
      <point x="1164" y="151" type="curve"/>
      <point x="1140" y="178" type="line"/>
      <point x="1080" y="120"/>
      <point x="960" y="22"/>
    </contour>
  </outline>
</glyph>
<glyph name="v" format="1">
  <advance width="1165"/>
  <unicode hex="0076"/>
  <outline>
    <contour>
      <point x="992" y="1015" type="curve"/>
      <point x="992" y="978" type="line"/>
      <point x="1045" y="975"/>
      <point x="1068" y="938"/>
      <point x="1068" y="877" type="curve" smooth="yes"/>
      <point x="1068" y="612"/>
      <point x="717" y="22"/>
      <point x="396" y="22" type="curve" smooth="yes"/>
      <point x="317" y="22"/>
      <point x="279" y="81"/>
      <point x="279" y="151" type="curve" smooth="yes"/>
      <point x="279" y="205"/>
      <point x="289" y="244"/>
      <point x="303" y="290" type="curve" smooth="yes"/>
      <point x="488" y="891" type="line" smooth="yes"/>
      <point x="498" y="925"/>
      <point x="500" y="940"/>
      <point x="500" y="951" type="curve" smooth="yes"/>
      <point x="500" y="1000"/>
      <point x="452" y="1015"/>
      <point x="413" y="1015" type="curve" smooth="yes"/>
      <point x="273" y="1015"/>
      <point x="127" y="811"/>
      <point x="60" y="718" type="curve"/>
      <point x="93" y="702" type="line"/>
      <point x="231" y="887"/>
      <point x="323" y="978"/>
      <point x="413" y="978" type="curve" smooth="yes"/>
      <point x="439" y="978"/>
      <point x="462" y="972"/>
      <point x="462" y="950" type="curve" smooth="yes"/>
      <point x="462" y="941"/>
      <point x="461" y="930"/>
      <point x="452" y="901" type="curve" smooth="yes"/>
      <point x="268" y="302" type="line" smooth="yes"/>
      <point x="252" y="250"/>
      <point x="243" y="205"/>
      <point x="243" y="153" type="curve" smooth="yes"/>
      <point x="243" y="57"/>
      <point x="297" y="-15"/>
      <point x="396" y="-15" type="curve" smooth="yes"/>
      <point x="705" y="-15"/>
      <point x="1105" y="556"/>
      <point x="1105" y="879" type="curve" smooth="yes"/>
      <point x="1105" y="958"/>
      <point x="1064" y="1015"/>
    </contour>
  </outline>
</glyph>
<glyph name="w" format="1">
  <advance width="1759"/>
  <unicode hex="0077"/>
  <outline>
    <contour>
      <point x="396" y="-15" type="curve" smooth="yes"/>
      <point x="539" y="-15"/>
      <point x="694" y="146"/>
      <point x="858" y="446" type="curve"/>
      <point x="851" y="405"/>
      <point x="842" y="332"/>
      <point x="842" y="256" type="curve" smooth="yes"/>
      <point x="842" y="125"/>
      <point x="870" y="-15"/>
      <point x="1037" y="-15" type="curve" smooth="yes"/>
      <point x="1313" y="-15"/>
      <point x="1699" y="556"/>
      <point x="1699" y="879" type="curve" smooth="yes"/>
      <point x="1699" y="958"/>
      <point x="1658" y="1015"/>
      <point x="1586" y="1015" type="curve"/>
      <point x="1586" y="978" type="line"/>
      <point x="1639" y="975"/>
      <point x="1664" y="938"/>
      <point x="1664" y="877" type="curve" smooth="yes"/>
      <point x="1664" y="594"/>
      <point x="1313" y="22"/>
      <point x="1035" y="22" type="curve" smooth="yes"/>
      <point x="903" y="22"/>
      <point x="876" y="127"/>
      <point x="876" y="248" type="curve" smooth="yes"/>
      <point x="876" y="363"/>
      <point x="900" y="492"/>
      <point x="918" y="560" type="curve"/>
      <point x="1010" y="744"/>
      <point x="1095" y="914"/>
      <point x="1095" y="977" type="curve" smooth="yes"/>
      <point x="1095" y="991"/>
      <point x="1088" y="1001"/>
      <point x="1077" y="1001" type="curve" smooth="yes"/>
      <point x="1007" y="1001"/>
      <point x="945" y="813"/>
      <point x="883" y="573" type="curve"/>
      <point x="708" y="209"/>
      <point x="535" y="23"/>
      <point x="398" y="23" type="curve" smooth="yes"/>
      <point x="316" y="23"/>
      <point x="279" y="81"/>
      <point x="279" y="151" type="curve" smooth="yes"/>
      <point x="279" y="205"/>
      <point x="289" y="244"/>
      <point x="303" y="290" type="curve" smooth="yes"/>
      <point x="488" y="891" type="line" smooth="yes"/>
      <point x="498" y="925"/>
      <point x="500" y="940"/>
      <point x="500" y="951" type="curve" smooth="yes"/>
      <point x="500" y="1000"/>
      <point x="452" y="1015"/>
      <point x="413" y="1015" type="curve" smooth="yes"/>
      <point x="273" y="1015"/>
      <point x="127" y="811"/>
      <point x="60" y="718" type="curve"/>
      <point x="93" y="702" type="line"/>
      <point x="231" y="887"/>
      <point x="323" y="978"/>
      <point x="413" y="978" type="curve" smooth="yes"/>
      <point x="439" y="978"/>
      <point x="462" y="972"/>
      <point x="462" y="950" type="curve" smooth="yes"/>
      <point x="462" y="941"/>
      <point x="461" y="930"/>
      <point x="452" y="901" type="curve" smooth="yes"/>
      <point x="268" y="302" type="line" smooth="yes"/>
      <point x="252" y="250"/>
      <point x="243" y="205"/>
      <point x="243" y="153" type="curve" smooth="yes"/>
      <point x="243" y="57"/>
      <point x="297" y="-15"/>
    </contour>
  </outline>
</glyph>
<glyph name="x" format="1">
  <advance width="1204"/>
  <unicode hex="0078"/>
  <outline>
    <contour>
      <point x="1109" y="262" type="curve"/>
      <point x="1072" y="262" type="line"/>
      <point x="1053" y="129"/>
      <point x="973" y="22"/>
      <point x="911" y="22" type="curve" smooth="yes"/>
      <point x="882" y="22"/>
      <point x="855" y="51"/>
      <point x="829" y="115" type="curve" smooth="yes"/>
      <point x="664" y="518" type="line"/>
      <point x="1040" y="928" type="line" smooth="yes"/>
      <point x="1075" y="967"/>
      <point x="1091" y="973"/>
      <point x="1106" y="973" type="curve" smooth="yes"/>
      <point x="1121" y="973"/>
      <point x="1122" y="960"/>
      <point x="1122" y="955" type="curve" smooth="yes"/>
      <point x="1122" y="934"/>
      <point x="1113" y="882"/>
      <point x="1089" y="810" type="curve"/>
      <point x="1124" y="797" type="line"/>
      <point x="1146" y="862"/>
      <point x="1159" y="925"/>
      <point x="1159" y="960" type="curve" smooth="yes"/>
      <point x="1159" y="991"/>
      <point x="1145" y="1011"/>
      <point x="1112" y="1011" type="curve" smooth="yes"/>
      <point x="1080" y="1011"/>
      <point x="1054" y="998"/>
      <point x="1011" y="951" type="curve" smooth="yes"/>
      <point x="648" y="556" type="line"/>
      <point x="503" y="935" type="line" smooth="yes"/>
      <point x="488" y="975"/>
      <point x="460" y="1015"/>
      <point x="413" y="1015" type="curve" smooth="yes"/>
      <point x="299" y="1015"/>
      <point x="210" y="867"/>
      <point x="184" y="777" type="curve"/>
      <point x="219" y="766" type="line"/>
      <point x="220" y="767" type="line" smooth="yes"/>
      <point x="250" y="850"/>
      <point x="315" y="977"/>
      <point x="413" y="977" type="curve" smooth="yes"/>
      <point x="445" y="977"/>
      <point x="461" y="946"/>
      <point x="477" y="905" type="curve" smooth="yes"/>
      <point x="620" y="527" type="line"/>
      <point x="217" y="117" type="line" smooth="yes"/>
      <point x="139" y="37"/>
      <point x="107" y="22"/>
      <point x="86" y="22" type="curve" smooth="yes"/>
      <point x="74" y="22"/>
      <point x="66" y="31"/>
      <point x="66" y="52" type="curve" smooth="yes"/>
      <point x="66" y="72"/>
      <point x="84" y="120"/>
      <point x="155" y="240" type="curve"/>
      <point x="123" y="260" type="line"/>
      <point x="79" y="189"/>
      <point x="30" y="105"/>
      <point x="30" y="49" type="curve" smooth="yes"/>
      <point x="30" y="17"/>
      <point x="45" y="-15"/>
      <point x="86" y="-15" type="curve" smooth="yes"/>
      <point x="113" y="-15"/>
      <point x="167" y="12"/>
      <point x="250" y="97" type="curve" smooth="yes"/>
      <point x="636" y="489" type="line"/>
      <point x="795" y="99" type="line" smooth="yes"/>
      <point x="826" y="24"/>
      <point x="862" y="-15"/>
      <point x="911" y="-15" type="curve" smooth="yes"/>
      <point x="988" y="-15"/>
      <point x="1085" y="108"/>
    </contour>
  </outline>
</glyph>
<glyph name="y" format="1">
  <advance width="1028"/>
  <unicode hex="0079"/>
  <outline>
    <contour>
      <point x="532" y="-13" type="curve"/>
      <point x="567" y="758"/>
      <point x="548" y="1015"/>
      <point x="367" y="1015" type="curve" smooth="yes"/>
      <point x="211" y="1015"/>
      <point x="88" y="865"/>
      <point x="64" y="728" type="curve" smooth="yes"/>
      <point x="63" y="723" type="line"/>
      <point x="99" y="717" type="line"/>
      <point x="124" y="846"/>
      <point x="230" y="978"/>
      <point x="367" y="978" type="curve" smooth="yes"/>
      <point x="502" y="978"/>
      <point x="533" y="764"/>
      <point x="490" y="-81" type="curve"/>
      <point x="325" y="-338"/>
      <point x="64" y="-697"/>
      <point x="-265" y="-697" type="curve" smooth="yes"/>
      <point x="-301" y="-697"/>
      <point x="-386" y="-695"/>
      <point x="-386" y="-649" type="curve" smooth="yes"/>
      <point x="-386" y="-638"/>
      <point x="-381" y="-628"/>
      <point x="-380" y="-623" type="curve"/>
      <point x="-378" y="-620" type="line"/>
      <point x="-409" y="-601" type="line"/>
      <point x="-417" y="-619"/>
      <point x="-420" y="-634"/>
      <point x="-420" y="-648" type="curve" smooth="yes"/>
      <point x="-420" y="-717"/>
      <point x="-358" y="-734"/>
      <point x="-265" y="-734" type="curve" smooth="yes"/>
      <point x="131" y="-734"/>
      <point x="454" y="-247"/>
      <point x="655" y="130" type="curve" smooth="yes"/>
      <point x="811" y="423"/>
      <point x="928" y="704"/>
      <point x="1024" y="988" type="curve"/>
      <point x="989" y="1000" type="line"/>
      <point x="873" y="644"/>
      <point x="706" y="305"/>
    </contour>
  </outline>
</glyph>
<glyph name="z" format="1">
  <advance width="1176"/>
  <unicode hex="007A"/>
  <outline>
    <contour>
      <point x="1098" y="1041" type="line"/>
      <point x="1069" y="1012" type="line" smooth="yes"/>
      <point x="1019" y="963"/>
      <point x="921" y="938"/>
      <point x="858" y="938" type="curve" smooth="yes"/>
      <point x="714" y="938"/>
      <point x="586" y="1024"/>
      <point x="444" y="1024" type="curve" smooth="yes"/>
      <point x="289" y="1024"/>
      <point x="182" y="914"/>
      <point x="182" y="809" type="curve" smooth="yes"/>
      <point x="182" y="705"/>
      <point x="275" y="677"/>
      <point x="356" y="705" type="curve"/>
      <point x="344" y="740" type="line"/>
      <point x="279" y="721"/>
      <point x="218" y="731"/>
      <point x="218" y="809" type="curve" smooth="yes"/>
      <point x="218" y="912"/>
      <point x="330" y="986"/>
      <point x="435" y="986" type="curve" smooth="yes"/>
      <point x="585" y="986"/>
      <point x="717" y="902"/>
      <point x="861" y="902" type="curve" smooth="yes"/>
      <point x="904" y="902"/>
      <point x="943" y="914"/>
      <point x="977" y="925" type="curve"/>
      <point x="-5" y="-16" type="line"/>
      <point x="23" y="-39" type="line"/>
      <point x="145" y="77" type="line"/>
      <point x="190" y="104"/>
      <point x="235" y="118"/>
      <point x="280" y="118" type="curve" smooth="yes"/>
      <point x="451" y="118"/>
      <point x="611" y="-15"/>
      <point x="759" y="-15" type="curve" smooth="yes"/>
      <point x="901" y="-15"/>
      <point x="1051" y="79"/>
      <point x="1051" y="229" type="curve" smooth="yes"/>
      <point x="1051" y="297"/>
      <point x="1017" y="357"/>
      <point x="972" y="402" type="curve"/>
      <point x="946" y="377" type="line"/>
      <point x="991" y="332"/>
      <point x="1015" y="288"/>
      <point x="1015" y="228" type="curve" smooth="yes"/>
      <point x="1015" y="94"/>
      <point x="874" y="22"/>
      <point x="759" y="22" type="curve" smooth="yes"/>
      <point x="641" y="22"/>
      <point x="421" y="155"/>
      <point x="280" y="155" type="curve" smooth="yes"/>
      <point x="257" y="155"/>
      <point x="226" y="147"/>
      <point x="206" y="138" type="curve"/>
      <point x="1126" y="1017" type="line"/>
    </contour>
  </outline>
</glyph>
<glyph name="braceleft" format="1">
  <advance width="619"/>
  <unicode hex="007B"/>
  <outline>
    <contour>
      <point x="754" y="1559" type="curve" smooth="yes"/>
      <point x="702" y="1516"/>
      <point x="648" y="1457"/>
      <point x="591" y="1382" type="curve" smooth="yes"/>
      <point x="543" y="1320"/>
      <point x="499" y="1253"/>
      <point x="458" y="1182" type="curve" smooth="yes"/>
      <point x="418" y="1111"/>
      <point x="391" y="1053"/>
      <point x="377" y="1008" type="curve" smooth="yes"/>
      <point x="361" y="955"/>
      <point x="330" y="909"/>
      <point x="306" y="885" type="curve" smooth="yes"/>
      <point x="266" y="847"/>
      <point x="229" y="838"/>
      <point x="225" y="837" type="curve" smooth="yes"/>
      <point x="145" y="818" type="line"/>
      <point x="214" y="800" type="line"/>
      <point x="215" y="800" type="line"/>
      <point x="250" y="785"/>
      <point x="269" y="756"/>
      <point x="272" y="711" type="curve" smooth="yes"/>
      <point x="273" y="686"/>
      <point x="269" y="659"/>
      <point x="260" y="628" type="curve" smooth="yes"/>
      <point x="246" y="583"/>
      <point x="238" y="525"/>
      <point x="235" y="455" type="curve" smooth="yes"/>
      <point x="232" y="385"/>
      <point x="236" y="318"/>
      <point x="246" y="255" type="curve" smooth="yes"/>
      <point x="257" y="181"/>
      <point x="275" y="122"/>
      <point x="301" y="78" type="curve" smooth="yes"/>
      <point x="332" y="25"/>
      <point x="372" y="-1"/>
      <point x="422" y="-1" type="curve"/>
      <point x="433" y="37" type="line"/>
      <point x="361" y="37"/>
      <point x="308" y="122"/>
      <point x="285" y="270" type="curve"/>
      <point x="266" y="414"/>
      <point x="275" y="549"/>
      <point x="299" y="628" type="curve" smooth="yes"/>
      <point x="322" y="700"/>
      <point x="318" y="757"/>
      <point x="288" y="798" type="curve" smooth="yes"/>
      <point x="283" y="805"/>
      <point x="277" y="812"/>
      <point x="268" y="818" type="curve"/>
      <point x="284" y="827"/>
      <point x="295" y="834"/>
      <point x="300" y="839" type="curve"/>
      <point x="354" y="878"/>
      <point x="392" y="935"/>
      <point x="415" y="1008" type="curve" smooth="yes"/>
      <point x="427" y="1047"/>
      <point x="452" y="1100"/>
      <point x="490" y="1167" type="curve" smooth="yes"/>
      <point x="528" y="1235"/>
      <point x="571" y="1301"/>
      <point x="620" y="1366" type="curve" smooth="yes"/>
      <point x="733" y="1514"/>
      <point x="839" y="1599"/>
      <point x="911" y="1599" type="curve"/>
      <point x="922" y="1637" type="line"/>
      <point x="873" y="1637"/>
      <point x="817" y="1611"/>
    </contour>
  </outline>
</glyph>
<glyph name="bar" format="1">
  <advance width="427"/>
  <unicode hex="007C"/>
  <outline>
    <contour>
      <point x="279" y="-108" type="line"/>
      <point x="279" y="1779" type="line"/>
      <point x="316" y="1779" type="line"/>
      <point x="316" y="-108" type="line"/>
    </contour>
  </outline>
</glyph>
<glyph name="braceright" format="1">
  <advance width="674"/>
  <unicode hex="007D"/>
  <outline>
    <contour>
      <point x="24" y="80" type="curve" smooth="yes"/>
      <point x="76" y="123"/>
      <point x="130" y="182"/>
      <point x="187" y="257" type="curve" smooth="yes"/>
      <point x="235" y="320"/>
      <point x="279" y="386"/>
      <point x="319" y="456" type="curve" smooth="yes"/>
      <point x="360" y="527"/>
      <point x="387" y="585"/>
      <point x="401" y="630" type="curve" smooth="yes"/>
      <point x="417" y="683"/>
      <point x="448" y="729"/>
      <point x="472" y="752" type="curve" smooth="yes"/>
      <point x="484" y="764"/>
      <point x="497" y="774"/>
      <point x="510" y="782" type="curve" smooth="yes"/>
      <point x="537" y="798"/>
      <point x="546" y="801"/>
      <point x="553" y="802" type="curve" smooth="yes"/>
      <point x="632" y="820" type="line"/>
      <point x="564" y="838" type="line"/>
      <point x="563" y="838" type="line"/>
      <point x="528" y="852"/>
      <point x="508" y="881"/>
      <point x="505" y="926" type="curve" smooth="yes"/>
      <point x="504" y="951"/>
      <point x="508" y="979"/>
      <point x="517" y="1010" type="curve" smooth="yes"/>
      <point x="531" y="1055"/>
      <point x="539" y="1113"/>
      <point x="542" y="1183" type="curve" smooth="yes"/>
      <point x="545" y="1253"/>
      <point x="541" y="1320"/>
      <point x="531" y="1383" type="curve" smooth="yes"/>
      <point x="520" y="1458"/>
      <point x="502" y="1517"/>
      <point x="477" y="1560" type="curve" smooth="yes"/>
      <point x="446" y="1613"/>
      <point x="406" y="1639"/>
      <point x="356" y="1639" type="curve"/>
      <point x="344" y="1601" type="line"/>
      <point x="416" y="1601"/>
      <point x="470" y="1516"/>
      <point x="493" y="1368" type="curve"/>
      <point x="512" y="1224"/>
      <point x="503" y="1089"/>
      <point x="479" y="1010" type="curve" smooth="yes"/>
      <point x="457" y="939"/>
      <point x="461" y="882"/>
      <point x="490" y="841" type="curve" smooth="yes"/>
      <point x="496" y="832"/>
      <point x="503" y="825"/>
      <point x="510" y="820" type="curve"/>
      <point x="477" y="799" type="line"/>
      <point x="424" y="760"/>
      <point x="386" y="704"/>
      <point x="363" y="630" type="curve" smooth="yes"/>
      <point x="351" y="591"/>
      <point x="326" y="538"/>
      <point x="288" y="470" type="curve" smooth="yes"/>
      <point x="250" y="403"/>
      <point x="206" y="337"/>
      <point x="157" y="272" type="curve" smooth="yes"/>
      <point x="44" y="124"/>
      <point x="-61" y="39"/>
      <point x="-133" y="39" type="curve"/>
      <point x="-145" y="1" type="line"/>
      <point x="-96" y="1"/>
      <point x="-40" y="27"/>
    </contour>
  </outline>
</glyph>
<glyph name="questiondown" format="1">
  <advance width="1194"/>
  <unicode hex="00BF"/>
  <outline>
    <contour>
      <point x="471" y="0" type="curve" smooth="yes"/>
      <point x="654" y="0"/>
      <point x="805" y="48"/>
      <point x="924" y="143" type="curve" smooth="yes"/>
      <point x="980" y="188"/>
      <point x="1029" y="247"/>
      <point x="1054" y="290" type="curve" smooth="yes"/>
      <point x="1067" y="312"/>
      <point x="1079" y="333"/>
      <point x="1088" y="354" type="curve" smooth="yes"/>
      <point x="1107" y="397"/>
      <point x="1111" y="413"/>
      <point x="1112" y="420" type="curve" smooth="yes"/>
      <point x="1114" y="429" type="line"/>
      <point x="939" y="602" type="line"/>
      <point x="906" y="572" type="line"/>
      <point x="1070" y="409" type="line"/>
      <point x="1065" y="391"/>
      <point x="1057" y="372"/>
      <point x="1048" y="352" type="curve" smooth="yes"/>
      <point x="1039" y="332"/>
      <point x="1022" y="303"/>
      <point x="995" y="266" type="curve" smooth="yes"/>
      <point x="969" y="229"/>
      <point x="939" y="197"/>
      <point x="904" y="169" type="curve" smooth="yes"/>
      <point x="797" y="82"/>
      <point x="656" y="39"/>
      <point x="483" y="39" type="curve" smooth="yes"/>
      <point x="416" y="39"/>
      <point x="358" y="46"/>
      <point x="309" y="60" type="curve" smooth="yes"/>
      <point x="210" y="88"/>
      <point x="160" y="128"/>
      <point x="129" y="192" type="curve" smooth="yes"/>
      <point x="98" y="257"/>
      <point x="93" y="306"/>
      <point x="101" y="381" type="curve" smooth="yes"/>
      <point x="105" y="419"/>
      <point x="110" y="449"/>
      <point x="115" y="471" type="curve" smooth="yes"/>
      <point x="121" y="494"/>
      <point x="128" y="519"/>
      <point x="137" y="548" type="curve"/>
      <point x="230" y="577"/>
      <point x="327" y="625"/>
      <point x="428" y="691" type="curve" smooth="yes"/>
      <point x="523" y="754"/>
      <point x="604" y="825"/>
      <point x="671" y="903" type="curve" smooth="yes"/>
      <point x="756" y="1003"/>
      <point x="817" y="1113"/>
      <point x="854" y="1233" type="curve"/>
      <point x="816" y="1233" type="line"/>
      <point x="753" y="1028"/>
      <point x="619" y="857"/>
      <point x="414" y="722" type="curve" smooth="yes"/>
      <point x="369" y="692"/>
      <point x="321" y="665"/>
      <point x="272" y="641" type="curve" smooth="yes"/>
      <point x="175" y="594"/>
      <point x="127" y="580"/>
      <point x="122" y="580" type="curve"/>
      <point x="107" y="576" type="line"/>
      <point x="103" y="562" type="line" smooth="yes"/>
      <point x="59" y="421"/>
      <point x="47" y="310"/>
      <point x="68" y="227" type="curve" smooth="yes"/>
      <point x="105" y="76"/>
      <point x="240" y="0"/>
    </contour>
    <contour>
      <point x="982" y="1811" type="line"/>
      <point x="893" y="1501" type="line"/>
      <point x="931" y="1501" type="line"/>
      <point x="1021" y="1812" type="line"/>
    </contour>
  </outline>
</glyph>
<glyph name="Agrave" format="1">
  <advance width="1344"/>
  <unicode hex="00C0"/>
  <outline>
    <contour>
      <point x="541" y="2030" type="line" name="hr00"/>
      <point x="1180" y="1829" type="line"/>
      <point x="1191" y="1865" type="line"/>
      <point x="553" y="2066" type="line"/>
    </contour>
    <component base="A"/>
  </outline>
</glyph>
<glyph name="Aacute" format="1">
  <advance width="1427"/>
  <unicode hex="00C1"/>
  <outline>
    <contour>
      <point x="625" y="1857" type="line"/>
      <point x="636" y="1820" type="line"/>
      <point x="1274" y="2022" type="line"/>
      <point x="1263" y="2058" type="line"/>
    </contour>
    <component base="A"/>
  </outline>
</glyph>
<glyph name="Acircumflex" format="1">
  <advance width="1338"/>
  <unicode hex="00C2"/>
  <outline>
    <contour>
      <point x="639" y="1861" type="line"/>
      <point x="661" y="1831" type="line"/>
      <point x="898" y="2002" type="line"/>
      <point x="1158" y="1830" type="line"/>
      <point x="1179" y="1861" type="line"/>
      <point x="897" y="2048" type="line"/>
    </contour>
    <component base="A"/>
  </outline>
</glyph>
<glyph name="Adieresis" format="1">
  <advance width="1338"/>
  <unicode hex="00C4"/>
  <outline>
    <contour>
      <point x="1063" y="1977" type="line"/>
      <point x="1026" y="1986" type="line"/>
      <point x="991" y="1827" type="line"/>
      <point x="1028" y="1819" type="line"/>
    </contour>
    <contour>
      <point x="831" y="2026" type="line"/>
      <point x="794" y="2035" type="line"/>
      <point x="759" y="1876" type="line"/>
      <point x="796" y="1868" type="line"/>
    </contour>
    <component base="A"/>
  </outline>
</glyph>
<glyph name="Aring" format="1">
  <advance width="1338"/>
  <unicode hex="00C5"/>
  <outline>
    <contour>
      <point x="776" y="1953" type="curve" smooth="yes"/>
      <point x="776" y="1891"/>
      <point x="829" y="1841"/>
      <point x="888" y="1841" type="curve" smooth="yes"/>
      <point x="950" y="1841"/>
      <point x="999" y="1894"/>
      <point x="999" y="1953" type="curve" smooth="yes"/>
      <point x="999" y="2015"/>
      <point x="947" y="2064"/>
      <point x="888" y="2064" type="curve" smooth="yes"/>
      <point x="826" y="2064"/>
      <point x="776" y="2012"/>
    </contour>
    <contour>
      <point x="814" y="1953" type="curve" smooth="yes"/>
      <point x="814" y="1993"/>
      <point x="848" y="2026"/>
      <point x="888" y="2026" type="curve" smooth="yes"/>
      <point x="929" y="2026"/>
      <point x="961" y="1993"/>
      <point x="961" y="1953" type="curve" smooth="yes"/>
      <point x="961" y="1912"/>
      <point x="929" y="1879"/>
      <point x="888" y="1879" type="curve" smooth="yes"/>
      <point x="848" y="1879"/>
      <point x="814" y="1912"/>
    </contour>
    <component base="A"/>
  </outline>
</glyph>
<glyph name="AE" format="1">
  <advance width="2662"/>
  <unicode hex="00C6"/>
  <outline>
    <contour>
      <point x="2375" y="513" type="curve"/>
      <point x="2375" y="474" type="line"/>
      <point x="2439" y="473"/>
      <point x="2505" y="455"/>
      <point x="2505" y="384" type="curve" smooth="yes"/>
      <point x="2505" y="149"/>
      <point x="2241" y="24"/>
      <point x="1955" y="24" type="curve" smooth="yes"/>
      <point x="1599" y="24"/>
      <point x="1466" y="472"/>
      <point x="1363" y="814" type="curve"/>
      <point x="1398" y="833"/>
      <point x="1438" y="853"/>
      <point x="1535" y="897" type="curve"/>
      <point x="1606" y="840"/>
      <point x="1691" y="799"/>
      <point x="1779" y="799" type="curve" smooth="yes"/>
      <point x="1871" y="799"/>
      <point x="1938" y="857"/>
      <point x="1938" y="945" type="curve" smooth="yes"/>
      <point x="1938" y="1004"/>
      <point x="1880" y="1023"/>
      <point x="1833" y="1023" type="curve" smooth="yes"/>
      <point x="1767" y="1023"/>
      <point x="1670" y="996"/>
      <point x="1543" y="943" type="curve"/>
      <point x="1467" y="1012"/>
      <point x="1427" y="1099"/>
      <point x="1427" y="1190" type="curve" smooth="yes"/>
      <point x="1427" y="1435"/>
      <point x="1632" y="1591"/>
      <point x="1877" y="1591" type="curve" smooth="yes"/>
      <point x="2027" y="1591"/>
      <point x="2235" y="1515"/>
      <point x="2235" y="1352" type="curve" smooth="yes"/>
      <point x="2235" y="1298"/>
      <point x="2207" y="1244"/>
      <point x="2151" y="1191" type="curve"/>
      <point x="2179" y="1163" type="line"/>
      <point x="2243" y="1222"/>
      <point x="2276" y="1288"/>
      <point x="2276" y="1355" type="curve" smooth="yes"/>
      <point x="2276" y="1546"/>
      <point x="2035" y="1630"/>
      <point x="1877" y="1630" type="curve" smooth="yes"/>
      <point x="1610" y="1630"/>
      <point x="1385" y="1454"/>
      <point x="1385" y="1190" type="curve" smooth="yes"/>
      <point x="1385" y="1093"/>
      <point x="1424" y="1001"/>
      <point x="1501" y="926" type="curve"/>
      <point x="1429" y="892"/>
      <point x="1392" y="875"/>
      <point x="1352" y="854" type="curve"/>
      <point x="1294" y="1087"/>
      <point x="1253" y="1322"/>
      <point x="1227" y="1560" type="curve"/>
      <point x="1291" y="1687"/>
      <point x="1323" y="1761"/>
      <point x="1323" y="1805" type="curve" smooth="yes"/>
      <point x="1323" y="1871"/>
      <point x="1287" y="1899"/>
      <point x="1248" y="1899" type="curve" smooth="yes"/>
      <point x="1204" y="1899"/>
      <point x="1165" y="1855"/>
      <point x="1165" y="1792" type="curve" smooth="yes"/>
      <point x="1165" y="1750"/>
      <point x="1171" y="1675"/>
      <point x="1182" y="1567" type="curve"/>
      <point x="1060" y="1321"/>
      <point x="900" y="1085"/>
      <point x="747" y="861" type="curve"/>
      <point x="621" y="932"/>
      <point x="482" y="945"/>
      <point x="344" y="931" type="curve"/>
      <point x="347" y="893" type="line"/>
      <point x="484" y="903"/>
      <point x="604" y="895"/>
      <point x="725" y="829" type="curve"/>
      <point x="554" y="586"/>
      <point x="373" y="346"/>
      <point x="130" y="41" type="curve"/>
      <point x="51" y="41" type="line"/>
      <point x="51" y="0" type="line"/>
      <point x="326" y="0" type="line"/>
      <point x="326" y="41" type="line"/>
      <point x="181" y="41" type="line"/>
      <point x="400" y="308"/>
      <point x="570" y="540"/>
      <point x="760" y="808" type="curve"/>
      <point x="841" y="760"/>
      <point x="917" y="695"/>
      <point x="969" y="620" type="curve"/>
      <point x="909" y="570"/>
      <point x="821" y="504"/>
      <point x="840" y="455" type="curve" smooth="yes"/>
      <point x="848" y="434"/>
      <point x="872" y="423"/>
      <point x="912" y="423" type="curve" smooth="yes"/>
      <point x="972" y="423"/>
      <point x="1043" y="441"/>
      <point x="1052" y="507" type="curve" smooth="yes"/>
      <point x="1056" y="535"/>
      <point x="1047" y="569"/>
      <point x="1025" y="610" type="curve"/>
      <point x="1114" y="675"/>
      <point x="1214" y="737"/>
      <point x="1325" y="794" type="curve"/>
      <point x="1426" y="455"/>
      <point x="1569" y="-16"/>
      <point x="1955" y="-16" type="curve" smooth="yes"/>
      <point x="2199" y="-16"/>
      <point x="2547" y="91"/>
      <point x="2547" y="385" type="curve" smooth="yes"/>
      <point x="2547" y="481"/>
      <point x="2455" y="513"/>
    </contour>
    <contour>
      <point x="1833" y="984" type="curve" smooth="yes"/>
      <point x="1865" y="984"/>
      <point x="1896" y="974"/>
      <point x="1896" y="941" type="curve" smooth="yes"/>
      <point x="1896" y="872"/>
      <point x="1840" y="838"/>
      <point x="1778" y="838" type="curve" smooth="yes"/>
      <point x="1704" y="838"/>
      <point x="1632" y="873"/>
      <point x="1577" y="914" type="curve"/>
      <point x="1662" y="948"/>
      <point x="1750" y="984"/>
    </contour>
    <contour>
      <point x="1248" y="1860" type="curve" smooth="yes"/>
      <point x="1267" y="1860"/>
      <point x="1281" y="1842"/>
      <point x="1281" y="1806" type="curve" smooth="yes"/>
      <point x="1281" y="1770"/>
      <point x="1259" y="1708"/>
      <point x="1217" y="1623" type="curve"/>
      <point x="1208" y="1699"/>
      <point x="1205" y="1764"/>
      <point x="1205" y="1792" type="curve" smooth="yes"/>
      <point x="1205" y="1832"/>
      <point x="1227" y="1860"/>
    </contour>
    <contour>
      <point x="1010" y="511" type="curve" smooth="yes"/>
      <point x="1005" y="478"/>
      <point x="973" y="462"/>
      <point x="912" y="462" type="curve" smooth="yes"/>
      <point x="895" y="462"/>
      <point x="881" y="463"/>
      <point x="878" y="468" type="curve" smooth="yes"/>
      <point x="869" y="480"/>
      <point x="913" y="526"/>
      <point x="990" y="586" type="curve"/>
      <point x="1007" y="556"/>
      <point x="1013" y="531"/>
    </contour>
    <contour>
      <point x="1003" y="644" type="curve"/>
      <point x="940" y="724"/>
      <point x="868" y="791"/>
      <point x="782" y="840" type="curve"/>
      <point x="973" y="1119"/>
      <point x="1087" y="1303"/>
      <point x="1191" y="1494" type="curve"/>
      <point x="1217" y="1276"/>
      <point x="1257" y="1061"/>
      <point x="1314" y="835" type="curve"/>
      <point x="1195" y="771"/>
      <point x="1091" y="707"/>
    </contour>
  </outline>
</glyph>
<glyph name="Ccedilla" format="1">
  <advance width="1126"/>
  <unicode hex="00C7"/>
  <outline>
    <contour>
      <point x="228" y="-552" type="line"/>
      <point x="253" y="-581" type="line"/>
      <point x="451" y="-411" type="line"/>
      <point x="451" y="-136" type="line"/>
      <point x="413" y="-136" type="line"/>
      <point x="413" y="-393" type="line"/>
    </contour>
    <component base="C" xOffset="14"/>
  </outline>
</glyph>
<glyph name="Egrave" format="1">
  <advance width="1223"/>
  <unicode hex="00C8"/>
  <outline>
    <contour>
      <point x="320" y="1982" type="line"/>
      <point x="958" y="1781" type="line"/>
      <point x="969" y="1817" type="line"/>
      <point x="331" y="2018" type="line"/>
    </contour>
    <component base="E"/>
  </outline>
</glyph>
<glyph name="Eacute" format="1">
  <advance width="1223"/>
  <unicode hex="00C9"/>
  <outline>
    <contour>
      <point x="394" y="1820" type="line"/>
      <point x="405" y="1783" type="line"/>
      <point x="1043" y="1985" type="line"/>
      <point x="1032" y="2021" type="line"/>
    </contour>
    <component base="E"/>
  </outline>
</glyph>
<glyph name="Ecircumflex" format="1">
  <advance width="1223"/>
  <unicode hex="00CA"/>
  <outline>
    <contour>
      <point x="424" y="1822" type="line"/>
      <point x="446" y="1792" type="line"/>
      <point x="682" y="1963" type="line"/>
      <point x="943" y="1791" type="line"/>
      <point x="964" y="1822" type="line"/>
      <point x="681" y="2009" type="line"/>
    </contour>
    <component base="E"/>
  </outline>
</glyph>
<glyph name="Edieresis" format="1">
  <advance width="1223"/>
  <unicode hex="00CB"/>
  <outline>
    <contour>
      <point x="549" y="1788" type="line"/>
      <point x="587" y="1788" type="line"/>
      <point x="587" y="1950" type="line"/>
      <point x="549" y="1950" type="line"/>
    </contour>
    <contour>
      <point x="785" y="1788" type="line"/>
      <point x="823" y="1788" type="line"/>
      <point x="823" y="1950" type="line"/>
      <point x="785" y="1950" type="line"/>
    </contour>
    <component base="E"/>
  </outline>
</glyph>
<glyph name="Igrave" format="1">
  <advance width="574"/>
  <unicode hex="00CC"/>
  <outline>
    <contour>
      <point x="-51" y="1982" type="line"/>
      <point x="588" y="1781" type="line"/>
      <point x="599" y="1817" type="line"/>
      <point x="-39" y="2018" type="line"/>
    </contour>
    <component base="I"/>
  </outline>
</glyph>
<glyph name="Iacute" format="1">
  <advance width="574"/>
  <unicode hex="00CD"/>
  <outline>
    <contour>
      <point x="424" y="1817" type="line"/>
      <point x="435" y="1780" type="line"/>
      <point x="1073" y="1982" type="line"/>
      <point x="1062" y="2018" type="line"/>
    </contour>
    <component base="I"/>
  </outline>
</glyph>
<glyph name="Icircumflex" format="1">
  <advance width="574"/>
  <unicode hex="00CE"/>
  <outline>
    <contour>
      <point x="318" y="1822" type="line"/>
      <point x="340" y="1792" type="line"/>
      <point x="577" y="1963" type="line"/>
      <point x="837" y="1791" type="line"/>
      <point x="858" y="1822" type="line"/>
      <point x="576" y="2009" type="line"/>
    </contour>
    <component base="I"/>
  </outline>
</glyph>
<glyph name="Idieresis" format="1">
  <advance width="574"/>
  <unicode hex="00CF"/>
  <outline>
    <contour>
      <point x="393" y="1788" type="line"/>
      <point x="431" y="1788" type="line"/>
      <point x="431" y="1950" type="line"/>
      <point x="393" y="1950" type="line"/>
    </contour>
    <contour>
      <point x="629" y="1788" type="line"/>
      <point x="667" y="1788" type="line"/>
      <point x="667" y="1950" type="line"/>
      <point x="629" y="1950" type="line"/>
    </contour>
    <component base="I"/>
  </outline>
</glyph>
<glyph name="Ograve" format="1">
  <advance width="1352"/>
  <unicode hex="00D2"/>
  <outline>
    <contour>
      <point x="478" y="1990" type="line"/>
      <point x="1117" y="1789" type="line"/>
      <point x="1128" y="1825" type="line"/>
      <point x="490" y="2026" type="line"/>
    </contour>
    <component base="O"/>
  </outline>
</glyph>
<glyph name="Oacute" format="1">
  <advance width="1352"/>
  <unicode hex="00D3"/>
  <outline>
    <contour>
      <point x="865" y="1817" type="line"/>
      <point x="876" y="1780" type="line"/>
      <point x="1514" y="1982" type="line"/>
      <point x="1503" y="2018" type="line"/>
    </contour>
    <component base="O"/>
  </outline>
</glyph>
<glyph name="Ocircumflex" format="1">
  <advance width="1352"/>
  <unicode hex="00D4"/>
  <outline>
    <contour>
      <point x="748" y="1822" type="line"/>
      <point x="770" y="1792" type="line"/>
      <point x="1007" y="1963" type="line"/>
      <point x="1267" y="1791" type="line"/>
      <point x="1288" y="1822" type="line"/>
      <point x="1006" y="2009" type="line"/>
    </contour>
    <component base="O"/>
  </outline>
</glyph>
<glyph name="Odieresis" format="1">
  <advance width="1352"/>
  <unicode hex="00D6"/>
  <outline>
    <contour>
      <point x="823" y="1788" type="line"/>
      <point x="861" y="1788" type="line"/>
      <point x="861" y="1950" type="line"/>
      <point x="823" y="1950" type="line"/>
    </contour>
    <contour>
      <point x="1059" y="1788" type="line"/>
      <point x="1097" y="1788" type="line"/>
      <point x="1097" y="1950" type="line"/>
      <point x="1059" y="1950" type="line"/>
    </contour>
    <component base="O"/>
  </outline>
</glyph>
<glyph name="Ugrave" format="1">
  <advance width="1469"/>
  <unicode hex="00D9"/>
  <outline>
    <contour>
      <point x="660" y="1982" type="line"/>
      <point x="1298" y="1781" type="line"/>
      <point x="1309" y="1817" type="line"/>
      <point x="671" y="2018" type="line"/>
    </contour>
    <component base="U"/>
  </outline>
</glyph>
<glyph name="Uacute" format="1">
  <advance width="1469"/>
  <unicode hex="00DA"/>
  <outline>
    <contour>
      <point x="719" y="1815" type="line"/>
      <point x="730" y="1778" type="line"/>
      <point x="1368" y="1980" type="line"/>
      <point x="1357" y="2016" type="line"/>
    </contour>
    <component base="U"/>
  </outline>
</glyph>
<glyph name="Ucircumflex" format="1">
  <advance width="1469"/>
  <unicode hex="00DB"/>
  <outline>
    <contour>
      <point x="726" y="1822" type="line"/>
      <point x="748" y="1792" type="line"/>
      <point x="984" y="1963" type="line"/>
      <point x="1245" y="1791" type="line"/>
      <point x="1266" y="1822" type="line"/>
      <point x="983" y="2009" type="line"/>
    </contour>
    <component base="U"/>
  </outline>
</glyph>
<glyph name="Udieresis" format="1">
  <advance width="1469"/>
  <unicode hex="00DC"/>
  <outline>
    <contour>
      <point x="843" y="1788" type="line"/>
      <point x="881" y="1788" type="line"/>
      <point x="881" y="1950" type="line"/>
      <point x="843" y="1950" type="line"/>
    </contour>
    <contour>
      <point x="1079" y="1788" type="line"/>
      <point x="1117" y="1788" type="line"/>
      <point x="1117" y="1950" type="line"/>
      <point x="1079" y="1950" type="line"/>
    </contour>
    <component base="U"/>
  </outline>
</glyph>
<glyph name="Yacute" format="1">
  <advance width="1203"/>
  <unicode hex="00DD"/>
  <outline>
    <contour>
      <point x="562" y="1817" type="line"/>
      <point x="573" y="1780" type="line"/>
      <point x="1211" y="1982" type="line"/>
      <point x="1200" y="2018" type="line"/>
    </contour>
    <component base="Y"/>
  </outline>
</glyph>
<glyph name="agrave" format="1">
  <advance width="1002"/>
  <unicode hex="00E0"/>
  <outline>
    <contour>
      <point x="303" y="1299" type="line"/>
      <point x="942" y="1097" type="line"/>
      <point x="953" y="1134" type="line"/>
      <point x="315" y="1335" type="line"/>
    </contour>
    <component base="a"/>
  </outline>
</glyph>
<glyph name="aacute" format="1">
  <advance width="1002"/>
  <unicode hex="00E1"/>
  <outline>
    <contour>
      <point x="273" y="1123" type="line"/>
      <point x="284" y="1087" type="line"/>
      <point x="923" y="1288" type="line"/>
      <point x="911" y="1324" type="line"/>
    </contour>
    <component base="a"/>
  </outline>
</glyph>
<glyph name="acircumflex" format="1">
  <advance width="1002"/>
  <unicode hex="00E2"/>
  <outline>
    <contour>
      <point x="384" y="1129" type="line"/>
      <point x="406" y="1098" type="line"/>
      <point x="642" y="1270" type="line"/>
      <point x="903" y="1097" type="line"/>
      <point x="923" y="1129" type="line"/>
      <point x="641" y="1316" type="line"/>
    </contour>
    <component base="a"/>
  </outline>
</glyph>
<glyph name="adieresis" format="1">
  <advance width="1002"/>
  <unicode hex="00E4"/>
  <outline>
    <contour>
      <point x="504" y="1088" type="line"/>
      <point x="542" y="1088" type="line"/>
      <point x="542" y="1250" type="line"/>
      <point x="504" y="1250" type="line"/>
    </contour>
    <contour>
      <point x="740" y="1088" type="line"/>
      <point x="778" y="1088" type="line"/>
      <point x="778" y="1250" type="line"/>
      <point x="740" y="1250" type="line"/>
    </contour>
    <component base="a"/>
  </outline>
</glyph>
<glyph name="aring" format="1">
  <advance width="1002"/>
  <unicode hex="00E5"/>
  <outline>
    <contour>
      <point x="529" y="1200" type="curve" smooth="yes"/>
      <point x="529" y="1138"/>
      <point x="582" y="1088"/>
      <point x="641" y="1088" type="curve" smooth="yes"/>
      <point x="703" y="1088"/>
      <point x="752" y="1141"/>
      <point x="752" y="1200" type="curve" smooth="yes"/>
      <point x="752" y="1262"/>
      <point x="700" y="1311"/>
      <point x="641" y="1311" type="curve" smooth="yes"/>
      <point x="579" y="1311"/>
      <point x="529" y="1259"/>
    </contour>
    <contour>
      <point x="567" y="1200" type="curve" smooth="yes"/>
      <point x="567" y="1240"/>
      <point x="601" y="1273"/>
      <point x="641" y="1273" type="curve" smooth="yes"/>
      <point x="682" y="1273"/>
      <point x="714" y="1240"/>
      <point x="714" y="1200" type="curve" smooth="yes"/>
      <point x="714" y="1159"/>
      <point x="682" y="1126"/>
      <point x="641" y="1126" type="curve" smooth="yes"/>
      <point x="601" y="1126"/>
      <point x="567" y="1159"/>
    </contour>
    <component base="a"/>
  </outline>
</glyph>
<glyph name="ae" format="1">
  <advance width="1560"/>
  <unicode hex="00E6"/>
  <outline>
    <contour>
      <point x="1414" y="206" type="line"/>
      <point x="1302" y="95"/>
      <point x="1165" y="21"/>
      <point x="1015" y="21" type="curve" smooth="yes"/>
      <point x="831" y="21"/>
      <point x="709" y="183"/>
      <point x="709" y="347" type="curve" smooth="yes"/>
      <point x="709" y="670"/>
      <point x="1017" y="978"/>
      <point x="1319" y="978" type="curve" smooth="yes"/>
      <point x="1417" y="978"/>
      <point x="1539" y="930"/>
      <point x="1539" y="823" type="curve" smooth="yes"/>
      <point x="1539" y="636"/>
      <point x="1229" y="595"/>
      <point x="871" y="543" type="curve"/>
      <point x="875" y="506" type="line"/>
      <point x="1251" y="555"/>
      <point x="1576" y="614"/>
      <point x="1576" y="823" type="curve" smooth="yes"/>
      <point x="1576" y="960"/>
      <point x="1426" y="1015"/>
      <point x="1324" y="1015" type="curve" smooth="yes"/>
      <point x="1077" y="1015"/>
      <point x="848" y="838"/>
      <point x="737" y="614" type="curve" smooth="yes"/>
      <point x="605" y="349"/>
      <point x="416" y="22"/>
      <point x="232" y="22" type="curve" smooth="yes"/>
      <point x="104" y="22"/>
      <point x="96" y="121"/>
      <point x="96" y="225" type="curve" smooth="yes"/>
      <point x="96" y="506"/>
      <point x="296" y="978"/>
      <point x="635" y="978" type="curve" smooth="yes"/>
      <point x="741" y="978"/>
      <point x="793" y="916"/>
      <point x="806" y="899" type="curve"/>
      <point x="840" y="917" type="line"/>
      <point x="791" y="982"/>
      <point x="722" y="1015"/>
      <point x="635" y="1015" type="curve" smooth="yes"/>
      <point x="269" y="1015"/>
      <point x="60" y="521"/>
      <point x="60" y="225" type="curve" smooth="yes"/>
      <point x="60" y="89"/>
      <point x="85" y="-15"/>
      <point x="232" y="-15" type="curve" smooth="yes"/>
      <point x="367" y="-15"/>
      <point x="516" y="138"/>
      <point x="679" y="427" type="curve"/>
      <point x="675" y="400"/>
      <point x="673" y="373"/>
      <point x="673" y="346" type="curve" smooth="yes"/>
      <point x="673" y="138"/>
      <point x="831" y="-15"/>
      <point x="1018" y="-15" type="curve" smooth="yes"/>
      <point x="1183" y="-15"/>
      <point x="1330" y="70"/>
      <point x="1440" y="180" type="curve"/>
    </contour>
  </outline>
</glyph>
<glyph name="ccedilla" format="1">
  <advance width="864"/>
  <unicode hex="00E7"/>
  <outline>
    <contour>
      <point x="88" y="-552" type="line"/>
      <point x="113" y="-581" type="line"/>
      <point x="311" y="-411" type="line"/>
      <point x="311" y="-136" type="line"/>
      <point x="273" y="-136" type="line"/>
      <point x="273" y="-393" type="line"/>
    </contour>
    <component base="c"/>
  </outline>
</glyph>
<glyph name="egrave" format="1">
  <advance width="973"/>
  <unicode hex="00E8"/>
  <outline>
    <contour>
      <point x="232" y="1289" type="line"/>
      <point x="870" y="1087" type="line"/>
      <point x="882" y="1124" type="line"/>
      <point x="244" y="1325" type="line"/>
    </contour>
    <component base="e"/>
  </outline>
</glyph>
<glyph name="eacute" format="1">
  <advance width="973"/>
  <unicode hex="00E9"/>
  <outline>
    <contour>
      <point x="491" y="1123" type="line"/>
      <point x="502" y="1087" type="line"/>
      <point x="1140" y="1288" type="line"/>
      <point x="1129" y="1324" type="line"/>
    </contour>
    <component base="e"/>
  </outline>
</glyph>
<glyph name="ecircumflex" format="1">
  <advance width="973"/>
  <unicode hex="00EA"/>
  <outline>
    <contour>
      <point x="424" y="1129" type="line"/>
      <point x="446" y="1098" type="line"/>
      <point x="683" y="1270" type="line"/>
      <point x="943" y="1097" type="line"/>
      <point x="964" y="1129" type="line"/>
      <point x="681" y="1316" type="line"/>
    </contour>
    <component base="e"/>
  </outline>
</glyph>
<glyph name="edieresis" format="1">
  <advance width="973"/>
  <unicode hex="00EB"/>
  <outline>
    <contour>
      <point x="577" y="1088" type="line"/>
      <point x="615" y="1088" type="line"/>
      <point x="615" y="1250" type="line"/>
      <point x="577" y="1250" type="line"/>
    </contour>
    <contour>
      <point x="813" y="1088" type="line"/>
      <point x="851" y="1088" type="line"/>
      <point x="851" y="1250" type="line"/>
      <point x="813" y="1250" type="line"/>
    </contour>
    <component base="e"/>
  </outline>
</glyph>
<glyph name="igrave" format="1">
  <advance width="531"/>
  <unicode hex="00EC"/>
  <outline>
    <contour>
      <point x="107" y="1289" type="line"/>
      <point x="447" y="1087" type="line"/>
      <point x="458" y="1124" type="line"/>
      <point x="119" y="1325" type="line"/>
    </contour>
    <component base="dotlessi" xOffset="12"/>
  </outline>
</glyph>
<glyph name="iacute" format="1">
  <advance width="531"/>
  <unicode hex="00ED"/>
  <outline>
    <contour>
      <point x="101" y="1123" type="line"/>
      <point x="112" y="1087" type="line"/>
      <point x="440" y="1288" type="line"/>
      <point x="429" y="1324" type="line"/>
    </contour>
    <component base="dotlessi" xOffset="12"/>
  </outline>
</glyph>
<glyph name="icircumflex" format="1">
  <advance width="531"/>
  <unicode hex="00EE"/>
  <outline>
    <contour>
      <point x="48" y="1129" type="line"/>
      <point x="70" y="1098" type="line"/>
      <point x="307" y="1270" type="line"/>
      <point x="567" y="1097" type="line"/>
      <point x="588" y="1129" type="line"/>
      <point x="306" y="1316" type="line"/>
    </contour>
    <component base="dotlessi" xOffset="12"/>
  </outline>
</glyph>
<glyph name="idieresis" format="1">
  <advance width="531"/>
  <unicode hex="00EF"/>
  <outline>
    <contour>
      <point x="149" y="1085" type="line"/>
      <point x="187" y="1085" type="line"/>
      <point x="189" y="1247" type="line"/>
      <point x="151" y="1247" type="line"/>
    </contour>
    <contour>
      <point x="386" y="1085" type="line"/>
      <point x="424" y="1085" type="line"/>
      <point x="425" y="1247" type="line"/>
      <point x="387" y="1247" type="line"/>
    </contour>
    <component base="dotlessi" xOffset="12"/>
  </outline>
</glyph>
<glyph name="ograve" format="1">
  <advance width="984"/>
  <unicode hex="00F2"/>
  <outline>
    <contour>
      <point x="172" y="1289" type="line"/>
      <point x="811" y="1087" type="line"/>
      <point x="822" y="1124" type="line"/>
      <point x="184" y="1325" type="line"/>
    </contour>
    <component base="o"/>
  </outline>
</glyph>
<glyph name="oacute" format="1">
  <advance width="984"/>
  <unicode hex="00F3"/>
  <outline>
    <contour>
      <point x="350" y="1133" type="line"/>
      <point x="361" y="1097" type="line"/>
      <point x="999" y="1298" type="line"/>
      <point x="988" y="1334" type="line"/>
    </contour>
    <component base="o"/>
  </outline>
</glyph>
<glyph name="ocircumflex" format="1">
  <advance width="984"/>
  <unicode hex="00F4"/>
  <outline>
    <contour>
      <point x="394" y="1129" type="line"/>
      <point x="416" y="1098" type="line"/>
      <point x="653" y="1270" type="line"/>
      <point x="913" y="1097" type="line"/>
      <point x="934" y="1129" type="line"/>
      <point x="651" y="1316" type="line"/>
    </contour>
    <component base="o"/>
  </outline>
</glyph>
<glyph name="odieresis" format="1">
  <advance width="984"/>
  <unicode hex="00F6"/>
  <outline>
    <contour>
      <point x="506" y="1085" type="line"/>
      <point x="544" y="1085" type="line"/>
      <point x="545" y="1247" type="line"/>
      <point x="508" y="1247" type="line"/>
    </contour>
    <contour>
      <point x="743" y="1085" type="line"/>
      <point x="780" y="1085" type="line"/>
      <point x="782" y="1247" type="line"/>
      <point x="744" y="1247" type="line"/>
    </contour>
    <component base="o"/>
  </outline>
</glyph>
<glyph name="ugrave" format="1">
  <advance width="1271"/>
  <unicode hex="00F9"/>
  <outline>
    <contour>
      <point x="377" y="1289" type="line"/>
      <point x="1016" y="1087" type="line"/>
      <point x="1027" y="1124" type="line"/>
      <point x="389" y="1325" type="line"/>
    </contour>
    <component base="u"/>
  </outline>
</glyph>
<glyph name="uacute" format="1">
  <advance width="1271"/>
  <unicode hex="00FA"/>
  <outline>
    <contour>
      <point x="508" y="1123" type="line"/>
      <point x="519" y="1087" type="line"/>
      <point x="1157" y="1288" type="line"/>
      <point x="1146" y="1324" type="line"/>
    </contour>
    <component base="u"/>
  </outline>
</glyph>
<glyph name="ucircumflex" format="1">
  <advance width="1271"/>
  <unicode hex="00FB"/>
  <outline>
    <contour>
      <point x="533" y="1129" type="line"/>
      <point x="555" y="1098" type="line"/>
      <point x="791" y="1270" type="line"/>
      <point x="1052" y="1097" type="line"/>
      <point x="1072" y="1129" type="line"/>
      <point x="790" y="1316" type="line"/>
    </contour>
    <component base="u"/>
  </outline>
</glyph>
<glyph name="udieresis" format="1">
  <advance width="1271"/>
  <unicode hex="00FC"/>
  <outline>
    <contour>
      <point x="651" y="1085" type="line"/>
      <point x="689" y="1085" type="line"/>
      <point x="691" y="1247" type="line"/>
      <point x="653" y="1247" type="line"/>
    </contour>
    <contour>
      <point x="888" y="1085" type="line"/>
      <point x="926" y="1085" type="line"/>
      <point x="927" y="1247" type="line"/>
      <point x="889" y="1247" type="line"/>
    </contour>
    <component base="u"/>
  </outline>
</glyph>
<glyph name="yacute" format="1">
  <advance width="1028"/>
  <unicode hex="00FD"/>
  <outline>
    <contour>
      <point x="514" y="1123" type="line"/>
      <point x="525" y="1087" type="line"/>
      <point x="1163" y="1288" type="line"/>
      <point x="1152" y="1324" type="line"/>
    </contour>
    <component base="y"/>
  </outline>
</glyph>
<glyph name="ydieresis" format="1">
  <advance width="1028"/>
  <unicode hex="00FF"/>
  <outline>
    <contour>
      <point x="561" y="1085" type="line"/>
      <point x="599" y="1085" type="line"/>
      <point x="601" y="1247" type="line"/>
      <point x="563" y="1247" type="line"/>
    </contour>
    <contour>
      <point x="798" y="1085" type="line"/>
      <point x="836" y="1085" type="line"/>
      <point x="837" y="1247" type="line"/>
      <point x="799" y="1247" type="line"/>
    </contour>
    <component base="y"/>
  </outline>
</glyph>
<glyph name="dotlessi" format="1">
  <advance width="422"/>
  <unicode hex="0131"/>
  <outline>
    <contour>
      <point x="418" y="178" type="line"/>
      <point x="348" y="120"/>
      <point x="231" y="22"/>
      <point x="150" y="22" type="curve" smooth="yes"/>
      <point x="117" y="22"/>
      <point x="107" y="44"/>
      <point x="107" y="69" type="curve" smooth="yes"/>
      <point x="107" y="87"/>
      <point x="112" y="107"/>
      <point x="117" y="122" type="curve" smooth="yes"/>
      <point x="368" y="927" type="line" smooth="yes"/>
      <point x="383" y="976"/>
      <point x="353" y="1015"/>
      <point x="305" y="1015" type="curve" smooth="yes"/>
      <point x="263" y="1015"/>
      <point x="208" y="988"/>
      <point x="139" y="933" type="curve"/>
      <point x="162" y="904" type="line"/>
      <point x="203" y="935"/>
      <point x="255" y="978"/>
      <point x="305" y="978" type="curve" smooth="yes"/>
      <point x="333" y="978"/>
      <point x="340" y="960"/>
      <point x="333" y="937" type="curve" smooth="yes"/>
      <point x="83" y="134" type="line" smooth="yes"/>
      <point x="76" y="111"/>
      <point x="70" y="86"/>
      <point x="70" y="62" type="curve" smooth="yes"/>
      <point x="70" y="7"/>
      <point x="108" y="-15"/>
      <point x="150" y="-15" type="curve" smooth="yes"/>
      <point x="242" y="-15"/>
      <point x="378" y="98"/>
      <point x="442" y="151" type="curve"/>
    </contour>
  </outline>
</glyph>
<glyph name="OE" format="1">
  <advance width="1877"/>
  <unicode hex="0152"/>
  <outline>
    <contour>
      <point x="-4062" y="497" type="curve"/>
      <point x="-4062" y="458" type="line"/>
      <point x="-4006" y="458"/>
      <point x="-3968" y="446"/>
      <point x="-3949" y="422" type="curve" smooth="yes"/>
      <point x="-3931" y="399"/>
      <point x="-3928" y="365"/>
      <point x="-3940" y="320" type="curve" smooth="yes"/>
      <point x="-3997" y="116"/>
      <point x="-4181" y="8"/>
      <point x="-4473" y="8" type="curve" smooth="yes"/>
      <point x="-4549" y="8"/>
      <point x="-4620" y="15"/>
      <point x="-4712" y="35" type="curve" smooth="yes"/>
      <point x="-4805" y="56"/>
      <point x="-4892" y="103"/>
      <point x="-4947" y="168" type="curve" smooth="yes"/>
      <point x="-5015" y="250"/>
      <point x="-5031" y="360"/>
      <point x="-4995" y="497" type="curve"/>
      <point x="-4995" y="498" type="line"/>
      <point x="-4960" y="678"/>
      <point x="-4867" y="811"/>
      <point x="-4717" y="898" type="curve"/>
      <point x="-4682" y="916" type="line"/>
      <point x="-4667" y="902" type="line"/>
      <point x="-4618" y="861"/>
      <point x="-4564" y="831"/>
      <point x="-4505" y="814" type="curve" smooth="yes"/>
      <point x="-4447" y="797"/>
      <point x="-4396" y="795"/>
      <point x="-4353" y="808" type="curve"/>
      <point x="-4301" y="826"/>
      <point x="-4269" y="862"/>
      <point x="-4258" y="915" type="curve" smooth="yes"/>
      <point x="-4250" y="954"/>
      <point x="-4284" y="993"/>
      <point x="-4367" y="1008" type="curve"/>
      <point x="-4464" y="1024"/>
      <point x="-4566" y="1009"/>
      <point x="-4673" y="963" type="curve"/>
      <point x="-4756" y="1051"/>
      <point x="-4785" y="1152"/>
      <point x="-4759" y="1266" type="curve" smooth="yes"/>
      <point x="-4739" y="1354"/>
      <point x="-4695" y="1433"/>
      <point x="-4624" y="1501" type="curve" smooth="yes"/>
      <point x="-4553" y="1569"/>
      <point x="-4445" y="1612"/>
      <point x="-4317" y="1612" type="curve" smooth="yes"/>
      <point x="-4243" y="1612"/>
      <point x="-4173" y="1594"/>
      <point x="-4107" y="1558" type="curve" smooth="yes"/>
      <point x="-4042" y="1522"/>
      <point x="-3998" y="1477"/>
      <point x="-3975" y="1423" type="curve" smooth="yes"/>
      <point x="-3940" y="1344"/>
      <point x="-3963" y="1266"/>
      <point x="-4044" y="1191" type="curve"/>
      <point x="-4015" y="1163" type="line"/>
      <point x="-3923" y="1247"/>
      <point x="-3896" y="1347"/>
      <point x="-3936" y="1439" type="curve" smooth="yes"/>
      <point x="-3962" y="1500"/>
      <point x="-4011" y="1550"/>
      <point x="-4084" y="1590" type="curve" smooth="yes"/>
      <point x="-4157" y="1631"/>
      <point x="-4234" y="1651"/>
      <point x="-4317" y="1651" type="curve" smooth="yes"/>
      <point x="-4444" y="1651"/>
      <point x="-4552" y="1613"/>
      <point x="-4641" y="1538" type="curve" smooth="yes"/>
      <point x="-4721" y="1471"/>
      <point x="-4774" y="1383"/>
      <point x="-4799" y="1275" type="curve" smooth="yes"/>
      <point x="-4828" y="1152"/>
      <point x="-4798" y="1043"/>
      <point x="-4711" y="946" type="curve"/>
      <point x="-4741" y="931" type="line"/>
      <point x="-4801" y="896"/>
      <point x="-4854" y="854"/>
      <point x="-4910" y="786" type="curve"/>
      <point x="-4967" y="719"/>
      <point x="-5014" y="621"/>
      <point x="-5037" y="506" type="curve"/>
      <point x="-5075" y="356"/>
      <point x="-5056" y="235"/>
      <point x="-4979" y="143" type="curve" smooth="yes"/>
      <point x="-4919" y="71"/>
      <point x="-4826" y="21"/>
      <point x="-4727" y="-2" type="curve" smooth="yes"/>
      <point x="-4628" y="-25"/>
      <point x="-4553" y="-32"/>
      <point x="-4473" y="-32" type="curve" smooth="yes"/>
      <point x="-4318" y="-32"/>
      <point x="-4191" y="-3"/>
      <point x="-4094" y="54" type="curve" smooth="yes"/>
      <point x="-3996" y="113"/>
      <point x="-3931" y="198"/>
      <point x="-3900" y="309" type="curve" smooth="yes"/>
      <point x="-3884" y="366"/>
      <point x="-3890" y="411"/>
      <point x="-3917" y="446" type="curve" smooth="yes"/>
      <point x="-3944" y="480"/>
      <point x="-3993" y="497"/>
    </contour>
    <contour>
      <point x="-4375" y="968" type="curve" smooth="yes"/>
      <point x="-4331" y="960"/>
      <point x="-4296" y="942"/>
      <point x="-4301" y="922" type="curve" smooth="yes"/>
      <point x="-4309" y="883"/>
      <point x="-4331" y="858"/>
      <point x="-4367" y="846" type="curve" smooth="yes"/>
      <point x="-4403" y="835"/>
      <point x="-4446" y="837"/>
      <point x="-4497" y="852" type="curve" smooth="yes"/>
      <point x="-4548" y="868"/>
      <point x="-4596" y="894"/>
      <point x="-4639" y="931" type="curve"/>
      <point x="-4639" y="932"/>
      <point x="-4641" y="932"/>
      <point x="-4642" y="933" type="curve"/>
      <point x="-4546" y="970"/>
      <point x="-4457" y="982"/>
    </contour>
    <contour>
      <point x="-5444" y="6" type="curve" smooth="yes"/>
      <point x="-5568" y="6"/>
      <point x="-5666" y="52"/>
      <point x="-5738" y="145" type="curve" smooth="yes"/>
      <point x="-5798" y="222"/>
      <point x="-5833" y="319"/>
      <point x="-5842" y="437" type="curve" smooth="yes"/>
      <point x="-5852" y="556"/>
      <point x="-5836" y="682"/>
      <point x="-5793" y="815" type="curve" smooth="yes"/>
      <point x="-5722" y="1031"/>
      <point x="-5593" y="1229"/>
      <point x="-5425" y="1378" type="curve" smooth="yes"/>
      <point x="-5261" y="1525"/>
      <point x="-5080" y="1606"/>
      <point x="-4913" y="1606" type="curve" smooth="yes"/>
      <point x="-4836" y="1606"/>
      <point x="-4769" y="1589"/>
      <point x="-4711" y="1556" type="curve"/>
      <point x="-4690" y="1590" type="line"/>
      <point x="-4757" y="1627"/>
      <point x="-4832" y="1645"/>
      <point x="-4913" y="1645" type="curve" smooth="yes"/>
      <point x="-5089" y="1645"/>
      <point x="-5282" y="1560"/>
      <point x="-5454" y="1407" type="curve" smooth="yes"/>
      <point x="-5626" y="1254"/>
      <point x="-5760" y="1048"/>
      <point x="-5831" y="827" type="curve" smooth="yes"/>
      <point x="-5876" y="688"/>
      <point x="-5894" y="556"/>
      <point x="-5883" y="431" type="curve" smooth="yes"/>
      <point x="-5873" y="306"/>
      <point x="-5836" y="203"/>
      <point x="-5772" y="122" type="curve" smooth="yes"/>
      <point x="-5691" y="18"/>
      <point x="-5582" y="-34"/>
      <point x="-5444" y="-34" type="curve" smooth="yes"/>
      <point x="-5321" y="-34"/>
      <point x="-5194" y="8"/>
      <point x="-5062" y="93" type="curve"/>
      <point x="-5084" y="126" type="line"/>
      <point x="-5210" y="46"/>
      <point x="-5330" y="6"/>
    </contour>
  </outline>
</glyph>
